<mxfile host="drawio-plugin" modified="2024-07-29T16:27:30.916Z" agent="Mozilla/5.0 (Macintosh; Intel Mac OS X 10_15_7) AppleWebKit/537.36 (KHTML, like Gecko) Chrome/122.0.0.0 Safari/537.36" version="22.1.22" etag="ldvPjE183W758DGnX47-" type="embed">
  <diagram id="ZYNRqO9oiyNeOKyCDyRC" name="Page-1">
    <mxGraphModel dx="876" dy="664" grid="1" gridSize="10" guides="1" tooltips="1" connect="1" arrows="1" fold="1" page="1" pageScale="1" pageWidth="850" pageHeight="1100" math="0" shadow="0">
      <root>
        <mxCell id="0" />
        <mxCell id="1" parent="0" />
        <mxCell id="2" value="" style="shape=image;verticalLabelPosition=bottom;labelBackgroundColor=default;verticalAlign=top;aspect=fixed;imageAspect=0;image=data:image/png,iVBORw0KGgoAAAANSUhEUgAABVoAAAMICAYAAAA5UV4hAAAMQGlDQ1BJQ0MgUHJvZmlsZQAASImVVwdYU8kWnluSkJDQAghICb0JIlICSAmhBZBeBBshCRBKiIGgYkcWFVwLKhawoasiih0QO2JnUex9QUVBWRcLduVNCui6r3xvvm/u/PefM/85c2ZuGQDUT3LF4mxUA4AcUb4kJtifMS4pmUHqBgSgCzQBFWBcXp6YFRUVDmAZbP9e3t0EiKy95iDT+mf/fy2afEEeDwAkCuJUfh4vB+KDAOBVPLEkHwCijDefmi+WYViBtgQGCPFCGU5X4CoZTlXgvXKbuBg2xC0AqFC5XEk6AGpXIM8o4KVDDbU+iJ1EfKEIAHUGxD45Obl8iFMgtoE2Yohl+szUH3TS/6aZOqTJ5aYPYcVc5EUlQJgnzuZO/z/T8b9LTrZ00IcVrNQMSUiMbM4wb7ezcsNkmApxryg1IhJiLYg/CPlye4hRSoY0JF5hjxry8tgwZ3ClAerE5waEQWwIcZAoOyJcyaemCYM4EMMdgk4T5nPiINaDeKEgLzBWabNJkhuj9IXWp0nYLCV/niuR+5X5eijNimcp9V9nCDhKfUytMCMuEWIKxBYFwoQIiNUgdszLig1T2owpzGBHDNpIpDGy+C0gjhGIgv0V+lhBmiQoRmlfmpM3OF9sU4aQE6HE+/Mz4kIU+cFaeFx5/HAu2BWBiBU/qCPIGxc+OBe+ICBQMXesWyCKj1XqfBDn+8coxuIUcXaU0h43E2QHy3gziF3yCmKVY/GEfLghFfp4mjg/Kk4RJ16YyQ2NUsSDLwPhgA0CAANIYU0FuSATCNt6G3rhnaInCHCBBKQDAXBQMoMjEuU9IniNBYXgT4gEIG9onL+8VwAKIP91iFVcHUCavLdAPiILPIU4B4SBbHgvlY8SDXlLAE8gI/yHdy6sPBhvNqyy/n/PD7LfGRZkwpWMdNAjQ33QkhhIDCCGEIOItrgB7oN74eHw6gerM87EPQbn8d2e8JTQTnhEuEHoINyZLCyS/BTlWNAB9YOUuUj9MRe4FdR0xf1xb6gOlXFd3AA44C7QDwv3hZ5dIctWxi3LCuMn7b/N4IfVUNqRncgoeRjZj2zz80g1OzXXIRVZrn/MjyLW1KF8s4d6fvbP/iH7fNiG/WyJLcQOYOewU9gF7CjWABjYCawRa8WOyfDQ7noi312D3mLk8WRBHeE//A2urCyTeU61Tj1OXxR9+YJpsnc0YOeKp0uE6Rn5DBb8IggYHBHPcQTD2cnZBQDZ90Xx+noTLf9uILqt37n5fwDgfWJgYODIdy70BAD73OHjf/g7Z8OEnw5VAM4f5kklBQoOl10I8C2hDp80fWAMzIENnI8zcANewA8EglAQCeJAEpgEo8+A+1wCpoKZYB4oAWVgGVgF1oGNYAvYAXaD/aABHAWnwFlwCVwBN8A9uHu6wAvQB96BzwiCkBAaQkf0ERPEErFHnBEm4oMEIuFIDJKEpCDpiAiRIjOR+UgZUo6sQzYjNcg+5DByCrmAtCN3kE6kB3mNfEIxlIpqo0aoFToSZaIsNAyNQyei6egUtBAtRpega9BqdBdaj55CL6E30A70BdqPAUwV08VMMQeMibGxSCwZS8Mk2GysFKvAqrE6rAmu8zWsA+vFPuJEnI4zcAe4g0PweJyHT8Fn44vxdfgOvB5vwa/hnXgf/o1AIxgS7AmeBA5hHCGdMJVQQqggbCMcIpyBz1IX4R2RSNQlWhPd4bOYRMwkziAuJq4n7iGeJLYTHxP7SSSSPsme5E2KJHFJ+aQS0lrSLtIJ0lVSF+mDiqqKiYqzSpBKsopIpUilQmWnynGVqyrPVD6TNciWZE9yJJlPnk5eSt5KbiJfJneRP1M0KdYUb0ocJZMyj7KGUkc5Q7lPeaOqqmqm6qEarSpUnau6RnWv6nnVTtWPVC2qHZVNnUCVUpdQt1NPUu9Q39BoNCuaHy2Zlk9bQquhnaY9pH1Qo6s5qnHU+Gpz1CrV6tWuqr1UJ6tbqrPUJ6kXqleoH1C/rN6rQdaw0mBrcDVma1RqHNa4pdGvSdccpRmpmaO5WHOn5gXNbi2SlpVWoBZfq1hri9Zprcd0jG5OZ9N59Pn0rfQz9C5tora1Nkc7U7tMe7d2m3afjpaOi06CzjSdSp1jOh26mK6VLkc3W3ep7n7dm7qfhhkNYw0TDFs0rG7Y1WHv9Ybr+ekJ9Er19ujd0Pukz9AP1M/SX67foP/AADewM4g2mGqwweCMQe9w7eFew3nDS4fvH37XEDW0M4wxnGG4xbDVsN/I2CjYSGy01ui0Ua+xrrGfcabxSuPjxj0mdBMfE6HJSpMTJs8ZOgwWI5uxhtHC6DM1NA0xlZpuNm0z/WxmbRZvVmS2x+yBOcWcaZ5mvtK82bzPwsRirMVMi1qLu5ZkS6ZlhuVqy3OW762srRKtFlg1WHVb61lzrAuta63v29BsfG2m2FTbXLcl2jJts2zX216xQ+1c7TLsKu0u26P2bvZC+/X27SMIIzxGiEZUj7jlQHVgORQ41Dp0Ouo6hjsWOTY4vhxpMTJ55PKR50Z+c3J1ynba6nRvlNao0FFFo5pGvXa2c+Y5VzpfH00bHTR6zujG0a9c7F0ELhtcbrvSXce6LnBtdv3q5u4mcatz63G3cE9xr3K/xdRmRjEXM897EDz8PeZ4HPX46Onmme+53/MvLwevLK+dXt1jrMcIxmwd89jbzJvrvdm7w4fhk+KzyafD19SX61vt+8jP3I/vt83vGcuWlcnaxXrp7+Qv8T/k/57tyZ7FPhmABQQHlAa0BWoFxgeuC3wYZBaUHlQb1BfsGjwj+GQIISQsZHnILY4Rh8ep4fSFuofOCm0Jo4bFhq0LexRuFy4JbxqLjg0du2Ls/QjLCFFEQySI5ESuiHwQZR01JepINDE6Kroy+mnMqJiZMedi6bGTY3fGvovzj1sady/eJl4a35ygnjAhoSbhfWJAYnlix7iR42aNu5RkkCRMakwmJSckb0vuHx84ftX4rgmuE0om3JxoPXHaxAuTDCZlTzo2WX0yd/KBFEJKYsrOlC/cSG41tz+Vk1qV2sdj81bzXvD9+Cv5PQJvQbngWZp3Wnlad7p3+or0ngzfjIqMXiFbuE74KjMkc2Pm+6zIrO1ZA9mJ2XtyVHJScg6LtERZopZc49xpue1ie3GJuGOK55RVU/okYZJteUjexLzGfG34I98qtZH+Iu0s8CmoLPgwNWHqgWma00TTWqfbTV80/VlhUOFvM/AZvBnNM01nzpvZOYs1a/NsZHbq7OY55nOK53TNDZ67Yx5lXta834ucisqL3s5PnN9UbFQ8t/jxL8G/1JaolUhKbi3wWrBxIb5QuLBt0ehFaxd9K+WXXixzKqso+7KYt/jir6N+XfPrwJK0JW1L3ZZuWEZcJlp2c7nv8h3lmuWF5Y9XjF1Rv5KxsnTl21WTV12ocKnYuJqyWrq6Y034msa1FmuXrf2yLmPdjUr/yj1VhlWLqt6v56+/usFvQ91Go41lGz9tEm66vTl4c321VXXFFuKWgi1PtyZsPfcb87eabQbbyrZ93S7a3rEjZkdLjXtNzU7DnUtr0Vppbc+uCbuu7A7Y3VjnULd5j+6esr1gr3Tv830p+27uD9vffIB5oO6g5cGqQ/RDpfVI/fT6voaMho7GpMb2w6GHm5u8mg4dcTyy/ajp0cpjOseWHqccLz4+cKLwRP9J8cneU+mnHjdPbr53etzp6y3RLW1nws6cPxt09vQ51rkT573PH73geeHwRebFhktul+pbXVsP/e76+6E2t7b6y+6XG694XGlqH9N+/Krv1VPXAq6dvc65fulGxI32m/E3b9+acKvjNv92953sO6/uFtz9fG/ufcL90gcaDyoeGj6s/sP2jz0dbh3HOgM6Wx/FPrr3mPf4xZO8J1+6ip/SnlY8M3lW0+3cfbQnqOfK8/HPu16IX3zuLflT88+qlzYvD/7l91dr37i+rleSVwOvF7/Rf7P9rcvb5v6o/ofvct59fl/6Qf/Djo/Mj+c+JX569nnqF9KXNV9tvzZ9C/t2fyBnYEDMlXDlvwIYrGhaGgCvtwNASwKADs9nlPGK85+8IIozqxyB/4QVZ0R5cQOgDv6/R/fCv5tbAOzdCo9fUF99AgBRNADiPAA6evRQHTyryc+VskKE54BNkV9Tc1LBvymKM+cPcf/cApmqC/i5/RcmxnxGVi8a/wAAAJZlWElmTU0AKgAAAAgABQESAAMAAAABAAEAAAEaAAUAAAABAAAASgEbAAUAAAABAAAAUgEoAAMAAAABAAIAAIdpAAQAAAABAAAAWgAAAAAAAACQAAAAAQAAAJAAAAABAAOShgAHAAAAEgAAAISgAgAEAAAAAQAABVqgAwAEAAAAAQAAAwgAAAAAQVNDSUkAAABTY3JlZW5zaG90u7S9DAAAAAlwSFlzAAAWJQAAFiUBSVIk8AAAAtxpVFh0WE1MOmNvbS5hZG9iZS54bXAAAAAAADx4OnhtcG1ldGEgeG1sbnM6eD0iYWRvYmU6bnM6bWV0YS8iIHg6eG1wdGs9IlhNUCBDb3JlIDYuMC4wIj4KICAgPHJkZjpSREYgeG1sbnM6cmRmPSJodHRwOi8vd3d3LnczLm9yZy8xOTk5LzAyLzIyLXJkZi1zeW50YXgtbnMjIj4KICAgICAgPHJkZjpEZXNjcmlwdGlvbiByZGY6YWJvdXQ9IiIKICAgICAgICAgICAgeG1sbnM6ZXhpZj0iaHR0cDovL25zLmFkb2JlLmNvbS9leGlmLzEuMC8iCiAgICAgICAgICAgIHhtbG5zOnRpZmY9Imh0dHA6Ly9ucy5hZG9iZS5jb20vdGlmZi8xLjAvIj4KICAgICAgICAgPGV4aWY6VXNlckNvbW1lbnQ+U2NyZWVuc2hvdDwvZXhpZjpVc2VyQ29tbWVudD4KICAgICAgICAgPGV4aWY6UGl4ZWxYRGltZW5zaW9uPjEzNzA8L2V4aWY6UGl4ZWxYRGltZW5zaW9uPgogICAgICAgICA8ZXhpZjpQaXhlbFlEaW1lbnNpb24+Nzc2PC9leGlmOlBpeGVsWURpbWVuc2lvbj4KICAgICAgICAgPHRpZmY6UmVzb2x1dGlvblVuaXQ+MjwvdGlmZjpSZXNvbHV0aW9uVW5pdD4KICAgICAgICAgPHRpZmY6WFJlc29sdXRpb24+MTQ0LzE8L3RpZmY6WFJlc29sdXRpb24+CiAgICAgICAgIDx0aWZmOllSZXNvbHV0aW9uPjE0NC8xPC90aWZmOllSZXNvbHV0aW9uPgogICAgICAgICA8dGlmZjpPcmllbnRhdGlvbj4xPC90aWZmOk9yaWVudGF0aW9uPgogICAgICA8L3JkZjpEZXNjcmlwdGlvbj4KICAgPC9yZGY6UkRGPgo8L3g6eG1wbWV0YT4KHa0BnQAAQABJREFUeAHs3QeAJkWd//+atDmzpCXLShIQEJCkIopyeCqCIHpwnAHhZ/ijgHJgQDFhVtQzICoq4nkgeuqpiIKCBMk57YLkzOY4of/fT81Ub3XPE3pm+pl9npl3w2z3011dXf3q+Hyf6uq2xDpHhwACCCCAAAIIIIAAAggggAACCCCAAAIIIDBsgfZhz8mMCCCAAAIIIIAAAggggAACCCCAAAIIIIAAAl6AQCs7AgIIIIAAAggggAACCCCAAAIIIIAAAgggMEIBAq0jBGR2BBBAAAEEEEAAAQQQQAABBBBAAAEEEECAQCv7AAIIIIAAAggggAACCCCAAAIIIIAAAgggMEIBAq0jBGR2BBBAAAEEEEAAAQQQQAABBBBAAAEEEECAQCv7AAIIIIAAAggggAACCCCAAAIIIIAAAgggMEIBAq0jBGR2BBBAAAEEEEAAAQQQQAABBBBAAAEEEECAQCv7AAIIIIAAAggggAACCCCAAAIIIIAAAgggMEIBAq0jBGR2BBBAAAEEEEAAAQQQQAABBBBAAAEEEECAQCv7AAIIIIAAAggggAACCCCAAAIIIIAAAgggMEIBAq0jBGR2BBBAAAEEEEAAAQQQQAABBBBAAAEEEECAQCv7AAIIIIAAAggggAACCCCAAAIIIIAAAgggMEIBAq0jBGR2BBBAAAEEEEAAAQQQQAABBBBAAAEEEECAQCv7AAIIIIAAAggggAACCCCAAAIIIIAAAgggMEIBAq0jBGR2BBBAAAEEEEAAAQQQQAABBBBAAAEEEECAQCv7AAIIIIAAAggggAACCCCAAAIIIIAAAgggMEIBAq0jBGR2BBBAAAEEEEAAAQQQQAABBBBAAAEEEECAQCv7AAIIIIAAAggggAACCCCAAAIIIIAAAgggMEKBzhHOP6LZ//nPf7rnn38+zaOtrc3tvvvu6eciAwsWLHBLly71SWfPnu222WabQbMVSTNoJkYg0ACBu+++261atcrn3N7e7nbbbbcGLKV1s+zp6XGXXnppugLz58932223XfpZA0Mx1LF/yy23uHvvvdc9+eSTbsaMGe4zn/lMJj99KJpu0IyMaEmB8XpNGMqxU2/D6rh6/PHHfbJJkya5gw46qN4sTC8g8O1vf9tdc801PuXZZ5/t5s2b54eTJHFXXHFFev3Qvc6OO+5YIMfRTTLe9osyj6nR3VLNsbR3vetdbu3atW7jjTd2X/ziF5ujUJSiqQQade6Lj91q3x+bCoLCIIAAAgi0loBdwNZbZ0GUxLQyfzfffPOQyvPa1742nX/y5MkV5y2SpuKMjESgZAELrKb769SpU0vOvfWzW7RoUeqjc8MZZ5wxaKWKGPb29iZnnXVW0tHRkclvypQpmfyKpsvMxIeWFxiv14Qix07RjRvntemmmxadjXQ1BO66666kq6vLn7O22GKLZM2aNWlq+1E6cy47+eST02nNNDDe9ot4fbmmD31PPO6449L9+vzzzx96Bswx5gUade6Lj12uYWN+N2IFEUAAgVEXWG81Wq+88kpfiywflv7pT3867Fp+9qUkn92gz0XSDJqJEQgg0FICX//6193HP/7xumUumq5uRiTwAqtXr3Y///nPXXd3t/+80047uf3337+pdbgmrNs8rbj91pW+9Yfe+973psfOaaed5iZMmND6K8UaIFBD4KMf/ajTfb/96OlOPfVU96//+q9uzpw5NeYY2iTOaUPzInXrCLBvt862oqQIIDA+BdZboPVHP/pRRfGf/exn7vOf/7yzmmgVpzMSAQQQqCegYF++23DDDZ2aIoi7ounieRiuLqDmYN7+9renCU488cSmD7SmhWXAsf3W305w4YUXussvv9wXwGpXuXe+853rrzAsGYFREtA1+ZhjjnFWm9U988wzTj8wnHvuuaUtnXNaaZRk1GQC7NtNtkEoDgIIIJATWC8vw1qxYoX7n//5n1xR+j8+8cQT7s9//nPFaYxEoNUFNtpoIzdt2rT0r9XXZ32Uv4jhwoUL06Kp7edrr73WPf300+7qq69Ox2ugaLrMTHxAoEUFihw7LbpqLV1stTN/yimnpOvwoQ99yKndW7rmF+CYGvk2Uq3WULnivPPOG3SdHvkSyAGB2gLWrFTtBExFAAEEEEBgiALrpUbrxRdf7JYtW1a1qD/5yU/ca17zmqrTmYBAqwr88Y9/bNWiN025ixjq5Rqh22qrrdxLX/rS8DHTL5ouMxMfEGhRgSLHTouuWksX+0tf+pLTj8zq5s6d60444YSWXp/xVHiOqZFvbdVqPeqoo5xqdVsDak5NaNx4441OLwylQ6BRAtdff73r6+vz2Xd2rpevw41aNfJFAAEEEGgCgfVyF5NvNkC/ZsfdJZdc4lTrlQ4BBBAYjsDy5cvT2fQYbrWuaLpq8zMeAQQQGInA4sWL3TnnnJNmoaY3qF2VcjAwTgTe8573pGt6yy23OH0PoEOgkQIKrqodbP0R1G+kNHkjgAAC41Ng1H/CU5syV1xxRaptb9Z1Z555pvv+97/vnnzyST9eQVbdZKndpvXVqZHx2267zd18881u1apVbvPNN3e77rqrb+OxmS/Iqg3wyCOP+BeNLViwwL9YQy+kedGLXuT0iFujO73QQDfJDzzwgLM3hfrl7rHHHsP64vjQQw+5Bx980Gmf6enpcfPmzXObbbaZ22abbdyMGTOGtCplupSZ15BWYiCxTG644Qb/aOlee+3lNtlkkyFno1/x7777bvfYY485HYNbb721mzx58pDzGe4M2jf1t/HGGzvVOC3z5Rf5Mk2cODE/quLnounimVeuXOluvfVW9/jjj/vtIUcdb2quYDid9q3777/fH0N6oZReDDJz5syaWZVdhrCwMvazkFfZ/TLPDUXL1ohjphHXmeHsQ0UNiqbTuUXNcuj8oh869t5772Gdp8LydA2455573FNPPeWvAS984Qv9eSNMj/u6VuiYvOuuu/z1WtefoRzbo31+1wv5lixZ4ldB543h1mbV8aqmURS41b3Ki1/84iFfJ2PHRpxXytwv1sc5IPYZ6XAjjv2RlqnS/EXPJyM9bg444AC3yy67uNtvv90X4ytf+Yo74ogjKhVp1Mat723UyH18tK/vjbQs+9xXbwcr+9y4aNEiX4Nb1zi9nFP3xC94wQv896ehXLvqlZvpCCCAAAKjLGA3R6PaffKTn0xsFdO/008/3S///e9/fzpO063pgELleu1rX5vOZwHQivMUSRNmvOaaa5Ldd989sfai0nzj8lpNk+TDH/5wYsHXMEum//KXvzyZPn16+nfllVdmpscf7ItQmk7z2EvA4smZ4QsuuCCT9n//938z0/XhD3/4Q2JfsCqWW+tgLwNKPvKRjyT2RXTQvEMZYbUAE7shTuxxL//32c9+1s/+rW99K7FA06Dly9ICgslNN91UdzF2A5PYixCSnXfeeVA+YTvYjUfy1re+NbGAfd38lKBMl5HmpXIHN23/St1+++2XbuvXv/71PokF/ZM3velNiQXLB7nYjwCJvTglsRvZStllxtljjsnBBx+cWPAuk09XV1dy3HHHJfZFOLHH6RP70pP+WXvKmTyG+8HeLJy87nWvS+zR2MyyLbiQHHLIIcnf/va3xG44M9POOOOMQYurZvixj30stQ37ivoWQE7Ha78tmm7QggdGyNnaUEzsx4uK5wkdA/bjUWLtLlbLwm/LcJ544xvf6NPJft99982svwXUK+ZRRhnK3M/CeW/q1KmZ8mu/Cuv55je/ueK6FB1Z5rlhKNeERhwzI73OyEzng2BbdB+qduwMZ/vttttu6ba2YKrfjL/5zW+SPffcMx0fH4c6T9kjwVWvP/H+GK7/1113XfKqV72qYn6HHnpoYsHUdPf5v//7v+SVr3xlUmkf1PXHXjSVpq02MNLze7V8q43XuXb27Nnp+r361a+uljSxHy7TdHI9+eSTvaW9PCixH9sy0zRd51Wdo3ReLdqVcV4pe7+Iy17GOcACGOlxo+PHmqqKF1F1OD7eNJ/2dXXVjqlqGZVx7Mf3jvajQ7VFpeO/+tWvZta50n1pvH5FzydhAWUdN/ajQ2Y//sc//hEWMeT+cM5pYSFlbKOQ11D7ZezjWmZ8Pi37PnIo61SGZaPOfccff3x6byivWl0Z58Z8/r///e+T7bbbLrPPx9dMq1iSfPOb30ws+JqZdST7diYjPiCAAAIINFRA7SGNWmc1ghLd5MYXkvBF6e9//3tmvIJzVkusbtmKfGEukkZl++IXv5goMBCXr9qwLo6VvsBYbZTM/J/61KcqroPV9Mmk03JqfclSECwuy5133pnJ99hjj81Mj9Pmhw888MDE2oPLzD+UD/mbng984APJ//t//6/u8hUg1U1DtU7bu1aANb8e+my1Hqpl58eX6VJGXvGXUAUEKnVxGgUZvvOd7xTaL63246AbspC/9m/ti/oxopJjGGcv6kr+9Kc/ZdLYY60hm2H3FeAPy6jW1zFvbRVm0lUKtMY+saGCuNXyDuP1Q0nRdJVW9r777vM/xIT8avW33HLL5C9/+UulbJL4nKR93l7WNShApLwrBVrLKkPsONL97CUveUlde7kPtyv73BD7V/uBrhHHTFnXGTnG61B0H4q3eXzsDGf7xXkp0Krrp4J7tY4JTTv66KMrBlvj/Lbddtvk0ksv9T+S1MrPauMnzz77rP9ho1Y6TdP66j6jWlfG+b1a3tXGK/gbl7vW9TF/3dWPa/qBKp6/0rDOq/pxyWrIVyuGH9+I80oZ+0UodFnnAHtSKmMWglBhOZX62sfie0OZhnuoeL+Nj6l8PmUe+9rvw7YOP3Lklxd/1o/4Ib36lX6kHs75RMso87jR94G4nKrUMNxuOOe0MrfRcMpd1j6uZcf75Uiv78NZlzItG3Xui41qHUdlnRuDoyq76J64yPVSx4M9EZK5tx/Ovh2WTR8BBBBAYPQERjXQqpu7+CZKNV9Cp4uyAhPxdAVd6nXxzWG1L8xF0lS7WVRtuA022CBTrlBG3Wxb0wKZIv7617/OpFXtwUrdz372s0w65akgkGq4VOpUGygsVzXm4u4zn/lMOi2kUV6q6aCbhzAu7itQXO+LV7yMeDh/0xPnG4blVu0m4mtf+1qcXTpsLyyqWFb9qqt1URAw5B/3q9W4LNOlrLziG7tqX8riNFrPao6xQRhWQL5S95a3vKWiXZgv7lt7VZm0Iwm0WlMSSf5HgnhZ9YabKdB62WWX+VpB9cocT9dxUCm4E5+TrNmERH/xfGE4H2gtswxl7meNvvEv+9wQ+1e7bjTimCnrOqNjPF6HovtQvM3j889wtl+cV9hfi/atPcZBp6l8fpMmTap4TOSXYc2PFEqn+VST/9FHHx207LLO74MyrjNCtVHj9an11EeR626cV3640rk0FK+R55V8OWp9rrRfhDKWdQ5QAD8ug34AtqYbwmIq9r/3ve9l5ol/NIr32/iYymdU5rHf6EBr0fNJ2ceNvgfET7xUe+onb1vp83DOaWVuo0plqjeurH1cy4n3S+3vZdxH1it/PL1My0ad+2KjaoHWMs+NwUe1x+NzUBjWd8pq1733ve99YfZkOPt2OjMDCCCAAAKjJjCqgdb/+I//yFxc9JhQ3Olx3HDBUb/ITVb8ZbPaF+Z6afIBYC1btW4U5AjBSGtPMjnvvPMyj/kpnYLFCiaFTo/Vx4Eq3XiHPEIa9fM1X8N6X3XVVXEyP3zvvfdmXOIvI2rCQEHVML9qXagGZPyoibV5m+ixfmvXNE2n9Eo3nK7aTY+CSmeddVZi7ej5bFW2X/ziF4MejdGjks8991xm0X/+858zZbNG6n1e8ePXugnXlyTtF2F91T/yyCMzeelDmS5l5hXf2FX7UhaniddTj/MrkG/tFSbWdlfy3//934m1V5ux0L4Xm8lCj/XF+Wj4X/7lXxI9tvTggw8mejxPwVQ1LZFPp8/541R5Fu1+/vOfD8rT2jBNzj//fP/Yr7VJ5YcrNTmhZVcKDsQ+seHDDz/s81StmPhLhWqKa5z+9Hh+0XTxOuqxsXxtfHn9+Mc/9vnpeNNjzl/+8pcH/SCgddO+G3fxOSk21zlMTZcoOK3aPPG2LLsMsWNchuHsZ9Yms/e9+OKLM9tbwcpgL/fhdGWfG1SG2L/SdaMRx0yZ15n8OsTbr9Y+FG/z+NgZzvaL84qXr+YvdG555plnfG1TNb2w4447ZvYLXSt0XYq7avnpXKUvu3oKxNogzWy7eLka3n777RP9iKl97ne/+52/zua/uObPZ2We3+P1KTIcX8u0PWo161Ptuqtzne4JdL+i85CuD3ocPt/MjMwrBZlH67wy3P1CjmWeA3S/ph9v431HTTPV6vLNV8Q/7sb7bXxMxfmVfew3OtAa21Q7nzTquMkHoULN4dizyPBQz2llb6MiZYzTlLmPK994v4y353Cu73E5iwyXbdmoc19sVCnQWva5UXa6HsbbQ8NveMMbEt076QcfnZ/0nU/Nd+TThR/eh7pvF9lmpEEAAQQQKF9g1AKty5Ytyzwaq0Da008/nVkjXUTyFxZrGD+TJv+h3hdmpa+VRgEQtd8WL1eP5MXB03iZam9IN9Nx+vwXNwV24ul6LDjf6QthnCYMf/rTn84nTf7rv/4rk/a3v/1tmkbt0oV51f/P//zPdFp+IJ/2sMMOyycp9LnSTY8CvApOVOr0hTv/Rfukk07KJP34xz+eWQ89hlqtUyA3bmNUtX3zXX5dR+JSZl7xjV21L2VxmrBt9UW60j6pR5rytSHj9ns1T77d3krBS/nZS9Qq/lKe37/z1rU+x4EErYv2OZ0L8p0C72pfMaxv6Fcqa+xTzTAOtOqLW7WuaLovfOELmbKpRoG9vK9itvqxRG34hXVQX4GiuIvPSSGdvvz/9a9/jZNlhssuQ+wYyjDc/SwUVIHskJf6J554Ypg07H7Z5wYVJPbPB1obccw04joTr0Mwr7cPxdu80rEzlO0X5xWWr+M1/6OCvHUN2GqrrTL7hs6rcVcpv9D+d5xOwUT9WBOWGfqqZagvxvlO7VOGNOrnr3tlnt/zy671WY8Jx+XS+a9WV+m6qyCyfnys1OnLev4pobe//e2Dko7GeWUk+4UKXPY5IF+TuNY1QoE+1TQL20pPOMU/ZMf7baVjqhHH/mgFWmudTxp13OSPV/0oO5KuyDmtEdtoqGUuex+P98uw7470+l5knRph2ahzX2xUKdBa9rlR9xb5e+JXvOIVFSvjyFptsYZtp/7ZZ5+d2QRF9u3MDHxAAAEEEBhVgVELtP7whz/MXDDUnmSlTo+IxxeWem00xV8281+YQ/610qhWYLw8PVJf6YtiyEv9iy66KDNP/lF+tRsa55l/yZVu3OPp8XCldlr1EpmQRl+s1Fh+6BSQDNPUz1+IQzr1dZGPb9D1oozhdJVuet797nfXzOryXFt0qnkZ1/R929velq6HtqNqL9Xq4qCcgmX5rkyXMvOKb+wqfSnTesRptE132GGHmjWd9DKOeB/47ne/m3LoBVTxNP2oUGv/vuOOOwa14zrcQKteFhIvWy9sUS2Yap0CvXqMM56nGQKt+kEorg2uHxXkVKvLnyO0f8ddfE7S+uq4Vu3ial0jylDmfhbK3Ygb/7LPDSpr7J+/bjTimGnEdSZehyL7kNY73uaVzj9D2X5xXlq+rifVmr7RsvVjV3xs63HsuMvnp8+6ZlXq8nnpqQ7V8q/U6bwSL1c1K+OuzPN7nG+94XwNNrV1XqurdN1VO3+1ul/+8peZdVfAMA5Gj8Z5ZaT7hdav7HOAzt/xPqHavnoaqVL3jW98I5M2foRX6eP9ttIx1YhjP76PqxQgyq/HUNtolU29a1Kjjpv8cVHv3jK/rvnPRc5pjdhG+XLU+1z2Ph7vl9qeI7mPrFf2eHojLBtx7lOZY6P8cdSIc2P+3mLevHlVf7BX+S655JLMuUdtcsddkX07Ts8wAggggMDoCrTbBXhUuh/96EeZ5Vj7PZnP4YM9ahoGfd8eA3QWGMqMK/ODPcaRyc5u6pwF7jLj8h+sRoyzx/LS0fYFz1kAKf1sb0NOhzVgL82q+tkCjs4eE06n26ORzgKQ6WetuwUp088WYHT2pSD9bLUr0mEN2CPgzh7HzowLHyyg4G699VZngV7/F+cb0gy3b29ArjmrvYDLWRA9TWNfyJ094ph+trdROwtQ+z9rosHZDUg6LT8gE7vxyo/OfC7Tpcy8MoUs+MFeYuXsC3LV1PYLeWaavbgj/ZzfxlaTp+b+bV+K3VFHHZXOP5IB+3ElM7v9aOLsy1tmXPzBaiY7q00ej2qKYXs5mLNH+NOyvOMd73ByqtXpHBHvw3bDnDlH5Oc99dRTnf1gkx+dfh6NMoxkP0sL2oCBss8N9YrYiGOmEdeZ/HrU24fy6cv+/IlPfMLZjxBVs7WnGjLT4vNUZsLAB3uBk9M1q1IXH1uabkFnZ7U3KyV1VivP2RM06TSrPZ8Oa2B9nd+tlm/NcmQmVvhgbdO6008/vcKUdaPskdTMecUC1073K6EbjfNKGftF2ecAnb/tqYTA4M/N1tRE+jkesMBR/NFZreDM53ofRuPYr1eG4Uyvdz5p1HGTz9eeHBlO8Yc0TzNso7L38TzAaF3fR8OyjHNf3if/uRHnRns5amYx9sSP07pU63T+thdDppOtvf90mAEEEEAAgeYXqPwtpuRyW3symWCjPfbtdAGp1FnbqJnR1qZYJtCYmVjCB2t7Nc1FAVZrRzb9XG1AQS9rNy6dbLFxF+djzQI4a88xnW6PEmeCxdZ+UTrNGr939tbb9LPVVnXWZmb6WYHR+IthPohrj52kaTVgjyM6Bd6s3VJnNQqdtYOXmW7tozqrWej/rI3JzLThftCXXq1zvS4fnFq4cGE6y3777ec++MEP+r9K20DBVauZ5HTzYzWSfMA4nbnCQJkuZeZVoah1R9mv2DXT7LLLLpnp8TaPjRW0OOiggzJpK31QkLCMzpo1yGSjAGW97ogjjqiXZNSn59dj//33r1sGnSPidPohxmqsVp3P2uOqOk0TRqMMI9nPahZ+hBPLPjfUK04jjpn4+lDWdSa/HvX2oXz6sj/nA6n5/K2Jk8woq0GY+Zz/kL9exNOtaY74Y+bLaGaCfZB3HLC1dlAzSdbX+T0faJ01a1amXPU+2JuondWgrJlM56H8OVX3Y6EbjfNKGftFI84B8Q/c8rCnEAJL2tc9RxzcsGZ43B577JFOLzIwGsd+kXIMNU2980mjjpt8oNVqFg616ENO3wzbqBH7eAwxWtf30bAs49wX21QabsS5Mb630DLtyc5Ki07H6bp15513Ol0r9adKMnQIIIAAAq0jsK6aRwPLbG0sqYmCdAn6kmQvkUk/1xuwFzs4exlBvWTDmh7fFCgAmb/Jq5apPbqVmWTtobk44KWA6De/+U2fxho494FBe8mN/2ztMKbzKvClWqq6oIaauwrEhiCNPUaVptVAPtCqgO7hhx/u7BHBNJ1qi+pLg/5Uk0c1Nw4++GAfHFZgt1btyDSTIQzY4+iFUuuL869+9as0bf6mI0zQF0H9Km5vYHYaVs1XfeGJa/qGtNX6ZbqUmVe18lYbr2Nl2rRp1Sb78bWmx8ZaDwXa63XVaobVmy8/Pf5Cr+XqB5Z6XVnLrrecoUzXsR13Z555pvvBD34Qj6o4bG1OZ8brRxBrWzIzLnyoF4xodBlGup+F9Wh0v4xzQ70yNuKYadR1Jl6XevtQnLYRw7VqZGt5ca3SIsuvdS7IP3VSb9m1lre+zu/5QGuRc3O8HvYixPhj1eG8TXxebvR5RYXKLz9f0KHuF2WdA/Sj/imnnJLeV1ibo75ma/zEkL3MM3PvWulH4Pz65D+PxrGfX2YZn+udTxp13OR/kLE2+ctYnZp5NNs2KmsfDys9mtf30bAs49wXbKr1G3FujO8t9DRj+E5YrQwab81p+b9aaZiGAAIIINCcAg0PtCrAqkBr3KmW6gknnBCPqjmsIKK9EMpZO2w10w11omqPKvgRunzwNIyv1M8HZOPH4JVeNV5DoFWf1XyALqr6cmVvRNYo3ynIqhtLayvIBxY1UoFWa3vNT48fNcnXlPUJ7B97s7uzdjqdvbUyjEr7qr1jb0P3f/aiLb8sPZ5tL6Pyj1SmCUcwMHfu3EJz54NMCp7GnR4RO+uss9y5557r8rWO4nRFh8t0KTOvouVXuvhL31DmU1p7YYeztm7T2fL7bDohN1ArwJFLWvWjfnnX8RU6exFOGKzZH8oxWDOjEifmazaoZmqt2qnVFh03LxKn0Y8s9WqmNboMI9nP4nVp1HDZ54Zq5WzEMdPI60xYjyL7UEjbiL6uYfX24aEsV+eqoeyT+jI6km59nN/zNfWGWqO1XgAzeKhJlrjT/VfoGn1eKXO/KPscoCd6dJ9mL4/0HHoSxF7o6ezFWIHH31uFD2oW49/+7d/Cx0L90Tj2ixQkruhQJH3R80kjjhvd56uJIWtL2Be1XhMjRdanVppm2UYqY9n7eFjvoZxLwzzD6Y+WZRnnvnrrV/a5UftzfD9e9HtTvXIyHQEEEECgeQXaG100tXcXtwk2nOXZW8rdr3/96+HMWnOe/C/lQ6lRErfZqIXkL5r5tlRDLda4vVbdTO6zzz6+jPYSrLSsoZ1W1eCM09tbldM08YC+AKj2qpahx75rBaTVtqm9xMDpEbj8L7ZxnkMZLvoFO19zJS6n1nn+/Pnu29/+dtUgq27+VcvC3pzqivyiXaZLmXkNxXYktY8XL16c1pLWMotuJzmPtMsHEYrmp2Xna6sVnbdR6fLnieEuR0G84XaNLsNI9rPhrlPR+Rpxbqi27EYcM/ltV+Z1ptp6jPb4kQY68+VVbZ/R7NbH+T1/PhhqMKzoMasnXOIurjGY3zfjdEMZzq9LmLes/aJR54B///d/D0X1/bj5ANU+i59K0NNEcdv8mRmrfMj7rq9jP3+/WqW4Qx49GsdNrXbdh1zgCjM0yzZq1D6uVS56rqjAM6RRo2VZdH1qnfvqrVh+XeqlrzY9nBtV+SA+xxd5wqtanoxHAAEEEGgNgYbXaM2/BEuBlCKBHD1GHx6lF6WaD1CtzTI7e8tk5pH9obR/E/8yqTLpMaq40y/IBx54oPv973/vR1955ZX+IqvaqqFTm0zhi4iaRvjCF77gJ+lXYbXTqoty3N5mvtmAkE/ov/zlL3f60y+nCroqyK3l6cuCXoIRdwq4qs0m1a4d6a/d+dq88XLi4bgmjcaHL3wKpB9zzDGZdVWwTcFq/SkorMCqGoUPwVmVvWitwjJdyswrtmnEsL4Uav8KN3pFg59F09Uqc75matEvejqu4pvRWssYrWmqjRsf79/61rdc0RoVcRmLPCYWp4+Hm6EMcXlGa7jR54b8ejTimGnkdSZffj6PTGA0z+/5GqxxW+xF1qLeCyFDHvG5S+PiHylb4bzSyHOA2kjUfUiw/O1vf+uvl7pu5l+CNZxmA5rl2F+0aFHYHRrSL/O40f1KqM2qwpb1LoFqK94M26iR+3i19W7E+NGyDMdrvXWode6rN2/Z50a99Erfa8L9baNratdbP6YjgAACCDReoKGBVt085B9nV7ub+bekV1pNvcgpfmHWpZde6vQLY603NFbKp9Y4/VKux+oefvhhnyz0a80TpuVrg+YDrUqnwGgItOqiqqBmqNmq6Qoihu6AAw5wqsUTfoFVgDR+fF5tLL3sZS8LyWv2tV56C7P+1OkmW22efu9738u8WEwB0ptvvtkp4DuS7vbbby80e76pgPAou2qRxEFT1bzU43y1Xtw0nC8OZbqUmVchvGEk0k3d1ltvndZczvtXy/LGG2+sNqnweH15jb/AKsiuG8x6tVWLlrFwQUpIuN122znVNgmdAhXxy/DC+Eb2m6EMjVy/anmP1rkhLL8Rx0yjrzOh7PTLExiN83s+0Fo0eBDWMv9oaxif7+fva+J7lVY4rzTyHKCA6lve8hb/JI3c9IOg7jX1glI9Fh86BfuqPVEU0lTqN8uxH99fVSpnWePKOG70VEHcNTrQ2gzbqJH7eGzZ6OHRsizj3FfPouxzoyqJbLbZZi5UOFEzcvpBQWa1Or2MLw4YH3XUUbWSMw0BBBBAoIkERv6McI2V0YsEVDszdDvvvHOhIKvSK0gYfxFRjcwLL7wwZFVa/4UvfGGal27w4kfF0gm5AbWjdNVVV6VjdbM+b9689HMYyNdAVVuzd9xxR5icCbTqIrzvvvum0xRojdtnVY3XSo9TfuxjH3Mnn3yy/1Ot30qdHlfTix+UX/7N70XWt1Ke8TgFbOu9QVpBNn2Bibvw9t58oPaTn/xkzSCrvgwpYF+rK9OlzLxqlbkR0+Iv1Xop2/333193MWU10xEfW/oB4U9/+lPdZRdJUzeTkhPohjvubr311vhj1WE1gxGOTbWPHNfQrzpTlQnNUIYqRWvo6EacG+oVuBHHTHwslH2dqbc+TK8tsL7O76r9FXdDrdEa3x/E+cTDOudccskl8ajM0zetcF5p9DmgUvMB+lE8Xq7aZtVj8sPpGnHsxz9Yar+p9aJQTYvvV4ezDpXmadRxk/8RfajNNVQqa71xjdhG9ZYZT4/3NY0v4x44zn80h0fDsoxzXz2TRpwb83nqScdanb43KbCqH4P09+EPf7hWcqYhgAACCDSZQEMDrflmA4499tjCq6+g4hvf+MZM+mqBxEyiIX7QC6bi7mtf+1r8seKwAsjxo/iqeVmpOQR9YY/zV7AlPDaiWpt77713Jv+4ndbLLrusUPusMv7qV7/q/3QRrhfMOfLIIzPLzNceyEws+EHrFF4oUW2WX/3qV5mXgOlLZrjpyP86Xe9tt2oSIa7tW2mZZbqUmVelsjZyXBw00nJC8xTVlqlHJ/VXRrfDDjtksolfDpeZMPBBzWTopXfN1sXHsMqmAGqtL7ZKox9U3ve+96XH5k9/+tOK5wilLdI1QxmKlLPsNI04N9QrYyOOmfz2K/M6U299mF5bYH2d3/NPkgw10KonfOpdd/Vyp7iNfN1zxG0D5vfL9XFuq711nGv0OUDt5Id7EZVFpvl7zbe//e31ill1et64jGM/roSgHzHvvPPOqsv/7ne/W/eH8Koz15jQqOMmX7O70TVatYqN2EY16AZNavQ+PmiBDRwxGpZlnPvqEeTXo4xz4y677JJZbL37XQWU4xc2j/aTVJnC8gEBBBBAYMgCDQu0LliwIPMrugKRb3vb24ZUQP2CF3eqxXj33XfHo0Y8rBcrxQ2rK4ha69d/Lf9Tn/pUZrn6Zb9aF18YQ7MASrv//vsPqiGhWqvVujifOM1ee+2VflRNWz1mUqu75ZZbMpNDrdLMyGF8OOGEEzKB1DgLfYH8+Mc/Ho/KvNk3X7MnPFqTmWHgw3XXXefe/e53V5qUGVemS5l5ZQo5Ch/U9m1c++XHP/6xq/YrumrxqOZOvWB90WKfdNJJmeDi7373u5pBXB1XQw02FC3LSNLpkVG1Dxw6PYqrdlqrdfoR4JRTTsk4DvXcl8+7GcqQL1ORz/kvzUXmidM04twQ519puBHHTKOvM5XWo4xxI91+ZZSh0Xmsr/P7TjvtlGl/smhN+djj1FNPrXrOVFvbp512WpzcffSjH818boXzymicA+Jarfrx+eyzz06d1La22okfbteIY3+TTTbJFKfaUyjXXnutvxZlEpf0oVHHTf4e9UUvelFJJe7PptI5rRHbaCiFHo19fCjlGUna0bIc6bmv3jo24tz4wQ9+MH0vh5avJvL+/Oc/VyzKqlWr3Hvf+97MtGrfA0OiSvu2pqlikH5wCX/f//73nZr2o0MAAQQQaLCA1UZsSGc39IkVPf2z9kiHvBwLTCbWzmOah/I7/fTTM/lYEwPpdAvmZqaFD/XSHH/88WkeWoY1BZDYixDC7Gnfaqkl1qZrJq3VQk2nVxqwx+Uz6YOJ3cgPSm615BJri3VQemvTdlDaMMJqR2TSWxtAiT1+HSanfWvCIbEgW2I1hdP08rLAVpqm6IBdzNM8wvqob7VCErtpSKzdoTQr+/KYWJAqk16+FqxK01jQKjPdamsk11xzTTpdAyq/tTGb2Iu7MmnD8vPrUaZLmXnttttuafmtVnNmHcOHOI3dgIfRVfvW7m+apzzOOOOMTFprLiIzXfuA1YL228CCgt7aalsnW265ZSZdsP3617+eyW8oH+wFIpk8Ozs7k/POOy/RckNnL79ITjzxxEy6sOz8umie2KeaoQWX0/ze9KY3hUUN6hdNZ7V80/xC2f7zP/8zsx7K3H5gSl760pdm0lrTHYn9eJBZdr1zUibxwIeyyxA7lrGfqZhaz+Cjvrb39ddfn9iNvv+rtF61xjXi3KDl1fNvxDFT9nWm3jpUco23eaVjZyjbL86ryP5j7ZVn9o38sT2U/Kw2XSavc889t9LqpuPi657VWE7Ha6DM83sm4wIfjjjiiHQ97NH0xGr1V52r2nXXAraJ1XxK59OxZj9KJ/ZEQZq3jkX5VurW93ml3n7RqHNAbGHNHyXxtSA+h51zzjlx0kHD8X5b6ZjSDGUf+2eeeWZm26rsKqc1D+TLZzUkE6stl+h+MF6XMGxNUw1aj6GeTxp13NgPXZkyL1y4cFBZhzKi6Dmt7G00lDI2Yh+P98si5+d695FDWZ+yLRt17qtnVPa5UYbWnFRm/9b3IWsPOtH33dDp+LXKOJl09uNKYk20hSS+X3Tf1neycOyHvr1wOZMXHxBAAAEEyhfQo+yld7rRt7eOZ07sP/jBD4a1nHe+852ZfBQMshp3aV5Fbg7rpXniiSeSadOmZZaji9HcuXOT17zmNYmCqbpRCReo0LdGzAcFBNOCDQzoAqeb7zBP6FvNzHxS/9negjsobT64HM+o/O0Rl8w8uum22gaJNdWQfOADH0jsRVuZAGsoQ61842Xkh6vd9IR8FQy1xyIH7QNh+llnnZXJUjcLCq6G6aFvb7L166DtVykAHdKpr2DuwQcfnOgLk7oyXcrMK76xq/alLE5Txg2y1Wyq6Cs3q809yD121fBIAq3WiH9i7Q8PWobG6UZS+6aOo/wyw+d8MEbbNvapZhh/aS4j0Krl2gtSBpVT5w3t64cddpg/DvXjRSh76FttI82e6eqdkzKJow9lliF2LGM/UzF17tcXh7DuoS8XqyESrUmxwUacG7Tkev6NOGbKvs7UW4dKwvE2r3TsDGX7xXkV2X/qBdSGkl+ZgdYyz++VzGuNU3AsHCPq64fKal29666CanvuuWdiTQNk8lS+CuLKv1q3Ps8r9faLRp0D8haqDBBvCw0rQG8vMs0nzXyO99tKx5QSl33sKxCjbZovb6XrTz6NPpcRaG3UcaMfQkKZ9eP9SLui57Syt9FQyt2IfTzeL4ucn8sMtJZt2ahzXxGjMs+N2idUKUTfLcM+Hvr63mRNu/j7yPx9uT5XOmaL7ts6VsNyQp9A61COUNIigAACwxNoSKBVNSrDyVx9XUDCL+1DLWalGqGXX355mk2RL5tF0uiiE9/gxeWvNLzVVlsl9nb2tBy1Bt7whjdkPGbMmDGoJlyYP19LQMu2pgzC5Ip93SBVCm5UKncYp+CQatAOp8vf9KjGrX5tDXnX6qvmYqXuggsuKDS/8rbHZ/wX0krLsaYd0uzLdCkrr/jGrtqXsjhNWTfI1oZbYm3R1TWeP39+Ys1nZNKptsVIOtVOrlazJr8N7bGzTA3oZgq02ks6EmvOJGOTL3/+szWHUJGuyDmp0oxllqER+5nKfNxxx1U0Gk6gVfk14txQxL8Rx0yZ15ki6yC/uIu3ebXzT9HtF+dV5DxVL6A2lPzKDLTKp6zze2xdZFhPfMTnjE984hNVZ8tfd/Uj6gYbbJCZP84rDCvwam2+V81XE9bneaXefqHyNeIcoHzj7oc//OEgS9U4rtfF+221Y0p5lHnsKz9rS7bQfZ/uzfQUSdgf1K8UtBnO+aTs48aav8qU05of0qqOuCt6Tit7Gw2l4GXv4/F+WeT8rG0Z7yOV7r2Gsj5lWjbq3FfEqMxzY/B78MEHE2uSJOMd28fDqjTw5S9/Ocw6qF9k3ybQOoiNEQgggMCoCDQk0Kqbo/hCoeDEcDsFA60x/Ex+1u5Yml38a6N+za/UFUmj+RQMPvroozPLitcjDOuGtF4th7gc3/nOdzJ51go42NtHM2nVdEL8mHWcbzysGg6qfRvKWK2vmqO6aMePqcT5FBnO3/RYu57Jvffem+y8885Vl68g9kUXXVQz+4svvrhmQG6bbbZJ9AVbnWo1V9pW1s5oZhllupSRl36xDttm4403zpQ1fIjT2Btcw+iq/aI3yPr1+ytf+Urykpe8ZNAXNNXMtHZEfc0b1aoKZVRfjzWNtNMXKNVQjvONh1XDNTyiqcB9mFbpZj/2qWbYiBqtweD8889P9GNJKGO+r2Ufeuihmcd5w7yhX/ScFNLn+2WUIXYscz/Ttq5UO6zWeS+/fvnPZZ8bivo34pgp6zpTdB1iy3ibVzt2im6/OK8i+4+1DZ05ZvLH9lDy07UkPu5G0nRA8Cnj/B7yKtrXdUw/2oZ1US3/ap32m7jGorWz53/stRespPOHfELfXiyZ6AeDot36OK/U2y9C2cs+B4R8Q3/p0qWDnr6wNhTD5Kr9eL+tdkyFmcs69kN+f/zjH6v+yK1acO9617sSe5mO/7E+7BPq33DDDSGLtD+c84lmLvO4UXMHcTkrNYOVFngIA0XPacqy7G00hGImZe7j8X5Z5Pxc9D5yKOtTlmWjzn1FAq1hfcs4N4a81FdzaPaSvYo108MxoO+aN998czzboOEi+7aa51IzTiFf9a0t5EF5MQIBBBBAoFyBNmVnJ126SEBv6VWD/PqzwKezIJSz4I9/IYL69thHlLq5BvUiL72B9oEHHvB/erGDNbfgLNDpX+hjzSCMuPz2C6+zAHC64nqBkt6qrs5qzrirr77a6YVB2rX05nm9zEAv+rJat+k81Qbsy46zLw9+HaxtLmcBLWft4jp7xNz/WRArnVX56+VY2kb2BdTZzaTTm5zthiJNEwbKdCkzr1C+0e7rhU333HOPs5s9t9FGG7l58+Y5e0zSF8PaJ3YWxE6LZIFXd9BBB6Wfhzug7aWXyWn/sFquvjF+LVcvGzn88MOdNQ8x3KxHfT5rK8vZDbDTC/qs7Wb/YjtrAsFZkynOAoqZt1g3qnDNUIZq66ZtbY9D+jeG202+P1/YDzH+XFptnnrjG3VuqLfcML3sY6aZrzON2H7Bsdn7o31+/+xnP+s+8pGPpCy6futFWUU7bSsLSPnzkTWd4/RGemsn2v9ZTbai2aTpmvm8sr7PASnSCAfKPvatiR5nT1g5vVBN1yHdd+leVfd+o9WVcdxY4Muvg8qsYV1jy+qGek4rexsVXY+xso/H69soy5Ge+3TvGV6+pnOl/SgRF3vQcCPOjbo/0nFrP344fefR9x19l7Em4Xx/UCEqjBjqvl0hC0YhgAACCDRAgEBrA1DHepa1Aq1jfd1bbf10A6a/0CkgXa/Tm1GtCYs0mQKJZb/5N82cAQSaTIBjpsk2yBgvjrXZ57beemunL/Hq3ve+97lvfOMbY3ytWT0EsgLXXnut23fffdORVrvT/wCbjmAAgZIFhhpoLXnxZIcAAgggMMYF6kddxjgAq4fAWBb40pe+5OwRwvTP2gCsubr6sm9vWk3TWPtuzh4/TT8zgMBYF+CYGetbuLnWz9pZdfpxK3Q//vGP06BrGEcfgbEu8M1vfjNdRWsOw9lLLNPPDCDQCIFVq1Y1IlvyRAABBBBAwAsQaGVHQGAMC1hbmZm105eZFStWZMaFD9Zur69BsmDBgjDKf9kpUgs2nYEBBFpcgGOmxTdgCxb/9NNP97VaVXQ9OmwvIGzBtaDICAxPQPcc1hZ8OvMXv/hFFzcTlU5gAIGSBNRslprcCJ29NDAM0kcAAQQQQKAUAQKtpTCSCQLNKWAvvnL2Mrm0cHpMVe3dXnrppb6NVD0mbS8yc6pF9YY3vMG39RcSd3V1uRNOOCF8pI/AuBDgmBkXm7mpVnLy5MmZ5gJUqzo0JdBUBaUwCDRA4HOf+5yzFw/6nI844ghnLwFqwFLIEgHnPvOZz7h3v/vdbq+99sqcY/W+ADoEEEAAAQTKFKCN1jI1x0letNHaWhv6wgsvdMccc4yzN1wPKriCqd3d3YPGa8TnP/959+EPf7jiNEYiMJYFOGbG8tZt3nU78sgj3UUXXeQLePbZZ7vTTjuteQtLyRAoQUAvStLLf3QfMnXqVP+STr0QiA6BRgioOaynnnpqUNZ6L8FJJ500aDwjEEAAAQQQGK4ANVqHK8d8CLSIwFvf+lZfW0pttea7SkFWBV9Vo+pDH/pQPjmfERgXAhwz42IzN91KnnPOOW7WrFm+XDoHV2vmpekKToEQGKaAflAI9yEf//jH/VvXh5kVsyEwLIGjjz7a13Id1szMhAACCCCAQBWBzirjGY1AVYHOzk63zz77pNPnz5+fDjPQnALvec973Ote9zofcP3JT37inn766UEF1S/9Rx11lDv++OPdzjvvPGg6IxAYTwIcM+NpazfHum666abuvPPOc7/73e98gRYuXOh23XXX5igcpUCgAQJz585173jHO5yaz4hfCteARZElAm6nnXbyNafVVICG1ZTWscceiwwCCCCAAAKlC9B0QOmkZIhA8wuo/T89sqc2W/XWawVZ58yZwwsomn/TUcL1JMAxs57gWSwCCCCAAAIIIIAAAggg0EICBFpbaGNRVAQQQAABBBBAAAEEEEAAAQQQQAABBBBoTgHaaG3O7UKpEEAAAQQQQAABBBBAAAEEEEAAAQQQQKCFBAi0ttDGoqgIIIAAAggggAACCCCAAAIIIIAAAggg0JwCBFqbc7tQKgQQQAABBBBAAAEEEEAAAQQQQAABBBBoIQECrS20sSgqAggggAACCCCAAAIIIIAAAggggAACCDSnAIHW5twulAoBBBBAAAEEEEAAAQQQQAABBBBAAAEEWkiAQGsLbSyKigACCCCAAAIIIIAAAggggAACCCCAAALNKUCgtTm3C6VCAAEEEEAAAQQQQAABBBBAAAEEEEAAgRYSINDaQhuLoiKAAAIIIIAAAggggAACCCCAAAIIIIBAcwoQaG3O7UKpEEAAAQQQQAABBBBAAAEEEEAAAQQQQKCFBAi0ttDGoqgIIIAAAggggAACCCCAAAIIIIAAAggg0JwCBFqbc7tQKgQQQAABBBBAAAEEEEAAAQQQQAABBBBoIQECrS20sSgqAggggAACCCCAAAIIIIAAAggggAACCDSnAIHW5twulAoBBBBAAAEEEEAAAQQQQAABBBBAAAEEWkiAQGsLbSyKigACCCCAAAIIIIAAAggggAACCCCAAALNKUCgtTm3C6VCAAEEEEAAAQQQQAABBBBAAAEEEEAAgRYSINDaQhuLoiKAAAIIIIAAAggggAACCCCAAAIIIIBAcwoQaG3O7UKpEEAAAQQQQAABBBBAAAEEEEAAAQQQQKCFBAi0ttDGoqgIIIAAAggggAACCCCAAAIIIIAAAggg0JwCBFqbc7tQKgQQQAABBBBAAAEEEEAAAQQQQAABBBBoIQECrS20sSgqAggggAACCCCAAAIIIIAAAggggAACCDSnAIHW5twulAoBBBBAAAEEEEAAAQQQQAABBBBAAAEEWkiAQGsLbSyKigACCCCAAAIIIIAAAggggAACCCCAAALNKUCgtTm3C6VCAAEEEEAAAQQQQAABBBBAAAEEEEAAgRYSINDaQhuLoiKAAAIIIIAAAggggAACCCCAAAIIIIBAcwoQaG3O7UKpEEAAAQQQQAABBBBAAAEEEEAAAQQQQKCFBAi0ttDGoqgIIIAAAggggAACCCCAAAIIIIAAAggg0JwCBFqbc7tQKgQQQAABBBBAAAEEEEAAAQQQQAABBBBoIQECrS20sSgqAggggAACCCCAAAIIIIAAAggggAACCDSnAIHW5twulAoBBBBAAAEEEEAAAQQQQAABBBBAAAEEWkiAQGsLbSyKigACCCCAAAIIIIAAAggggAACCCCAAALNKUCgtTm3C6VCAAEEEEAAAQQQQAABBBBAAAEEEEAAgRYSINDaQhuLoiKAAAIIIIAAAggggAACCCCAAAIIIIBAcwoQaG3O7UKpEEAAAQQQQAABBBBAAAEEEEAAAQQQQKCFBAi0ttDGoqgIIIAAAggggAACCCCAAAIIIIAAAggg0JwCBFqbc7tQKgQQQAABBBBAAAEEEEAAAQQQQAABBBBoIQECrS20sSgqAggggAACCCCAAAIIIIAAAggggAACCDSnAIHW5twulAoBBBBAAAEEEEAAAQQQQAABBBBAAAEEWkiAQGsLbSyKigACCCCAAAIIIIAAAggggAACCCCAAALNKUCgtTm3C6VCAAEEEEAAAQQQQAABBBBAAAEEEEAAgRYSINDaQhuLoiKAAAIIIIAAAggggAACCCCAAAIIIIBAcwoQaG3O7UKpEEAAAQQQQAABBBBAAAEEEEAAAQQQQKCFBAi0ttDGoqgIIIAAAggggAACCCCAAAIIIIAAAggg0JwCBFqbc7tQKgQQQAABBBBAAAEEEEAAAQQQQAABBBBoIQECrS20sSgqAggggAACCCCAAAIIIIAAAggggAACCDSnAIHW5twulAoBBBBAAAEEEEAAAQQQQAABBBBAAAEEWkiAQGsLbSyKigACCCCAAAIIIIAAAggggAACCCCAAALNKUCgtTm3C6VCAAEEEEAAAQQQQAABBBBAAAEEEEAAgRYSINDaQhuLoiKAAAIIIIAAAggggAACCCCAAAIIIIBAcwoQaG3O7UKpEEAAAQQQQAABBBBAAAEEEEAAAQQQQKCFBAi0ttDGoqgIIIAAAggggAACCCCAAAIIIIAAAggg0JwCBFqbc7tQKgQQQAABBBBAAAEEEEAAAQQQQAABBBBoIQECrS20sSgqAggggAACCCCAAAIIIIAAAggggAACCDSnAIHW5twulAoBBBBAAAEEEEAAAQQQQAABBBBAAAEEWkiAQGsLbSyKigACCCCAAAIIIIAAAggggAACCCCAAALNKUCgtTm3C6VCAAEEEEAAAQQQQAABBBBAAAEEEEAAgRYSINDaQhuLoiKAAAIIIIAAAggggAACCCCAAAIIIIBAcwoQaG3O7UKpEEAAAQQQQAABBBBAAAEEEEAAAQQQQKCFBAi0ttDGoqgIIIAAAggggAACCCCAAAIIIIAAAggg0JwCBFqbc7tQKgQQQAABBBBAAAEEEEAAAQQQQAABBBBoIQECrS20sSgqAggggAACCCCAAAIIIIAAAggggAACCDSnAIHW5twulAoBBBBAAAEEEEAAAQQQQAABBBBAAAEEWkiAQGsLbSyKigACCCCAAAIIIIAAAggggAACCCCAAALNKUCgtTm3C6VCAAEEEEAAAQQQQAABBBBAAAEEEEAAgRYSINDaQhuLoiKAAAIIIIAAAggggAACCCCAAAIIIIBAcwoQaG3O7UKpEEAAAQQQQAABBBBAAAEEEEAAAQQQQKCFBAi0ttDGoqgIIIAAAggggAACCCCAAAIIIIAAAggg0JwCBFqbc7tQKgQQQAABBBBAAAEEEEAAAQQQQAABBBBoIQECrS20sSgqAggggAACCCCAAAIIIIAAAggggAACCDSnAIHW5twulAoBBBBAAAEEEEAAAQQQQAABBBBAAAEEWkiAQGsLbSyKigACCCCAAAIIIIAAAggggAACCCCAAALNKUCgtTm3C6VCAAEEEEAAAQQQQAABBBBAAAEEEEAAgRYSINDaQhuLoiKAAAIIIIAAAggggAACCCCAAAIIIIBAcwoQaG3O7UKpEEAAAb3TklIAAEAASURBVAQQQAABBBBAAAEEEEAAAQQQQKCFBAi0ttDGoqgIIIAAAggggAACCCCAAAIIIIAAAggg0JwCBFqbc7tQKgQQQAABBBBAAAEEEEAAAQQQQAABBBBoIQECrS20sSgqAggggAACCCCAAAIIIIAAAggggAACCDSnAIHW5twulAoBBBBAAAEEEEAAAQQQQAABBBBAAAEEWkiAQGsLbSyKigACCCCAAAIIIIAAAggggAACCCCAAALNKUCgtTm3C6VCAAEEEEAAAQQQQAABBBBAAAEEEEAAgRYSINDaQhuLoiKAAAIIIIAAAggggAACCCCAAAIIIIBAcwoQaG3O7UKpEEAAAQQQQAABBBBAAAEEEEAAAQQQQKCFBAi0ttDGoqgIIIAAAggggAACCCCAAAIIIIAAAggg0JwCBFqbc7tQKgQQQAABBBBAAAEEEEAAAQQQQAABBBBoIQECrS20sSgqAggggAACCCCAAAIIIIAAAggggAACCDSnAIHW5twulAoBBBBAAAEEEEAAAQQQQAABBBBAAAEEWkiAQGsLbSyKigACCCCAAAIIIIAAAggggAACCCCAAALNKUCgtTm3C6VCAAEEEEAAAQQQGKZAkiSur6/P9dn8+kuGmQ+zITBmBXRg0CGAAAIIIIBA6QIEWksnJUMEEEAAAQQQQACB9S3Q1tbm+np713cxWD4CTSOgHxz8nx0W/PjQNJuFgiCAAAIIjDGBNvvFn+vsGNuorA4CCCCAAAIIIIBAf23W4EDtgiBBf7wK+Eqs9uNDn2tzHW0DQVf7QaLD/ugQQAABBBBAoByBznKyIRcEEEAAAQQQQAABBJpHIK5JEA83TwkpCQKjK6AfG3ra+39y0DGh+t78ADG624ClIYAAAgiMfQECrWN/G7OGCCCAAAIIIIDAuBJQEEm19xREoq7euNr0rGwdgc649qq1Y5wkdoR01JmJyQgggAACCCBQWIBAa2EqEiKAAAIIIIAAAgi0goACrQqwhiBrX3ePW/73e9zqux9rheJTRgRGTWDKATu6abtsOWrLY0EIIIAAAgiMdQECrWN9C7N+CCCAAAIIIIDAOBMY9Dh0X+JW3PWIW3nFXeNMgtVFoLZA5ws2co5Aa20kpiKAAAIIIDAEgUH3oUOYl6QIIIAAAggggAACCCCAAAIIIIAAAggggAACJkCgld0AAQQQQAABBBBAAAEEEEAAAQQQQAABBBAYoQCB1hECMjsCCCCAAAIIIIAAAggggAACCCCAAAIIIECglX0AAQQQQAABBBBAAAEEEEAAAQQQQAABBBAYoQCB1hECMjsCCCCAAAIIIIAAAggggAACCCCAAAIIIECglX0AAQQQQAABBBBAAAEEEEAAAQQQQAABBBAYoQCB1hECMjsCCCCAAAIIIIAAAggggAACCCCAAAIIIECglX0AAQQQQAABBBBAAAEEEEAAAQQQQAABBBAYoQCB1hECMjsCCCCAAAIIIIAAAggggAACCCCAAAIIIECglX0AAQQQQAABBBBAAIFGCCTFM23rs7R10rdpuv2p79PXyj7KK8xXK/mQpw2UpV6ZQ75Vyxvlk5ZT6xeND3nU7If0tRIpTdyFeazfbn9pGQc++3WL0oR1TdPFedUaVt4D+ajflrTVSs00BBBAAAEEEGhhAQKtLbzxKDoCCCCAAAIIIIBAEwoomNZj5bLgabv12xWhSxRpizp99H/909p6+6cpfbUu5JAoKBs6jRwI0vo8fJ4DEweGw3xhee29trB0ZEg7MMJ67QNlCYsY1E+DwonrUEZ99jcwu0+rYf2l6Ww4H1sMaXzC/pn7//U5rMtOZemzjPRXqRvIJy1znImlb9eCc+OqZROXMZ6lPb9orcvAcv06hgxtG/sgbDRzCMr6UVoXbzuQIEoXsqCPAAIIIIAAAq0t0Nnaxaf0CCCAAAIIIIAAAgg0oYCCcValIWm3Af+//rG/7v6onWJsbR0WBrS/xAJ0SaeN6e1zfbXuzjvbXXt7h2uzfPu6LSLba/NYlu2Wb6K8FP1TbcmBRSn42GvD+hy6Di1mgn3q9hE/P7q9q9NqWSaur92HJX0MMZqlf1YFim2ZCvJqlfpsOW020GeZt1k1zQ5b2V5lbuPbbR2VPLHx1hvolOO6TxrZ3mZhWl/Fs8/m77D5+5O2dVuRzUGpRWY52qpanv2Ts/9qNSxt+wRbBxXMuj4VsqfXp08UBFbVEp+Zn7zun/7kfpqK4fO3BbZPmuDapxmS4fWtWeOSVWsy8yt7zaqy9Q3k7cvZqW1jK9Fn88lioAtpZeJ6zKSvP5ruHUMi+ggggAACCCAwJgRq3cqNiRVkJRBAAAEEEEAAAQQQGFUBi6wlChpaYG3STpu7GYe+2D60uVXX/9Mtu/z2/oCejZm8z3Zuyv7b+UDr2gVPumW/u8kHCKuVdcrLd3JT99zGB/mW/uE2t/q2h3zEb8qrdnaTd3mBBT0t4NmhwKfFCO2/Ngv4tdmHzKPqCv6u7HbPnn+F61u60rVNn+RmHrWf69hgui9Xp1XfTBS5zHV9K1a7xRde5XqeW+bTTdh8jpv51v0slYKtiQWALQhsQU2r0+l6Vq51yTOL3Jp/PudW3m5lXLPW0kWBRw1aOaYdtpfr2npDm9cKrFEKEptbYnFIBZN9gNR63U8sckt+fb3rXbZKybKdpe+YPc3NeOPern3DaTZzm1v7wNNu+S+v9a7KZ92SB2a1EVqiFqfO9+yfCfM3cxNfuq2buMVs1zFlkp/WZ+vSs2SFW33rI27NDfe7XgW4La0Cs8Zr//QXs21yl5t+5P5uwiYzfTC6f1J/RFY2bVYQBVp7V6xxiy+6xvU+tUiz0iGAAAIIIIDAGBMYfBc1xlaQ1UEAAQQQQAABBBBAYFQFBiJ7bX29Fvyb5SbttZ1f/NqnLEhpEbh2q23ZZ1HErnkz3fQ9t/XB0L6dt3J9i1a6FVfcmQYYM2W2PDs3m+Om7T7fIottbsWN/+wP+FkgtXPLDd30fba15G3+yXQFAdv1z0CnWqf9IVCF9izyuHS5a/u5IsEWjLXarJMtGDxpi7k+EKgIogKD+a5nyUq3+JJr/DIVIeywAO30vV+YJuu1FfO1Om2xquGqrs/y735imXv+p391q259yLWtsRqxtv5+qiWessOmbspu2/iAo4KQnf45+/5yKeKq0ioP94AFUP9wi3OVAq2W36Rt57lZr9nFu2j9urec61bfsMCtfeiZ/vKqTJZXf6lUsoHhgRFd8zdxs968r5u661ZWCEVmLVzs16HfQclmvXJn1/30vm7xL290y6+6y/WttWq3A11/DdcO7zj5BXNtrOaz8LNWVoHukND6ayxo2/77G9e1thBPjNIxiAACCCCAAAKtKUCgtTW3G6VGAAEEEEAAAQQQaGIBHz+zx8j1ML491O5Lqn8Vgks6FExUsM8eNVcgThHKSZ1u1mF7upU3LXTJ8tV+ev4fxf7aLMiqx+37c7Q8LBrZ/cCzbtl1C5RhGlGcvOPmrmvWZGtioNetWvCU61u8zOaxWpU2ox6FT9ZazUw95m6f2/SYuxWsb3W31UB92CUWEM13fZrHpqtL/ErYfCq3dd3PL3NrFjzt+qzpA3WdMya6rk03cF1zprq2TWa4ue8+yD31rctczw0PWhMJlsBm08unfBBS62+B51X3Peb6lluNVf8svnJRXlqQVfJ9crFrX9PtW0pIV9xP6f9n8t5bWZmsRq2vBmvx1tlTXefWG/tAq2/a1bLR4nwUWvT9xVblWTdhhy3d7Hce6CZvtaFPo3Q9FtDtfexZq8m62mr6TnMTt9rIB2C7Nprl5vz7y1z77ClumdWY7VN0WHnbX59tF61PYs0hyHylBZb7Vq22PE1d62hpE+trXJ9tXxXBl8n6dAgggAACCCAwdgQItI6dbcmaIIAAAggggAACCDSDgEXRKgXRFDZUk6GDO6vfao/PT9xslpv91pe5xT+63GpMrgt2dljMUc2xDsQdrWcB0xAttKEVf73Nrfjb7ZlsN/rI4RZo3doCe2vdkl9e41brEf7QKS8FCUNn0dfEFtC7bLV7/sd/c31PLfYBWQUDVea0Ndd4njCv9Vff87h79rt/svZM1USAdYqRdna52Ue81E0/ZFfXOW2y2/CdB7nH7/2xc6u6/cu21BatArN9FglN7HH8JRdd59bc+Yhfq/5wrc+pP60iovGyQwIrXOfMKW7S7gO1gnvMzArbPqHDzdj/hW7ltfe49lX97cr64LBWRp2tutqv7dh+ntvgva9xnRvNcL1WltUW7F1y0fVu1d0PW+GEbmm1jI1nuJmH2brst4PrnDLRzT58Lyt7t1v2m5t8e7R9Kl9/Uu8l88VWizd5fJHrMURV1PXLVxob7vMRcz8L/yCAAAIIIIDAGBMItxtjbLVYHQQQQAABBBBAAAEEmlBA0cvwFxWv1yKwvdbo5/S9t3WTdt3ST2lT0ND+/EuialWPUMxUEdz4L8rbR33jaXHQUun8I+62LDUZoHQ2vd1e2qTorsrlg5z5eeL8fR7R8rXA7rVuqbU52/348za1w02wdlQnbrFh/1xaf62baqHan6Xub9fUlpFouVFZfVAyLFtBSwU/Nb8VVV9kJrx4a9dhL69S7dJV9z7uVj/6tE1P3KQdNnMTZk71eVuy/k7zhW5CmzUXsJebuPFMP2b5zfe7Z755qbV7+6CV3RaiMmhu6/c8scQt/sFf3bKr7/WjnDW3MP3AXVyXNQsRgqwhW/X9Yqw8smsL+Wgd7M+vT5yYYQQQQAABBBAYUwIEWsfU5mRlEEAAAQQQQAABBFpOoLfdrfnHfVaTdInrmDrFbXDsK1ynBSb1bHulQF7Z65dYADDxAUGrvTkQjNQT/KqJ6b8sWIywQwHOop3Np2yS5Svc2qeWWlMJ7a7Xgp/tm832OSiua6N819djia1rs6BuWJ5aMtDyFGQOnZL7iqA2Le0mdLkpe2zjOrr6m2BY8kurjXrzIxbEbXMdkzvdpJdaG7KW3p7Yt8CxzaX8rPUDLWfyXhbQ3n4Li31aQPSJxW7pf1/nep+2mrxx/pbc13y1ccnaNb6t2Wcu+Ktb8t9XudVX3mnt1E5Ii1JpwDfTYBN8llq2DagcPliskX5CpTkZhwACCCCAAAKtKjBwi9OqxafcCCCAAAIIIIAAAgi0roAen++1/1Y9+JxbfOntFujrcRPmzXEzDt09bXNUgUEfJGzQaqrd1/bODr8INVGgwKQ6BXlDLDBtOrV/Uu1/QxDVmkNot2Comi/1NVetnVVFYH2McSBjazzA59VnEV6Lj/aXQf2BIHMISvansjINtPGqmVSjtGsbaz/VCtzzzFK35v4n3MrbHrKgqJow6LAmBbZ0bVOttqtfgv1j+Wrd2qxt2ok7beHap3T5QOuyawZenDWQTo/3hy6xclgc3LckkFjTCst+dYNb/It/uCX/8w+35r4nQ7LKfS1rYMpA87H+kwLGYRl+/SrPzVgEEEAAAQQQaEGBWg8hteDqUGQEEEAAAQQQQAABBFpHoM2CkYr+9dpbrZb/4RY3aY8t3NRdtnHT7S33qx942toZvdc/Vt9ftbQB67WuKVirZWo1Qa29UkVG9fImvcjLtylqi+1dvNzaUu1/GVaRUqhN0sm7b+Mmb2uBUHXWbmnvQnusXwFWW+UQuO2wF4N1W9uuesFUx4a27LhT0wVL7AVZvVZIm09B0oH4rE+lJhYmb6Jaskn/Y/2r17ruex91q60W7ZStJ7nJW2zkJs7fxK264+G0ZrACp+2zJrmuLedaIFsB1D636s4H4qX6sqkmq7Xk4GvRhvZVlUjDvjkH9VUm+89amc3Mr4y75ti6KGBrf5rHt85gyfqWrPDt5vpAq32O885mwicEEEAAAQQQaEUBAq2tuNUoMwIIIIAAAggggMCYEVCYrkPVHPt63NJf3uAmz5vrOuZMc7OO2Mu/xKpvxWqLyFkii9YlenmURRwtdldON/BtwGKKrmPaRLfRu15lAdVeZ6+QsmYENLa/e/bcv9jLoh4NHzP99umT3YT5mzrnX4Zlocdpk1zH5nPdrFe9yLXNnOzTLr9xoeu2l2wpyBp3bbaMrkkT3dwj9nW9K9f4SXqcX11iL7J6/sKrXPfCJ3zAU3FLzd4/1bmp+8y38W1u7YqVbtVdj/mAZ5vFZFdev9BN2noj1z59kuvc3sp19yNm2z+X0rdP6HQTZk3x8zqr/Nr79DItrj/zgfKFJhu0TN/ZeD32rwCxpvkgrZ8QSjOQznrtk7vcBscfaI42TZNtXl/2nl73/C+udatuWqgKt35avD7rcmAIAQQQQAABBFpVgEBrq245yo0AAggggAACCCDQ8gIKNLbbn2KLirWuuftRt/g3N7iZ/3aA69psIzfz8Je6RRdcZdHAXovZKWpn8TlLb/HW/ujdCCOuqpXps1V+XW2uc95s+2h9jdRCLCBo9VytemqV9kgt2eTtNnOTTn2DPZJveaiz8rVZUwR9etGVtW26+Kp73eKfX+1rdfYnWPdvnwKgtuIdm86wGqK2JF+btj/a2b1irQVtJ6oA/fNaUvvf1yjt3HZjN8GCqWp6oPuxRa5n4ZPeTzVEV1pQd+bBu1qQd4qbue/2VlP4VpcoWO07eyFVp9XVnWjrowDomtWuTS+/Usbq+hfdP5z71wdfB9INxG3758vN02YN0E6Qo1WfFaGtlpuoAG13j2/KQDViQ03W0M8tio8IIIAAAggg0KICBFpbdMNRbAQQQAABBBBAAIGxI5DG6uxx+eWX3+mmWoBw0gs3c9MO2N63O7rm5n+mj853KJBpgTvr+QBtreBgPSHFV/uDjL2uzwKbS6z5gl5ri1TjFTdVXFEvpup57FkbqtCp4BPtnx77WqEZ7J92ey6+12pvrr77Mbfsynvc6usWWJ4rKwcxLQqZ9LS55X+/x3U/aTVerQsWfWt6XM8Ti3y2vpwDE9RO68Q9t/Y1U63FBbf6zkdd79IVPlCrgHXfs8vcmgefclNevJVz82a5iVa7ds09j1nAcyBKagHP3lWrrcbuDHv52GSXTJ5kTSQs9+usmLJWwy/Pl2bdP371lL+VQ22rqjhqimAg1zRh7+put+h3N7m+pat8zVeVSeVUIwNrFj7l25n17e6GFU3nZAABBBBAAAEEWl2AQGurb0HKjwACCCCAAAIIIDAmBELALlm+1j33s6vchv/fIa5z1lQ3520HuKcftPZNrdNLpXoHarcqWFdGjcgksdqy9ix8j7Vxuuzyu1zvMxbwtLx9bVeLLiro2K4FVQkMrrz1Ibfk59dawLHXzTh6fzfjxVtbILjNrXn4Obfyb3e79rXV23ZVtom1wbr8b3e5NXc94qOc7Za8r8sG1e9QlNIKEJZtwx2zprlpu2zpa4pamNatuOEB12bNAejRfvn0rex2K+550k180RaWuN1NtmD1mnsfE5/Pqs8CoT0WjJ24xYYusW9DEzaf41Y9aoFkLSPUNg3L83MN/KNpGrR/FHT1LwurkC5Zay83s/VZa0FixXbVHqsCsv5NX5pfwVmbb13zAxpJhwACCCCAAAJjQYBA61jYiqwDAggggAACCCCAQMsKKJDZq+qpCtrZn4KPa+9/wq249HY3+6iXuon2iPy01+7u2uzFUeo62tS3+pH9H/244f6jgGGb5adWX/2/egGVBRR9OdSzYR9UVLi1yvISqwnb8/CzVkvUArW/vsFNswBne2enm7b3tm7F1Xe77rsfr168PlvAwDqHdlTloaCkao76TtHNgWEFLjs3ne0mbLGxD3j29vS4Gf+yuwUzrVVZpdNaWNq2DaZZua3mr32YssM8t8zavO15fpkPfLYtW2M1S5/zLx3raO9wk/bcxq264T5rQmDdcpRTvpN3KJJQ/OLyieyz0qgGqwqk9mb1WjG/TgN+/kVbNuzHVZifUQgggAACCCDQugIEWlt321FyBBBAAAEEEEAAgWYWGIjEKaCmYGWtwJx/ql0JBiJ57RbtXPr7m93k3bZxk3fczM141c72sqiBdkZDRqGfRv/WYfgAX3/kcd3ICkPKot1XXdVEqx9qBfVNEtgn1brUX3+VVk2v1PUXwtfutODh6nsedUutTdaZL9/Rdc2e5jY4fF/35Od/7Zw9rh/WbV0uFoJUDd2BEVqur1Fq/UxtT+GFzjCn7TffXtxlbazaojsmTHAzX7aD84/iK51l0h/cXLe4ro1mua4dN3c9FvTtX53Erbzhfjf9lTta7dgpbvpLtnWr997erb76PmtXVmHRgW2lVdMM/avoJm63uZt17MusHVlbUb3Y6pJr3epbHrQEFTrNp07l0bBWUoFWy0sv1Ap52tC6gvoP/IMAAggggAACrSwQ37a08npQdgQQQAABBBBAAAEEmkqgY6DKoj2Zby9Fstc2+WqOA0WMqjP6mJw+DwT0lEIvUepbY22m/s+1rmfJctdpNTInW1ujqqEZapaGJkcHcsz1rBalfxOTRqu+auVOi+yLqo76smikBsKfAoT6qPF+Bv9x4B+NiDprV3XJ729xa+3RfK3vhO03c1P2nt8faY6ShUEfXA0f1LeCarGexxcmnmjTJnW6KXu+wAKr1tTByjVu5R3/tKYDFrjlN9mf+tffP/C30K2873ELclr5Jna6qbtaLduujpS429pKXX7NvTbdXsA1fbKbfYTVHH7JNj7IHDZNWLz6qkU755j97cVf9hKu+RuaWa9b+8BAcw4hUhwX1bNYjVqtkGWYX081J6Cu9jbsT8O/CCCAAAIIINA6AtRobZ1tRUkRQAABBBBAAAEEWkHAgmzhZUeqXdlmtST9W+oVbQtxyYEoXmLBUAX70qCmpmvawPTV9zzslv7xVjfniH19O6oar/CdOtU+rdTp0XSlaLc3ZtkD9TYUlj84tc/CEvfZo/dWvdS5mfbIvS9sLq2tR98Se+FUrwWMlaMFX/26aUmqOTtQbtVQ7XngKbfEXug158h9XNtE56b/6+6uZ8FTvs1SX2Yt1Aca1cJq/6ydtvhujVN2VdZLiSfturVrnzHN0iT2+P+T7tlv/MH1rbWZK3Rd8zZwG33wUNe14Qw3dY8XuCW/uMZ1WwDYBzk77aVjv7rRddq06XvOdxO3nOvmvOcQt8qCryvs5V09z1kzA7aubV2dbuIum7sZr3mxmzRvtt+Ovc8udYt+fb3rW7bCF141VLW91Xau72x7tm8w3XWssc8Krqt6rqq1qr3ZHvMzxxD5rrquFdaHUQgggAACCCDQ/AIEWpt/G1FCBBBAAAEEEEAAgRYSUCBPj9KrQqk6BRPb7d+BiqH+MXJrGtQHGxWsVKdAneJwinEqJpfGZC36uPT/bnWT99jWTXrBRj4+2TkQaPUfLG346DOyf0Lbrcrbmlzt75SuQmdhXosF2r+20M7pE9zG732VS+yx+HzXu3y1e/Zbl7qeZ/rbOdWyfaDVF9SCyfZZfwo6KlC78rJb3fT9t3dd82a5ydbG7JpX7eK6L/hb/7op/qhgqpVJLZiqaL32rcQ/Yl8tyKrkndae6u4vsAX0J1plL8HqXbJy0Pqr7CpL92PPudULnnQTNprh2mdNcp3WdmyPvaSqb+AbULJouVt0/l8tYa+btu981zVtkptwyG5u+sE7u2T5Kmtzttd1TJng2vRnQWvVju1+cpFbfP6Vbu3ND2ox/UFbM9b2DW3otlv6uce/0iW27WTri2vzy6xv1Sr37Pcud92PP+fn5x8EEEAAAQQQGFsCBFrH1vZkbRBAAAEEEEAAAQTWs4Da+VRNxjaLePpH/RVxtYBkn4KqiiqqNqj12ixw127tfeoR/8SirHqC349XIHLgLt0/1W9Bv0UXXuU2fN9rfJuiPcpPKZVXtc4ijW2K3CoQWqdTsFU1UfssSjphnponGDxDjwKaE7r8BB8ItqzbLVqq4GOPam3auvlAqaXwZbb0S/73ejfn31/hOidPthqhu7jl1kZq30PP+CCrX4ZYBqp0+nhzjSCrFqyA6ZQdNrE2Uq3ZgNVr3crrF1Y18GWxNKtufdjXWE062yyY+kK36up7LKorPyu/rWfvk0vds9//s1t5y8NumgVYJ248y7VNtaCs1eztnGHrolqqa3stoLvM57Xs0pvd2kef98FybUff3moIHPutZx/MsmuT2RZ8tRWy/z2n/jGz7qVWo9aaMqBDAAEEEEAAgbEpwFV+bG5X1goBBBBAAAEEEEBgfQkoimjP1qtm6Wp7vP35n1/jS7J2wRMWmbPYm/1p2so7HnJ9VntUwdjVdzzi1JarD8L2xzPXld6CdWvsJVPP/uCvrsvaClXXbY/i1wq0LrvsLrfytsdsId1Ws3PRurzyQ6vWumW/vdWtmDnFT6kUZNWEvjXdrnfpqv40Vs5ue3z+mZ9f5T+r5mivCu8jitZTfNc+rvrHA+55W6GOmZN97ddksrUjMBBwbLPIqpoXWHnXYz6Y2ffUEp+X/0dx0ApB124LeC6+/A5riqHTHr9f6XoWL1s3T35IZbB8Vt+40D0zeYIPJOtlYu0TbF5bZ3Xidvo2pLZer7jDrbS0E7fd2HVssYGbMH2qc10W0F200vUuWuG6H3jcarMuNQgVzrpoXRXUTaz5gkXWNu2KWTZfja7X2t3tfn55f4oq61ljdiYhgAACCCCAQJML2D2O//24yYtJ8RBAAAEEEEAAAQQQGJ6AgoRPnXeZBdPuGl4GZc1lwb9MNxCsS8eF6fH4MC4kiqeFcbX6Yf5q84XpIY9q6cL0kL5WupAmzFMrbUgT9zV/rXni/Kuly6fJf9by4uWE6QP5tXWoMQDrBmq/arBil5uvYppqI+PlV0vT4PGz33mQm/Pa3Ru8FLJHAAEEEEBg/AhQo3X8bGvWFAEEEEAAAQQQQGB9ClQLCoYyVZpeaVxIX6Rfb/560/PLKJK+SJp8vvHnevPXm6688mnyn/NpctOTegHWUN7cfGF0of5I5i20ABIhgAACCCCAwGgLVHgoZ7SLwPIQQAABBBBAAAEEEEAAAQQQQAABBBBAAIHWFiDQ2trbj9IjgAACCCCAAAIIIIAAAggggAACCCCAQBMIEGhtgo1AERBAAAEEEEAAAQQQQAABBBBAAAEEEECgtQUItLb29qP0CCCAAAIIIIAAAggggAACCCCAAAIIINAEAgRam2AjUAQEEEAAAQQQQAABBBBAAAEEEEAAAQQQaG0BAq2tvf0oPQIIIIAAAggggAACCCCAAAIIIIAAAgg0gQCB1ibYCBQBAQQQQAABBBBAAAEEEEAAAQQQQAABBFpbgEBra28/So8AAggggAACCCCAAAIIIIAAAggggAACTSBAoLUJNgJFQAABBBBAAAEEEChfIEmS8jMlRwRaWUCHBIdFK29Byo4AAggg0OQCBFqbfANRPAQQQAABBBBAAIHhCfT19UUztkXDDCIwfgX8kaBga68M4mNk/Jqw5ggggAACCJQl0FlWRuSDAAIIIIAAAggggEAzCKgma1tbm2tvb89W3iPW2gybhzKsTwE7NvortFp9mzYNcVCsz83BshFAAAEExp4Agdaxt01ZIwQQQAABBBBAYFwLqCZrR0eH67W+Aq5tFnCduvOWrnPKhHHtwsqPbwE7Gvr/a7fgaqJAa5+bvOXG4xuFtUcAAQQQQKBkgTb7xZ9WekpGJTsEEEAAAQQQQACB9ScQHoa2G12noKsPtlpsyWKudAiMW4H+b31t1lhA4tr1AwS1WcftvsCKI4AAAgg0ToBAa+NsyRkBBBBAAAEEEECgCQR6enp8MwJqSoAOgfEskNivEL7BADsUNKzKrcRbx/MewbojgAACCJQtQKC1bFHyQwABBBBAAAEEEEAAAQSaUCDzKKN98JW8qendhFuKIiGAAAIItKoAbbS26paj3AgggAACCCCAAAIIIIDAEAQyMdXMhyFkQlIEEEAAAQQQqCrA81NVaZiAAAIIIIAAAggggAACCCCAAAIIIIAAAggUEyDQWsyJVAgggAACCCCAAAIIIIAAAggggAACCCCAQFUBAq1VaZiAAAIIIIAAAggggAACCCCAAAIIIIAAAggUEyDQWsyJVAgggAACCCCAAAIIIIAAAggggAACCCCAQFUBAq1VaZiAAAIIIIAAAggggAACCCCAAAIIIIAAAggUEyDQWsyJVAgggAACCCCAAAIIIIAAAggggAACCCCAQFUBAq1VaZiAAAIIIIAAAggggAACCCCAAAIIIIAAAggUEyDQWsyJVAgggAACCCCAAAIIIIAAAggggAACCCCAQFUBAq1VaZiAAAIIIIAAAggggAACCCCAAAIIIIAAAggUEyDQWsyJVAgggAACCCCAAAIIIIAAAggggAACCCCAQFUBAq1VaZiAAAIIIIAAAggggAACCCCAAAIIIIAAAggUEyDQWsyJVAgggAACCCCAAAIIIIAAAggggAACCCCAQFUBAq1VaZiAAAIIIIAAAggggAACCCCAAAIIIIAAAggUEyDQWsyJVAgggAACCCCAAAIIIIAAAggggAACCCCAQFUBAq1VaZiAAAIIIDCWBZIkcb29vWN5FVk3BMacAMfsmNukrNAYFdA1tq+vz4X+GF1NVgsBBBBAAIFBAgRaB5EwYrwKxF/edFOov0qdxsdplUafdTNJhwACrSXQ3t5/GdTxGx/DGtZxHc4F8XBrrSGlRWD9CYTjJ1+CcDzF4zWuSBeO2aLpi+RJGgQQaIxAW1ubz1jngvgaq889PT2NWSi5IoAAAgggsJ4F2uxCVzmatJ4LxuIRWJ8CuhnUodHR0ZEGVfXlLhwuujlcsWKFW758uVu9erVbs2aNv2Hs7u5Og67KI76pXJ/rw7IRGK8COob1RU/Hb2dnp/+bMGGCmzhxops8ebKbNm2amzp1qk8Tjm9ZheNdx7Dy0DT9aXz44jheTVlvBIoK6PjR8VLtmKkULF22bJlbtWqVW7lypVu7dm36p7xCgFbD8fFatDykQwCBoQlUO4bj66qGdX3t6upKr61Tpkzx11aNC2nDdVSfwzGs+fKdjnNdd+kQQAABBBBoVQECra265Sh3qQLhC5tu/sIXv2effdY9/fTT7rHHHnN33nmnu+eee9w///lP9/jjj7ulS5f6dJW+9IUbyVILSGYIIDBsAR3X6tSP/xQ0DQHYuXPnuk033dTNnz/fbbfddm7XXXd1G2+8sdtwww3dzJkz00BRyGvYhWFGBMaxgK6Pixcvds8995x79NFH3YIFC9xtt93mHnroIf9Z4xVcVRAmBGLCNTX0xzEfq47AqAvouKt13QvTwrU1/BipvoKlM2bMcPPmzXNbbbWV22GHHdyLXvQit8UWW7iNNtrIzZ4926cJ84SVq7fMkI4+AggggAACzSpAoLVZtwzlGlWB8Iu9aqZeddVV7oorrnA33HCDu+uuu3ygVdPpEEBg/AioFo6+GL74xS92u+++uzvkkEN88FXj6RBAoLhAuH4qoHrZZZe5q6++2v9wqSCrngKhQwCB8SOggKx+1FTAVdfXgw46yB1wwAFu+vTp4weBNUUAAQQQGPMCBFrH/CZmBesJqFbqM8884/74xz+68847z91+++1Ojy6Gmq36pV2PF+tPj0JNmjTJ/+lXet0Y6rFjPYKsAEz4C49CxY8+5X+xr1cupiOAwNAFVBMmBHbCsPpq7kNBnfCnx5LV/Idqp+t4VxMg+lNzIPrT9NDpeFbNmz322MOddNJJbp999nGzZs2qWcsnzEsfgfEqoONOx5J+vLzgggvcpZde6muzxsFVXTt1LdW1VcNq1kOf9adrbrje6tqq66mOxVBTLrgqcKNxdAgg0BiB+JoalqBx+tO9sv50XKs2upr90LVV11XVXlcFBv2F5rZ0Tgj56bjVffTWW2/t3vOe97jXvva1bssttwyL4BqbSjCAAAIIINBqAgRaW22LUd5SBXRTeMkll7jvfOc7/stg3DC/bvb22msvX4tt++23d5tvvrn/FX7OnDn+xlA3iPoiyRe8UjcJmSEw6gI67hctWuT/Hn74YffII4/42ux33HGHu+666/z4UCj9sKIvg6eccorbe++9feAnTKOPwHgVUKBFgdDw44aGVXP1hz/8oQ+yKvgSuvCjhX64UDMd2267rW+mQ48SK+iiYGt4HDnMQx8BBFpPQMFXBVh1fVWzW2qK67777nO6tl577bX+WhsHXXXP/YEPfMC97nWv85UYuL9uvW1OiRFAAAEE+gUItLInjCsBfQlUp75u9r7whS/4QKt+ddcNndppVPDkHe94h39cWG0z6oufvjTyxW9c7Sqs7DgSCOcFrbKOc31W8FU1clTb/e9//7s799xz3b333psGXdXm3HHHHedruCpAFAJNnCfG0Y7DqqYCCpbouNF1VMeMarB+7nOf822xapquozvvvLM78sgj3etf/3pfY1XXVwVV1em4iQMuacYMIIBAywronBCuqaGv41xPjDz//PM+4KonyfSD5hNPPOHPITpXHHzwwe6zn/2s/xFGtdjDNZrra8vuChQcAQQQGHcCBFrH3SYfvyscvgiqf/nll7szzjjD3XjjjR5EjywefvjhPsC67777+remBqlwcxj6/MIeZOgjMDYEdE4IX+BCX4HTcMzrh5YlS5a4v/zlL+4b3/iGu/LKK30gVmt/2GGHuTPPPNPXfNdnzg9SoBuvAg8++KD/8UFN8eiJEXWvfOUr3THHHOPe/OY3+wCrxoVjTsdYuDZrvI41OgQQGBsCCpCGPx3r4Zoa+rpe6jyhe/Hvfe977uKLL/Y/cGrtd9llF/fRj37UHXXUUWkeXF/Hxn7BWiCAAALjQYBA63jYyqyjF1ANNQVPfvGLX7jTTz/dP8KkL3W77bab+9jHPuYOPPDA9EugZtCNoLr4F3l9DuM1TIcAAmNHIK41Ex/34Uuh1vTpp592v/nNb9xZZ53l35KuaXqT8ve//33f1Ehon3nsqLAmCNQXULBUjwKfdtppvhkezaGXyZ144on+B8wNNtjAX0vD8aFrsYIm4XoagjEaF2qH118qKRBAoJkFwjU1lDE+3jVOn8OPmqrlqnPIRz7yEXfzzTf7Nl/1lJlqxr/1rW/1FSDC+SPkRx8BBBBAAIFmFej4hHXNWjjKhUCZAmorSo8zfvCDH/SPNuolG0cffbT71re+5VSLVZ910xf+wrL1BTJ8IQw3iWEafQQQGDsCOtZDF471uK9hvaBHbUuqiZFHH33ULVy40J9PVMt1p512cttss00aPAp50UdgrAuoRtqxxx7rbrnlFr+qamtRzW2oqQA9CqxrqIIu6qsL11T/wf7RsRWutSFNmEYfAQRaU0DHdfwX1iKM0+dwLlAzIvpx5pBDDvFBVp1T9OIsXVsVYN1///3T80fIhz4CCCCAAALNKkCgtVm3DOUasYBqsOoGTl/u9AXul7/8pTv11FN9m3F6oY1eZvPJT37Sv+BKN33VOr70VZNhPAJjSyA+1iudE0LNG03Ty/Fe/epXOz0qrWCrarqqNs7LX/5y/2KfSvOPLS3WBoH+Jz5uuukm9/73v9/ddttt/pqrZnjOOecc/4NEfEzFw5Xs6k2vNA/jEEBg7Ajoujlr1iwfVJ04caK79dZbnd6hcMMNN7gtttjC7bjjjulL97jGjp3tzpoggAACY1GAQOtY3KqskxcItWcUHFEA5Pjjj3dPPvmkr5Gm9ln1iKNq2nCzxg6DAAJBQOeDaucEBYLCNPV1/jjQmhzRy38UZHr22WfdnXfe6V7xilc4vVld56CQPuRPH4GxJKC3iav9VV1jdXwceuih7kc/+pEPioyl9WRdEECg8QLheqkg6z777ONfUPunP/3JrVixwr8wS0+NbLfddmkbzypRmKfxpWMJCCCAAAIIFBcg0FrcipQtJqAvfQp0PPzww+7kk092t99+u+vq6vIv6vjQhz7kpkyZ0mJrRHERQKBZBPQDjs4xqh2/3377+Zo3qt362GOP+TcqK9iq843S0CEwFgXUpuKnP/3p/5+9+4CXoyobP36AEAglAUKXalBAeCmKqBRRqQpSVER9BQuKFRBRwVfFggWkWPCVIgFEQJCiYCwoLYAI/EFQFAJSgkgJBEJIIPT9z+/4Psvczd7k3tw2s/ubz2fb7MyZM9+zO2fmmTNncr/nrN+OO+6Yjj322LTqqqt6kqETC9x1UmAYBeguYIMNNsh9uNKilZM6nNCkxTwnOaMOJksGW4exYFyUAgoooECfBAy09onJieoqQJcBdEPMDbAYdtttt3TUUUf1uOlVXdfNfCugwPAKRB+uHNRFAJWTOZy02WyzzdI111yTA61c7sgNsrjRHkN5vuHNsUtTYGgE+E1zh3ACrU8//XTuW/Gcc85JEyZMyP8NAx9D426qCnSqQLt6kpOVr3nNa9K0adMSXZRw1QgneLbeeus0ZsyYTMF8UR93qo3rpYACCihQPwGb2tSvzMxxHwUIgFx33XXp5z//eW5dQ+Djy1/+cho3blwfU3AyBRRQ4CWBdsEjDvB4rLPOOumwww7L/cvRPzR9VN5777227HuJz3cdJMBNajhpSSuzsWPH5t8+QVb+I7Q0o/51UEABBfoq0K5+ZV722dl3p8sAtis0nPjTn/6Uk2WeRRZZpK+LcDoFFFBAAQWGTcBA67BRu6DhFqAD/R/84Af5DDiBEPpk3XTTTb3EaLgLwuUp0CECHNT1djDINoYW8+973/vy2tKq9dRTT03PPvtsnqe3+TqExtXoIgGCHacV/bDedNNNea3f/e53Jx4MEfiI1ml5pE8KKKDAfATa1a9sa9iWcPNJTmRyUodWrUcccUSuW+eTpF8roIACCigwYgIGWkeM3gUPtcCNN96YLr744rwY7gS+88475/fsuPFwUEABBQZLgEAr25WPfOQjuXXrc889l84666x8oyxa+Dko0AkC/ManTp2azjjjjLw6BD4OOuigfJPJ8vrZyqys4XsFFFhQgQjA7rTTTol9eYY///nP6fLLL3dffkFRnU8BBRRQYMgFDLQOObELGCmBk08+Oc2cOTN3mr/ffvul5ZZbLmfFQOtIlYjLVaBzBWh1w7aFuyLTuo9A0z//+c80adIkL23s3GLvujXjpMEll1ySby7Jyr///e/Pv/mug3CFFVBgyAUiyEr9uswyyyRuZMtJTU5k0qqeLkxsPT/kxeACFFBAAQUWQMBA6wKgOUv1Bf7973+nyZMn54y+4hWvSG9605uaneWzk8bDQQEFFBhMAQKtiy22WNpzzz3zQSFpn3322flgkO8cFKi7AF1h/PrXv843wFp++eXTHnvsUfdVMv8KKFBRAepNTu6wz87JS26MxY0nGa699tp0++2399qdT0VXyWwpoIACCnSJgNGmLinoblvNyy67LNFHK8O73vWutMoqq3QbgeurgALDKMBBYFwuvckmm6QtttgiL/2uu+7Krf9sdTOMheGihkxg1qxZ6dJLL83pv+51r8uBjyFbmAkroEBXC0Sfz7wycCKTVvTUtXRhcsMNNxho7epfiCuvgAIKVFfAQGt1y8acLaAAlxRdd9116Zlnnsk7YNttt13blAh82HdiWxpHKqDAAAW23377nMIjjzyS/vGPf+RtkdubAaI6+4gI0KosWmRff/316amnnsq/58033zzfEXxEMuVCFVCg6wRGjRqVNt5447TSSivldb/yyivztim2T10H4goroIACClRWwEBrZYvGjC2oAHckve222/LOF90GvPzlL2+bVFyK1PZLRyqggAIDEKC1HzcK4oQPd2fnNVq8DiBZZ1Vg2AXKgVauFmEg4LHtttvaDc+wl4YLVKC7BV75ylemtdZaKyNcccUVucGEgdbu/k249goooEAVBQy0VrFUzFO/BMoHgcxIoPWee+7JaXDme/HFF+9Xek6sgAIKDFSAm+/FSZ5bb701zZkzZ6BJOr8CwypAC2yu/Ih+zfkN81tm4BLejTbaaFjz48IUUECB8ePHpzXXXDNDcMXIAw884AkffxYKKKCAApUTMNBauSIxQ/0VINDKwWCc0Y4dL9LZcMMNDbT2F9TpFVBgwALcKGjChAk5HYJTXG7toECdBGiBXb5x5EMPPZQefvjhvArrrbdeWnrppeu0OuZVAQU6QIDW9NwUi4F9/5tvvrkD1spVUEABBRToNAEDrZ1Wol24PtHaJlb9vvvuS9wZefTo0ellL3tZjPZVAQUUGDaBpZZaKq288sp5eY8++qiB1mGTd0FDJcBJzLjJJJfvMnCC076Hh0rcdBVQoJ3Auuuum0ez/bn77rvbTeI4BRRQQAEFRlTAQOuI8rvwwRLgjqRxV9LoNoD+EQl02C/iYCmbjgIK9FWAVjdrrLFG7suSQFRsl/o6v9MpUDUBuuV54okncrbo/5wh7gqeP/ikgAIKDLEAwdXY/vD+rrvuGuIlmrwCCiiggAL9FxjV/1mcQ4HqCbCzxcBBX1zaSN+s48aNy+MJdNDyNYKxeaRPgyoQxuVEn3/++fTggw+mKVOmpGnTpqUxY8akddZZJ62++uppmWWW6VEmzE/5RBnFazm98nsuGWMoX9pa/r7d+/LvpC/zl6eP9MhneXx/flfl+SK91lemKa87n8O2dV17S4/x5e40ynksp926bD8PrgDdBxBw5X8Q26XBXYKpKTB8Ak8++WSzr+ForT18S+/8JZW357x/7rnn0r///e8cSKLbhlVWWSXRZcMKK6yQr9gpb8upI+KkMtv+qN9QY3x52pGSjPVj+eQ3hr7mL+bv67pEHRgusTxe+5vWvOYlrb7mqZyO7xdcYKWVVmrOzBUjlHXr/lFzAt8ooIACCigwAgK2aB0BdBc5+AKx00zKtLph4GYdEWjt6458ntGnBRLAOA5s7r333vT9738/bbHFFmmt4u6wO+64Y9pnn33SnnvumTbddNPETvLuu++ezj777MTlqAzMTznGY36ZYKe6vzvW5I9HX4fy7yrm+exnP5sPdDnYPeigg5qBB76P9Y9peSWNWGak1266mKc8Le85gCNY125dy1bl5XCH+/e9733NfH7nO99p5oHlxDJimb4OjQA37aDsGAy0Do2xqQ6PANsXWrM+/fTTeYErrrii25FBpo/tMkFV6s//+q//yv0877DDDrn+3H777XMr+Te+8Y3pggsuaLYuJhsRTKScJk6cmLtNoo5685vfnGbPnt2jHmL6WBbvywPje/uuPN383kcakV7UVbzecsst6fWvf32unwjY33jjjTl/80uzfJKTacvLaDcvdWa4MC3LjoH3kTfGld/3Nk3M01s+Ip3yciKt+K782fcLJkC5ctI+9u/5fXuzyQWzdC4FFFBAgaETMNA6dLamPIwC7HgRkGIHOPqQo4/WJZZYYhhz0b2LitYpHGBcc8016cMf/nA65JBD0g033NDj4CaEmH7SpElpv/32S5/5zGcSgVkGDoooSx7zG1oPjFo/t5u/fNDFMsgvD/LD/LEeMW/8ruIzr+zQ8xvjUd65j7TK08b7aO0S6fE5lhvTxGvkkc8xX3zX+kp6PMpDrAOtzyKfBEdIN9Jj2ayvw9AK0H1JlM+sWbOGdmGmrsAQCrDNYJvCK9sSTmQ6DK4Aro899lg67LDDcv15xx13zLUA/K+//vr00Y9+NJ100km51WvrRJxomzlzZt7+s91hHobY/rdO3/q5r9MxH2lHndOaTuvnqK+YnqB91E+0+O/LECccW5dHHnqrz5iW78r5jM+8xrrGa2s+Ynx5mZRTbNeZns8xxPTxufzaWx7L0/i+bwI4x834+L1zXwYHBRRQQAEFqiRg1wFVKg3zMmABdng5u83ATjndBzgMvQDuHESce+656ROf+EQ+yGOp+G+yySZptdVWS9y8gIMTblzAXWJvu+22XFZnnXVW+tvf/pZ+9rOfpY033rh54NOa6zhIiQOceGU8B1E8GNgB58GBUeSLaTmY45XpYl6mK8/H+EgvvisfRJUPtiJ/jOPBvEwb0/CZNBhiHL9J3jNd+Ts+l/PBPHwf88XnyDefY2CamJf0yX95PqZjHI94T9rt0soT+DRoApzoCefo23LQEjchBYZRgG1MnCygNRmP+G0PYzY6flHf/va3c4tUttdLLrlkeutb35qvDCGwTUvQ3/72t+lf//pXmjFjRjr00EPTy1/+8rTHHnvkOiDqgahbyljUCYyP+izKLoKc5Tqp3fzltHjPssgj85EWn8vz8Z5l8l3UPUwTyy2nF/MxfeQvvo80mIa8lpcXafMaacR88dqaHuOZlkf5uxjH8sKRdHkf0/E+1jnSL7/yXcxDOgyRFnUzD4fBEcCVFq10rcGJZIKtDgoooIACClRJwFq/SqVhXgZFIC5tZKd20UUXHZQ0TWT+ArSy+drXvtYMsnJp6Re+8IX07ne/O3cVQAtjDj543H777enoo49OP//5z3OLnH/84x/pG9/4RjrhhBMS87Ub4gCGPl9p6UO/XLQYpM86+q7jYCgObpg/Do54H607ec9vYrnllssHWgQObrrppty6hgNW+o8lgNBuYFqCZU899VTza9LlkvAI6LPjz93mGchL+eCP/vb++te/pgceeCB/T5433HDDHr9RDh6Yh9YZtGwiDcaxnjxaB6bjgDsOllkvDjgYF/8D5uHkA24xcEl72SfG+zq4Avwu+N0ylMtjcJdiagoMvQDbofgNGzQaGm/qiNNPPz0H8zCm1erXv/715raf7TzdB9BlDcFW6oczzzwzvf3tb8/1CPUB9SL1FOXFwDx0RUDQloH6jXqCgXqBlq8M1M90NcBA3cOJUOriuOlQ/qJ4Il0e1H3UZ3TVRHoTJkzI3RUwHetBGiyb+mzZZZfNLaAJRJI/uguKOovp+Rz1IttL6sYYyvUU31Hf/v3vf8+tYakTqbPXXHPNHnVtzNvbK3ljn4O8UBeuv/76zXXHlPERUA0rrl7Bi+/JB/Nh1m5gnZm/bECf9F5h1U5rwcfFfhe/pfLvacFTdE4FFFBAAQUGUaDYYXJQoCMEih3gRrGz1ShaTnKE0dhss80aRcCpI9at6itRHGw1dtppp+yO/Stf+cpG0Uq1URxs9Mh6fOa1OGhvHHzwwc15igOqRtEvXY/p40NxANn4zW9+k5dRBEobxYFO81Ec7DSKfl8bv/vd7xpFMLTHMvlNsKxTTjmlwXQsY8stt2wULYMaBx54YKMIjDbT4bviILTxyU9+Mn/Pb6k8HHfccXn+4iCqmWfeMx+PYqe/8YMf/KA5C8sljXvuuafxxS9+sVEctDaXFfkvbpbUKFolNYqD5gZ5jaE4UG4UAepm2ptvvnmjCC7H1/mVtItLRxvFwWaerggUN4pgauOAAw7In3vLJ3n9/e9/3yMtPwyNQBGsaBQH5Pn38sEPfnBoFmKqCgyDQBE8a3z+85/Pv2W2ZX/605+GYandtYjiSo9GEWDNxkXwsFF0w9OjPkODcjj88MMbr371q3O99653vatRtOrLUH/4wx8aRUAv1zPUw/GIOorXoq/0Jur3vve9XG8x/rWvfW3j/vvvz3VyERhtFC1oG0cddVRz2njzz3/+s1FctdJcTtRl1K9F69vGr3/960YRgG1ssMEGuR4qAry5vqG+KgK+jaLf9rnyRxqRR+rg1rq3CHI2rrzyysbWW2+d8xvLjPm22mqrxnnnnddgunkN+LIdJk/lNPj8jne8ozF58uTGdddd11h11VVzfni96qqrchkUXR01ikB0Hl9csp73KWJ/pnWZlNEvfvGLRhGkzdMXgePGnXfe2TqZnwcgwD4hvyV+4+wfsZ/loIACCiigQJUEbNFa1NIOnSFQ7DjnFaE1BQOfaRXiMPQC/+///b90xRVX5AXhXgQx8408GFEcjDTH09KDgVcuhSwCrfnyL1qJMLRrtUk/bscff3z64Q9/mFvm5AlLT7TioVXMiRzFAABAAElEQVTqBz7wgfTOd74zceklrUfKQ7HRzS1RWM7UqVNzv7CXX355M28xLa1WTjzxxFQcXOXWtrR0Ia88Io2YltfyONabzzHwnv5qaZGETaxjfM8rrYGKg9mE31e/+tVUHEjmr+l77HOf+1wqAqK5dRI3CznttNNScYCdv2dZtFrlhim0XqJlBzfp4i73LKd1WeV8kkA5nzlBn4ZEgO1P/OZjuzQkCzJRBYZBoAiA5aUUQbFmS+1hWGzXLKLcEjW247H9AIFx2BcnA/PNDtmOc4VGbPdjmqhzA65cH5S/i3qB76lPqIN++tOf5haprVcDMd/VV1+d+48tApKRdPOVerg42Zm7Bdp7771z6+dYByYi3wykU85DjMtfFk/8xmJaxrHd5GaOp556arrvvvtish6v5IsWuB//+MfzvgceZTfSLILQ6Stf+UreV2it/2idy83FaKH73ve+N19RUs47aXFjT7pAovUtV7dQpxdB7mY/oeUMsbzLLrsst2hlfHFyN6299trlSXw/CALRorjdb2oQkjcJBRRQQAEFBiRgFGpAfM5cRYEIaBCMKu+wVzGvnZAnDlroZzUuK91xxx3Tnnvu2Vy18gFPHPAxjgd3HC5ae/Y4aI+DMNLlwUFW0fImH3CRKHdiftWrXpUPXLh8kv5e6UqASwrpeoCDnGOOOSYfADF/efnMX7TayY+XvexlqWj1nIrWtzlY+Ze//CX3Fcul9/SFR7cHXMZJ0JbfUdFqNgeGCX5y2SEDl/6/5S1vyQe7LIdpYpgyZUq+2RevDFwO+aY3vSn3Q8tvlHwT0CXfl156aT6I5GCQyyAZNtpoo3xDFLpUIE9Fa9l82eg222yTP9P1wq233prX7z3veU/67//+75zPbbfdNp9guOiii1LRyiOnxR2eefCfwNeDvswypE/89gy0DimxiQ+jAL9ngmkMbA+tWwcfv2gFmusS6knqKfotp36K7nTYfjNQJ3FSslwGlM8aa6yR9t9//3TttdfmQCDbeoKOe+21Vz6xyTTUee2GosVl7j+d76iXuWQ+LpsnP3z/kY98JBUtWvPsBGLpf52TkeSP7oAIVFInU/9GPV5eFpfOv+9978uX+3MzTE6iMhDcpH6kDmUdyScD9eSPf/zj9M1vfjOnR2CN+v9NRT1atDbNN9HkJCTdFnG5/3e/+908LwHjCBSTFt8TnI6bbtJ9Av3BU3/jSJCW+viuu+5KRxxxRNvL0DF///vfnwO15I26mpO25Kc8sDy6QbjwwgvzaNaZLiBYN75r3R8pz+v7/glEGbPPx8NBAQUUUECBSgkUFb+DAh0jUBwQNIqDBPbSG294wxsaRYCqY9atqitSHCw1ioONbI47l5cWO705u8XBVo9L4mMdYny8xvjW1xtuuCFfoki6xUFlozggaxSBy5w+Zc1y6AZgv/32ay6fS7W5jJC0Y5g4cWKen3R4FAek+XLGor/VmKRR3KQrdxsQl25yeSCX/8VQHPTldSkOmprLKg48G0VrmDwJ+WEgT7znEv5YXtHPXaNoMZO7Swgbujk4//zzG0XQM0/HcovgbiPyRP6LA7n8O450dt1110ZxENcoWvDkdWA861v0WdfDmUsod9555+byv/zlLzfzyHqUbfIXPg26AMZFC6zcZQTlxCW+DgrUVYBLdblknN8y28+iFX5dV6WS+Y564Y1vfGNzu02dV/S/2qD+Kvr7zPlmu0L90voaK0U6P/rRj/Kl/5RVEVDMXSi12+Yfe+yxjSJY1Vwe3dBQB11yySWN4iqRRnESMCdLnUFXO6THowge5nqe+inqReot5itOBDanY1q61Cl3VUP+ipOaDepEvmcdi8BwXk7U6VFHMV3RB3szvX333Tdfgh/TsU50m/DpT3+6Wb8XgeWc9zAiLbrhibzTTUARkM3dJDAN3xd9rzaKm4w1ipObzemYfqWVVspdB5A5pqVLBLoPiLSKK21yvlknvo/pTj311OY0b37zm3MeIz95Ip8GLEC5FSf1szPlxn6hgwIKKKCAAlUS+M/p8WKvwUGBThCIVgOsC+9tPTD0pTpt2rTcIpQlcQk7N8Uot7RpVwbFRrDZijXKrDgQ6dEqgcsoDzvssGarF24CQouVog/enH6UL62AaO1JKxcGWrZ86UtfSnQD0G6gNQutaLfbbrtmKx+mW2uttdK3vvWt3FqWz1weSAudYoeej81l5g+lJ9aFR6wHLXKK/uTS2WefnaeiGwBapRZB0ry8aLFTHPCl3XffPbf+was4WMuXbdJKlYE0V1999dyilzQYin5qcwsfWvnScojWMrT2oYVvOEd+8gwtT0wTZYM30zoMjQDW0QKNJVC+DgrUVYBtRfyG+W3H9qau61O1fMe2ogh+pqLPyZw9ttFFn6fpYx/7WG4FusMOO+RudOgqh/qNMmndzrQrl3bjWtef1qKHHHJIrqu4SoMWn9GilS5wipOOeRbqj+LEZr4Mnxa0fCZ96n7mK4LC87xiIuq/1uUXQdOcTqwTn2nNSktZhte85jW5ruSmlbHOvHJlyteKm3BSvzLQHc+RRx7Z/K3SnQH1JgPdFRV9oqfiJGhuQcuyyD/1KFfi/OQnP2ne0CvP8H9PTMeDfZvddtstL5+vuOKFm2OyTuSFPPOZ8QyY0r0ArW9jmvyFT4MiEPsyUT6DkqiJKKCAAgooMEgCBloHCdJkqiEQO7vkhh1bHg5DK0BANIKRHFiU7xhMefDobYjv4zV2nJmeSxTjIIvxXBrPQRUHM3FQxnTMy0Fe0doqLbXUUozK8xUtVPP71icOejiQLS+LaUiHywOLFijNWe4pLr2Py2UZyQ5961DeyY/39LnKHYcZWF5xo7Aey2M6lsfvs2h5nadhWoLW3FG5PLzuda/LlywyPQfe9FV78cUX50kIFhc38cj5Ik2+x4b37QbS4ME0rD/vHYZOoGyMuYMCnSAQ25FOWJeqrENsi7kcv7jJYb6cngAgAwFu6pM//vGPuWsA+iIvrlLIl8KzXZnftqUv5VW01ExF69kcjIzp2X6RNpfn0zcpA8FX+kKlro16LOob5qPrm6LlaY/6Ls9YeorpS6Oab2ObyTSsb0xbtErN3QFF3niNobiqIxUtgZvLpCsA6lLyXty0LQc/mZYgLfsRBFyZP5YVadFdD4HR+Bzpx7SUB8HuOPHJPgpdDvB9zEMXRNFdEN027LLLLs3vIj1fB0eA8oshfifx2VcFFFBAAQVGWsA+Wke6BFz+oAu4wzXopPNMkIMP+qJkIOAaAcZ5zVQuI97HoxwYLy4JbB7ckT43o4iDGdImqFj+TF92BDXpr5WBAyD6YGsdCKZyUMnA8mLZpMX7ddZZpzkLeYggMgdt5R37mCjmIy3e01ctAdpo/UULW/qlK+c15uWVQG5x6WJzFH3hMYQFwevPfOYz+WCXvuYIbDMQ0KZla+uNP/iO9ZjXEGnPaxq/G1yB+ZXJ4C7N1BQYfAG2uQ5DIxDBUuoYWpOecsop6cEHH0znnntuuqK48RJBPeoj6hf6GuUqDlpqchMnrmiIYUG37VxhUXRj06w7or6ifirXZ9wQirqW73mwXYv3/D5Y/qtf/eq07LLL5talka94Zdp2eWwdRz3HVRsMfHfOOeekdjfh4jvsHnrooWbAmXmxo67HKra9BFpphRt5jjzFMjhhS8tZ9mm4QVbrQN45ucn6F90a5X0d+kKn31vqacqGvmfJCwPBYa5KcRgagdbfzNAsxVQVUEABBRRYMAEDrQvm5lwVFYiDlcgeO8YOQytAoI8WIgzctImDsvKBTJRJeae4HLAsT1vOKZfgxQ22mJ4DPIYoU8ZF2oznwI5HDFxCGEPMw2duoBD5je8jD7yOGzcuRudgbnwo5znG8Ura5e8IzNLtQAzkg8sX+zqw3q0DwV9a7BJojWGPPfbIB9gYkAfyzsD78vrG9OXX+X1fntb3Cy6g84LbOWd1Bfqyjalu7quZs3L9SA4J+hH45KaMRf+ouZUkwb0zzjgjBxzZ7nNSke5uTjzxxNzCtLftDXVD1HG9rT1d6vCI+iTSIngaJ/eYNy7dL6cTaUc9yM2xaPVZroPL0/f2Pupzlh03ymJaxtNStK8DJzl5tJ7ExDPy2Fta7Gewf9Au0Mo87GNwFQllQb7oJogbWjIf9T43y8SDIC91dDj2tjzHL7hA2FIOmDsooIACCihQJQEDrVUqDfMyYIHY8YqEWj/HeF8HT4BLCWk5Sosbdni5bI8DMy4txL+1DFp3iDnAjHG8Mj2vHBDRkpWDJQ72OPCKuy9H7uPglO8JUJYPjqIbAaaN9GM+PseyynmM9GK6/rySB/LMgwPWGAjccoDX1yFa1JI/PMkTAee//e1vPZKg+wBaONGKl6HsHIY9ZvDDsAtQdlEu/D4cFFBAgXYCUUexvWBbEdsNxhP4o47lDvdc3k9w9X//93/zdJx84yoIuhyIobd6LOq8mK78GgFIlluen/fRhQHTFzdjzPUS01E/tU7PNDNnzuy1j3S+722INFlmuf7mM10SlE+C9pYG4wl6EujkpCoB6xhoaTovA6ZjPyOuRon5mId1DSMCrbQopnsCugmibmaZ9GUbXf9su+22ubwiDV8VUEABBRRQoLsEDLR2V3l3/NqyQ1we5rdTXZ7W9wsmQDCUfsh++ctf5gSKOw/nlpfcvAp/HuUDtygTXmn9efXVV+dXDmS4fHGrrbbKBzS0lKVVDAFUvqP1TjnQyjgG0uYAiFYlPGKYV3CTeTio6+8Qy2w3XxyEcQkhXROQPutICyBuaBLft5u3PC4OMJmfeVjm5Zdfns4666zyZLnl8Pe///10+OGH9wjs9pjIDwoooIACtRAgwMdVIQxs/wkSlusN6i3qQG6OVdzZPregpKseLo8n0Br1U2ugMOq6qHvbYZTrm/L3LH+llVZq1mdczk8glUBmOW8xD8u4//77e7RIje/m9xp5YDpajrI/QLc6jKf7nD333DO/n1865Iv8MUQ3QbyfOnVqNhs7diwf5xrIO327t15VwvJ5hB99xbN/Q+tirLlRGJ+5ASbTUG5ve9vbmnmYa0GOUEABBRRQQIGOF/BOQR1fxN21guzkxsCOcTnAF+N9HXwB7tjLTZsYZsyYkb761a/m1pblljmx1AhycoDCXX65vI6+zLhJBUHXKLN111232RKUaemjrXwAFAc/pMtyCETGDTs4SKPftPguvyk9lX8npdHzfMtBbOt85XHxHfmin7c4mKMFEP3FETheeeWV53rQYve+++7LD/LPQWKkRYYIHn/961/PrWe46Qf9vTINyz7ttNOaN8aKecKF1xj4DqOYJsb7qoACCigw8gJsry+99NJEvcdVDfRzyufYZpe351xFEvUkJzrjCorY9jMuhtj28znmie9aX5m2vBy+p1Uo9RnLZKA7APqPpd5qN9Ai9PTTT292+9NumtZxESAuj2e5cWNK6q7rrrsuUf+V61CCqASeaelKvqIeZT+BdcVhyy23bLZq5aob+rQlvXYD3R7xfWugmmnLLrTw3XXXXZuB1Msuuyz3l0seGdZaa620++6795gnf+GTAgoooIACCnSNgIHWrilqV1SBoROgxcunPvWp5qV9XE730Y9+NF177bVtDzY4SDvzzDPzzZzo14wHN6ko3/GXmz3ttddeOdMcAHJTEA6CGPjMwRkHP7QAuvDCC9NPf/rT5kEpQdtoGdra6oZ52h1wkl67A768wOKJeUirfPkilw5GC6Q4eGO6rbfeOm266aZ5VoKnRx99dLOFT+SdL2lhs99+++UDSg4qv/jFL+ZuF5iGgQM++t/j8lDyzd2mSYv0GbjRFjfEwo+8x3wcYJYvmSTQy3ekYcA10/mkgAIKVEpgrSJAx4k16hWu4KClZGvQj89cITFnzpycdwKg1J1s2+NB3Rd1HNPR6pXv5jdE/VGejvkIVr72ta/No6nvjj/++ERwsXWg9SknT7mqZV4DdRNXfjCwTAKk7YZ99tmn2e86dT/9n1J/RV1N3lhPTsLutNNOzXqUE7bU1XzPSeD1118/J09LXOrPG2+8sbk40iJNujv60Y9+lP785z83vyu/IS0eDCzzLW95S75ahc/U8ZwM5aQqAyeOIzCdR/ikgAIKKKCAAl0n8NJp765bdVdYAQUGS4CDGg4uuITxyCOPzJf70YfoTTfdlHbeeefcupQ7I3OAwgEk3QxcUdxJOfpUpX+zr33ta7klT+SJaT/0oQ/lICrTcvD56U9/Ot188835sjwOZDgopSXrr371q2bAk5a1BC+Zvz9DHETNbx5aHMXAAR2XD9L6iANHDngJOtN6lVa99N3GQS4HieT/s5/9bJ6G1jpcgnnMMcfkbgE40COAS2tVWulw8Mk4Dlg5cGWgL1ZujEKLni996Uu5Xz76aOWg8Yc//GH63Oc+17zJF4FW7owcA10PnFa0fqWPPwbWIS6tjGl8VUABBRQYOYFXvOIVuRse7mRPAPBnP/tZDu5RL3CVBl3tUNedfPLJuUUpddZuu+2WA37lE2lrFQFb+nUlyEodQQCR6WiJSd1Edzbtht7qTJb95S9/OZ84pcXqXXfdlT74wQ+mD3/4w/mSeeou6jO6M6DOirq0HLiN/PFKHiIQyXpSx9Eql7qTz9ThpEHwlHWnP1r6Kf/IRz6S9t5773wClm6FGEe/qF/5ylfylTTMQ0D4rW99a3P1WBbfk1+Cqf/4xz/yvgp55+Qmy2WfhPpx8uTJebnlfDcTKt4wnnqZ/R3yz4lgbtJFPv7617/m7+lWgKt0HBRQQAEFFFCgywWKHQcHBTpGoGjt0Sh2rGkO2Cha/XXMelV9RXAvDkAaRcvKRhE8bBTBwlwGlEM8ioOg5vsYx2sR9GsUgdc8f3GQ1WNV+Vzc1bex8cYb95iXtIpL8xutaW6wwQaNq666qkF+ymlNnDixURwc5TTe8IY3NIoWKD2WU/5QXPbYXFbRkqdRdIVQ/rpRHFA1iv5fm9PEuhTB08axxx7bXG5x+WKjCDrnfMY05Le41LFRBJYbTB/ji4O9RnEg2ygO2JrLKgK0jTe+8Y15miJw2vjud7/b/K5oVdQogq3N+YsAb17v5gTFm+IAtFEcbDeniWXx+rvf/a48qe+HSIDfWREYz2VQ9Nk3REsxWQWGXoBtThGcyr9ltn9FgGnoF9qFS7j11lsbr3/963tst9n+s19TtATtMX6LLbZoFP2hNus76mDqvuJKhwb1XHmbH++LQGVTlfoq6qGie4Dm+HZviqBto7h6okd9RprUq0UL2uayimBto+hnvVEETfM48ly0RM31O+lSL/NbKlqANueJvPFKncV6xLTFVR8N1rNc11Nfrr766o0iANxjfHHDsFwPxvw5keKpCA7n+rI4Gdpjmax7EXxujiOvO+ywQ6MI4uZxrAP7E+S5NU3SLoK2jaI7g+b85B/fouVsLNrXIRIoTjo0iu4Zsj37fZSFgwIKKKCAAlUS6F+Tr2IvwkEBBRRoFSgOgnJrDm5e8clPfjJNmjQpvec978l3CuYyQYZiw5dfaTXDpY3rrbdeOvjgg3MLHVq9xvetr8VBZ55m33337XFTDlqnMC2tS2gJQ2tPWvswPePIE0NxgJRf5/dEWrHseU3LZYjf+MY38uWIrAfLiiGWyWfWe//9989dHhQHvXmdSZ9WuLQyonUSLYxoZUqLo89//vO5Tznm5Tsuz6TFLAMtb9773vfm97HOBx54YPNO07Qm4tJFLt2MYfPNN8+taunvj+X01loppvdVAQUUUGBkBdhe0w0OLS650oMrJYrgae6DlJaTtMCkWx3qC67m4AoHtu1FMDDXebynBeoRRxyR60JamxYBxeZK9aWOo86M6XjlQQtZ6hxa2W600UbNrmmYlnqHqyiK4Geu07mqpfWKiah/qCPJD3UjV8GQf9Iu153lZZMmN5mifuOqDpZDS126G6A/eOaj/n/HO96R8xatYSPfvLJfcsghh+SWs0VQrtltAfUs/bliXJw8yPX6oYce2uzztolWvCnnL8ZzBQv7LjHQypYbdvHK0Nd9j5jfVwUUUEABBRToHAG7DuicsnRNFBgRAQ7w4sCIDHDQQpCPg8Xbbrst9y9KIJBL6Ak+cmDFAVPRSqXZtxzzxcEi78sHNQQy1youheTyeC4jLFq45rsaE2jlhlNcbsnlgvRbykFY68D83Mzj8MMPz/nk0j4Cj+0G1oO7N3/rW9/KX3OgG4HimJ6DxPe///15HemLli4BOAAm/6xTOe9YcDfioqVNvrEJlxly0w7SwGDChAlp2223zQ6kjyUP+sHj4DHy/KY3vSkfdDMN6bNO3BgEk6LFDaPz8jloJPjLwDQEn3fZZZdcBhyUxg1MMHNQQAEFFKiWAHUD9QIn2rgcnRss0cc29QaXwRMQ5GQfAcVyfcf2PoKt1BHF1RC52x3qS/oOjZNwdOETA32vctKQ+aiXYyCt8kC9SP1GkPftb397rs+KqyLSLbfcki/HJ5hLHR11HXXzQQcdlPsQJ63W+ob8UXdzUy3q0ClTpiT6TyUwGQFZlh/vqYfpv5wTjn/6059ytzn0S86NsKhHseBkJnakzYN1Kg/U+fTdzr4J3Rqxb0I+yTtd6Wy33Xb55C9d8cT+DOmQB17bDdTvBL1jYD3puzWmb3WM6XxVQAEFFFBAgc4XWKjYofhPM7POX1fXsAsE2FHngIGDEgJvHGQ4DK1Au01IHGjEkikXWo9w0MLBEAMHQnEgxefWeRhH2kwXByzxmUAkrXw40CQQSjp8F2nEAVssI8aT5mAN5eX1libTMLB83mNAsJPPtOKJ9Yr8laePNNuN47vexsd88RrT8ZnlhE0sM6bzdfAF2A7RYvmhhx7K/Qr/5je/GfyFmKICwyDAdusTn/hEDo4R7Dv//PObN/wbhsV31SJim802mvfUG1HfRTCxHUh5vnbfM45pBmPbH3miLqYuI+gY9Vlvyy6Pj7wyrpyfGF8exzSMpz5nPCc28Yjlts7DZx7kh/qOeSI9XkmHVrF8hyfpxDwEkOkHlsDvWkXwmD5nCXy3LoM8Fd025BatBMTZB/n+97+fW+oybXm/hWkdBleA8qf1MFcx0UqZG8eVTyIM7tJMTQEFFFBAgf4LzN38q/9pOIcCCnSxQBzAzIuAA57Wg7DWz+3mJ+3ydPG5XYvUcj5innhtl/ZAx5WX11ta5Wl4z8Eoj96G8vQxTbtxfNfb+JgvXlunG0qTWKavCiiggAILJlDeZvN+fvVGLKU8X4xrfe3LNK3ztPtMgJIHrVwXZOgtH/MaH3VXa/3fOk/5MwHPc845p9lFACfgOVFAvssnelkHpr3zzjvztHymtSutaRkInka6BGjJC61rCbIycIOxon/X/J7pIq95hE8KKKCAAgoo0HUCBlq7rshdYQUUUEABBRRQQAEFOluAgCd92V5xxRU5sEpr1W9/+9s5iBrB02itetddd+WWkbTWZaAbIVq7MpSDsrynRexpp52WvyOwWtzssNkFUB7pkwIKKKCAAgp0tYA3w+rq4nflFVBAAQUUUEABBRToPAGCotywiu4GnnzyyTRx4sR02GGH5ZaotExl4DJ0+oqlH9hrr702j6OP9I9//OO5lWseUXoisPrnP/850Z8rAzf+2mOPPZpBWVrG8ogAbmlW3yqggAIKKKBAlwjYorVLCtrVVEABBRRQQAEFFFCgWwQIpu6+++5p8uTJuV9hWquecMIJ+UZh3BiTG2rRhzb9rXLTMQa6FaA/Ylq0RncB4UV6BG0nTZqU7wXAeG62yc24yoHV1vlifl8VUEABBRRQoDsEDLR2Rzm7lgoooIACCiiggAIKdI0AAc9VV10136iKleZmV7Nnz0733XdffrRCrLLKKvmGVrRm5UabrQNdEUybNi1dcMEFzRtefehDH8r91Ub3AgRc433r/H5WQAEFFFBAge4QMNDaHeXsWiqggAIKKKCAAgoo0DUCBFoJfNIVwPHHH5/+8pe/5Nebb745t0ylhStBUfpi3XLLLdMnP/nJtPnmmze7AWgHxQ2zSG+FFVZIa665Ztpqq616BFa9EVY7NccpoIACCijQXQIGWrurvF1bBRRQQAEFFFBAAQU6XoAga1zGP378+LT99tun7bbbLj3zzDO5q4Dp06fnoCqtXpdbbrnsEX2s9tYqdYcddkg8SNvWqx3/E3IFFVBAAQUUWCABA60LxOZMCiiggAIKKKCAAgooUFWBCLLGK32s8p4WrLRGXWONNfJnxvEgcMoQ07dbr7iJVrvvHKeAAgoooIACCiBgoNXfgQIKKKCAAgoooIACCnSUQGvAtBxQpeUqrVYjuMqK8/2oUfM+NIp5mM9uAjrq5+LKKKCAAgooMGgCCw9aSiakgAIKKKCAAgoooIACClRQgEAqAdIIrvKZYCmvDLRWje/mlX2m761rgXnN53cKKKCAAgoo0B0C8z5t2x0GrqUCCiiggAIKKKCAAgp0sAAB0giq0qKVoGp5XF9aqDI980Y6HczlqimggAIKKKDAAgoYaF1AOGdTQAEFFFBAAQUUUECB+gkMpEXqQOatn5Q5VkABBRRQQIH+Cth1QH/FnF4BBRRQQAEFFFBAAQUUUEABBRRQQAEFFGgRMNDaAuJHBRRQQAEFFFBAAQUUUEABBRRQQAEFFFCgvwIGWvsr5vQKKKCAAgoooIACCiiggAIKKKCAAgoooECLgIHWFhA/KqCAAgoooIACCiiggAIKKKCAAgoooIAC/RUw0NpfMadXQAEFFFBAAQUUUEABBRRQQAEFFFBAAQVaBAy0toD4UQEFFFBAAQUUUEABBRRQQAEFFFBAAQUU6K+Agdb+ijm9AgoooIACCiiggAIKKKCAAgoooIACCijQImCgtQXEjwoooIACCiiggAIKKKCAAgoooIACCiigQH8FDLT2V8zpFVBAAQUUUEABBRRQQAEFFFBAAQUUUECBFgEDrS0gflRAAQUUUEABBRRQQAEFFFBAAQUUUEABBforYKC1v2JOr4ACCiiggAIKKKCAAgoooIACCiiggAIKtAgYaG0B8aMCCiiggAIKKKCAAgoooED1BF588cXqZcocKaCAAgooUBIw0FrC8G1nCrzwwgup0WjkR2euoWulgAJVE3CbU7USMT+DLUDdasBjsFVNTwEF5iew0EILzW8Sv1dAAQUUUGBEBQy0jii/Cx8OgUUWWcQg63BAuwwFFOhVgICUQaleefyihgIEOxZe2N3IGhadWVag1gKcyHRQQAEFFFCgygKjqpw586bAQASuueaaNHbs2IEk4bwKKKDAAgtwMDh79uw8P0EpW+EsMKUzVkjgqaeeSm9/+9vTE088UaFcmRUFFOgWAerWOXPmdMvqup4KKKCAAjUUMNBaw0Izy30T4LLGWbNm9W1ip1JAAQWGUMBA6xDimvSwChDkINhq/Tqs7C5MAQUUUEABBRRQoCYCBlprUlBms/8C48aNS5tttlnuNoAgh5ca9d/QORRQYMEFnn/++XTttdemZ599dsETcU4FKiZAdwGbbrppbqFtvVqxwjE7CnSBANudW265JU2fPr0L1tZVVEABBRSoo4CB1jqWmnnuk8CGG26Yfv/73+dp42DQS3f7ROdECigwCAKPPvpo2njjjdO0adMGITWTUKAaAmPGjElHHnlkDrZG3VqNnJkLBRToBgFOYu61117poosu6obVdR0VUEABBWooYKC1hoVmlvsmQKubUaP+8xOPg0EDrX2zcyoFFBi4ADfic5szcEdTqJYAv2nqVn7fDgoooMBICHgjvpFQd5kKKKCAAn0VMNDaVymnq7WAwY5aF5+ZV6D2Am6Dal+ErsD/CXDiMk5eiqKAAgoooIACCiiggAI9BRbu+dFPCiiggAIKKDDYAgamBlvU9BRQQAEFFFBAAQUUUECB6gkYaK1emZgjBRRQQAEFFFBAAQUUUEABBRRQQAEFFKiZgIHWmhWY2VVAAQUUUEABBRRQQAEFFFBAAQUUUECB6gkYaK1emZgjBRRQQAEFFFBAAQUUUEABBRRQQAEFFKiZgIHWmhWY2VVAAQUUUEABBRRQQAEFFFBAAQUUUECB6gkYaK1emZgjBRRQQAEFFFBAAQUUUEABBRRQQAEFFKiZgIHWmhWY2VVAAQUUUEABBRRQQAEFFFBAAQUUUECB6gkYaK1emZgjBRRQQAEFFFBAAQUUUEABBRRQQAEFFKiZgIHWmhWY2VVAAQUUUEABBRRQQAEFFFBAAQUUUECB6gkYaK1emZgjBRRQQAEFFFBAAQUUUEABBRRQQAEFFKiZgIHWmhWY2VVAAQUUUEABBRRQQAEFFFBAAQUUUECB6gkYaK1emZgjBRRQQAEFFFBAAQUUUEABBRRQQAEFFKiZgIHWmhWY2VVAAQUUUEABBRRQQAEFFFBAAQUUUECB6gkYaK1emZgjBRRQQAEFFFBAAQUUUEABBRRQQAEFFKiZgIHWmhWY2VVAAQUUUEABBRRQQAEFFFBAAQUUUECB6gkYaK1emZgjBRRQQAEFFFBAAQUUUEABBRRQQAEFFKiZgIHWmhWY2VVAAQUUqK9Ao9FIPBwUGCqBF154Id1zzz3psMMOS7fffnt6/vnn828ufnvxOlTLN10FFFBAAQUUUEABBbpZwEBrN5e+666AAgooMKwCL774ooHWYRXvjoURPOW3xcDrsccemw4//PC0ww47pOOOOy49/PDD+XcXv7+Ytjt0XEsFFFBAAQUUUEABBYZPwEDr8Fm7JAUUUECBLhdYaKGF0sILv1T1EiCjBeJ9992XjjnmmPSvf/0rf7bVYZf/UBZg9flt8bu56qqr0vnnn59T4Pf05S9/Ob33ve9NkydPTnPmzOkR6Gd6BwUUUEABBRRQQAEFFBg8gZeO9gYvTVNSQAEFFFBAgTYC5cBWtCqcNm1a+uxnP5s+97nPpU984hM56Mqs5WnbJOUoBZoCBFl5PProo+moo45KDz74YPO7p556Kl1++eVpl112SQcddFCaMmVKj9avzQl9o4ACCiiggAIKKKCAAgMWMNA6YEITUEABBRRQYP4CBE7LrVkJjD300EPp0EMPTRdeeGFO4A9/+EM6+OCD0/33399j2vmn7hTdLkDLaIbll18+LbXUUnNxEHA95ZRT0p577plOPPHENGvWrBycnWtCRyiggAIKKKCAAgoooMACCxhoXWA6Z1RAAQUUUKDvAq0tVGl1uP/++6ef/exn6bnnnssJceOiCy64IH3sYx/L3Qj0PXWn7HaBRRZZJI0fPz4HU08//fS05ZZbpkUXXbQHC62ob7vttnTggQemt7/97WnSpEnp2WefbbZw7TGxHxRQQAEFFFBAAQUUUKDfAgZa+03mDAoooIACCsxbgKBqa2CV1qy0YmV44IEH0v/8z/+kiy66qG1CtGzlMm9atjKQVrRYbDuDI7taIH4bBFIJru62227pzDPPzP2z0sI1fneBxHT02brffvvlLiumTp2af1+RTkwXr62/5RjvqwIKKKCAAgoooIACCvQUMNDa08NPCiiggAIKDFiAgFW74BTjCLIecMAB6ac//WmzJWvrAqNl60c/+tF077335q9pseigQDsBfhsETwnmx+vqq6+evvSlL6VLL7007b333mns2LFzzUr/wMcdd1x64xvfmE444YQ0ffr0PD+/U9KJ33C8zpWAIxRQQAEFFFBAAQUUUKCHwKgen/yggAIKKKCAAgMWKPfFWk7s4YcfzsGv3lqylqfl/R//+Mf0+c9/Pt/gaKWVVmr92s8KNAUIhtJylVceEXCdMGFC+s53vpO22WabdOSRR6Y77rijOU+8oeX0F77whfTrX/86HXbYYWmzzTbr0e1Ab7/nmN9XBRRQQAEFFFBAAQUU+I+AgVZ/CQoooIACCgyyAIGp1uAUfbLSkvW8887r89Jo2XruuefmVomrrrpqn+dzwu4VoL9fWk3TqnqFFVZISy+9dBOD/lh7G7hZ1sUXX5yuuuqq3AL2m9/8Zr6xVm/TO14BBRRQQAEFFFBAAQXmFjDQOreJYxRQQAEFFBiQQGtfl48++mjuL/PCCy9coHQfe+yxxMNBgf4IRLcT/ZmHgOvEiRPTWmutlVtT22VFf/ScVgEFFFBAAQUUUKDbBQy0dvsvwPVXQAEFFBh0gdbg1O23355uuOEGb2g16NImOBQCtKT+y1/+kgi6llvEDsWyTFMBBRRQQAEFFFBAgU4S8GZYnVSarosCCiigQCUF6Cdz1113nas7gUpm1kx1vQDdXqy77rppzJgxzT5fux5FAAUUUEABBRRQQAEF+iBgi9Y+IDmJAgoooIACAxFYeeWV06mnnpo+8YlPpF/84hf9atnKDY4Ieo0fP34gWXDeDhaIm2CxitwIa9asWflmWEsuuWSPm1px06upU6fOU4Kbru21117p0EMPTaNGjcrpzHMGv1RAAQUUUEABBRRQQIGmgIHWJoVvFFBAAQUUGBoB7gDPJdjc/X3OnDmJvloJiM1vIIC2/fbbp29961vJm2HNT6t7vy8HWvmtzZ49OwfzCbSOHj060RXA73//+/S9731vnkhveMMb0le/+tW01VZbJeZloHVrX36r80zYLxVQQAEFFFBAAQUU6BIBA61dUtCupgIKKKDAyAkQCCNgtcYaa6TTTjstffKTn0znnHPOPFu2Mv1uu+2WTjzxxLTccsul1n5fR25tXHLVBAiuEgzlN8KN2Pjt8Jt77rnnct/ABFjPO++8tgFTplt//fXTQQcdlN7znvfkACvjykPr5/J3vldAAQUUUEABBRRQQIGXBAy0vmThOwUUUEABBYZUgIDVuHHjcstWWh3++te/7jX4RUvWo446KncZQODMQYF5CUQgPl5nzJiRTjrppByop7uAdq1Sae36oQ99KH3sYx9LG2+8ca99CBtonZe83ymggAIKKKCAAgoo8JKAgdaXLHyngAIKKKDAkApEy8PVV1+92bL13HPP7dGyNVqynnDCCWmFFVbILROHNFMmXnuBCKLSmpUA/sUXX5wOP/zwdOutt7btY3WxxRZLb37zm9MhhxyStt5662YL2NpDuAIKKKCAAgoooIACCoywgIHWES4AF6+AAgoo0D0C5ZaBtGw94ogjcp+tF110UW5xyPe0ZD366KPTiiuumMcRnLVFa/f8RhZkTcutWAmenn/++WnmzJltk1pttdXSgQcemPbee+/8Gyv/JtvO4EgFFFBAAQUUUEABBRTos4DXIvaZygkVUEABBRQYmAAtDyNoSoCLPlsnTpyY7/K+6KKLpl133TWdfPLJaa211soLIshqIGxg5t00N78Vugx44okn5lptWkfTRcDVV1+dA60rrbRSDuTzm4wWsXPN5AgFFFBAAQUUUEABBRTol4AtWvvF5cQKKKCAAgoMXKAcPB0/fnxu2brJJpukd73rXYkWhzFES8X47KsCvQkQlF922WXTxz/+8XTVVVel6dOnNyfdcsst06GHHpq7C1hyySWb43lDkLX8e+zxpR8UUEABBRRQQAEFFFCgXwK2aO0XlxMroIACCiiw4ALRmrU1BVq2fu5zn0svf/nLW7/KnwmG0f+mgwK9CRAs5bHtttumffbZJ7ecXn/99dNxxx2X6Jpi5513Tq1BVn6PPCLQ6u+sN13HK6CAAgoooIACCijQNwFbtPbNyakUUEABBRQYMgECXfNqvTq/74csYyZcG4EIlvI7+tSnPpWWWGKJtMceeyRaSvcW4G9dOX9nrSJ+VkABBRRQQAEFFFCgfwIGWvvn5dQKKKCAAgoooEAlBaKv1bXXXjsddthhadSoUc3WqpXMsJlSQAEFFFBAAQUUUKDDBOw6oMMK1NVRQAEFFFBAge4ViD5XublatHLtXg3XXAEFFFBAAQUUUECB4RUw0Dq83i5NAQUUUEABBRQYdIHow7ev3QQMegZMUAEFFFBAAQUUUEABBZKBVn8ECiiggAIKKKBAjQWiFWtvLVj5/sUXX6zxGpp1BRRQQAEFFFBAAQXqIWCgtR7lZC4VUEABBRRQQIFeBXoLssYM8/s+pvNVAQUUUEABBRRQQAEFFlzAm2EtuJ1zKqCAAgoooIACIy4wvyDq/L4f8RUwAwoooIACCiiggAIKdIiALVo7pCBdDQUUUEABBRRQQAEFFFBAAQUUUEABBRQYOQEDrSNn75IVUEABBRRQQAEFFFBAAQUUUEABBRRQoEMEDLR2SEG6GgoooIACCiiggAIKKKCAAgoooIACCigwcgIGWkfO3iUroIACCiiggAIKKKCAAgoooIACCiigQIcIGGjtkIJ0NRRQQAEFFFBAAQUUUEABBRRQQAEFFFBg5AQMtI6cvUtWQAEFFFBAAQUUUEABBRRQQAEFFFBAgQ4RMNDaIQXpaiiggAIKKKCAAgoooIACCiiggAIKKKDAyAkYaB05e5esgAIKKKCAAgoooIACCiiggAIKKKCAAh0iYKC1QwrS1VBAAQUUUEABBRRQQAEFFFBAAQUUUECBkRMw0Dpy9i5ZAQUUUEABBRRQQAEFFFBAAQUUUEABBTpEwEBrhxSkq6GAAgoooIACCiiggAIKKKCAAgoooIACIydgoHXk7F2yAgoooIACCiiggAIKKKCAAgoooIACCnSIgIHWDilIV0MBBRRQQAEFFFBAAQUUUEABBRRQQAEFRk7AQOvI2btkBRRQQAEFFFBAAQUUUEABBRRQQAEFFOgQAQOtHVKQrsZ/BBZe2J+0vwUFFFBAAQUUUEABBRRQQAEFFFBAgeEXMCo1/OYucQgFFlpooSFM3aQVUECBvgu8+OKLqdFo5BkWWWSRvs/olAoooIACCiiggAIKKKCAArUUMNBay2Iz030RIMDxwgsv9GVSp1FAAQUGXSCCrIOesAkqMEwC1qHDBO1iFFCgXwJRv3Ilm40s+kXnxAoooIACwyBgoHUYkF3E8Aq4wzW83i5NAQXmL+B2af5GTlE9gXJL7PgNE+CIIEf1cmyOFFCgGwS4YsRBAQUUUECBqgoYaK1qyZivBRaIflrZCXNHbIEZnVEBBQYoQGvACEjFdmmASTq7AiMmEL9hA60jVgQuWAEF/k+g3No+TgKJo4ACCiigQFUEDLRWpSTMx6AJxA6XB4ODRmpCCiiwAALlEz2jRo1agBScRYFqCFCvxm/YurUaZWIuFOhGgdj+RKCVbVPs93ejh+usgAIKKFBNAQOt1SwXczUAgUUXXTTPzc5Y7IgNIDlnVUABBRZIwBatC8TmTBUSiKAGWYoWrZxAsH6tUCGZFQW6TIDtz/PPP5/Xmu5NYtvUZQyurgIKKKBAhQUMtFa4cMxa3wTKrcaYIwKtjDfQ2jdDp1JAgcEXeO6555pdB8R2afCXYooKDK1A1LHRopV6lUe5/9ahzYGpK6CAAv8RiBassX/Pdshtkb8OBRRQQIGqCRhorVqJmJ8BCyy22GI5DQ4O44w3O2ScAXdQQAEFhkuA7U9sdwy0Dpe6yxlMAYIaBDF4HT16dE6a37V16mAqm5YCCvRHgO3Ps88+m2ehNastWvuj57QKKKCAAsMhYKB1OJRdxpAKxA5WtLpZfPHF8/LKO2L23zSkRWDiCijQRuDpp59uBlqXWGKJNlM4SoFqC3CiIOrWOIlJS+0ItlY79+ZOAQU6UYB9+jlz5uRVo6V9tLbvxHV1nRRQQAEF6ilgoLWe5Wau2whwQEhwNQKtHAhyQMhgoLUNmKMUUGBIBQi0RpAqtktDukATV2CQBKI+jeSoQ+M3HEHWOMkZ0/iqgAIKDJcA9SuDgdbhEnc5CiiggAL9EfA2yP3RctpKC3AgyIHf0ksvnfPJwWDsiBlorXTRmTkFOlKAFjcRaI3tUkeuqCvVcQLUmdHvIe/5HS+55JJ5PfldP/PMMx23zq6QAgrUQ4ATQbNmzcqZ5QRQtLavR+7NpQIKKKBANwjYorUbSrnL1jECGvTf9NRTT3XZ2ru6CihQBQECUzNnzmwGWseNG1eFbJkHBRZIgGArdSuvXDkSl+0uUGLOpIACCgxAgEAr9SsDQdboP3oASTqrAgoooIACgypgoHVQOU1sJAXiMsYVV1wxZ4MWN0888cRIZsllK6BAFws8+uijzRvyLb/88l0s4arXXYAA61JLLdXsPuDhhx/O/Q8TdHVQQAEFhlOAhhTRopXt0pgxY4Zz8S5LAQUUUECB+QoYaJ0vkRPUTSACrXQbEGe867YO5lcBBeotwImfGTNm5NZ/rElsl+q9Vua+2wTKfbXSojUCGg899FDuWiC6F+g2F9dXAQVGToATPTGssMIKuduw+OyrAgoooIACVRAw0FqFUjAPgyqw9tpr5/RozcrBIAeKDgoooMBwCtBH9L333ptvyEfQdY011hjOxbssBQZNgN8vXWHQKju6wPjnP/+Z61br10FjNiEFFOijwB133NGcMvb5myN8o4ACCiigQAUEDLRWoBDMwuAKrL766rm/Ji4tuv/++5t9JA7uUkxNAQUU6F3gySefTNOmTcsT0OImAlS9z+E3ClRPgC4DeDAQaB07dmx+T6DVbgMyhU8KKDDMAnfeeWdeItumCRMmDPPSXZwCCiiggALzFzDQOn8jp6iZAEGNVVZZJef673//e75phweENStEs6tAzQRo8VceHnvssXTXXXflUeuuu26zb8vyNL5XoC4CtGqlXl155ZVzlm+77bbEyYQIwtZlPcynAgrUW4D9+RtvvDGvBF2XbLjhhvVeIXOvgAIKKNCRAgZaO7JYu3ulxo8fn9Zaa62McMsttyRuimU/ct39m3DtFRhugenTpzcDreuvv36zb8vhzofLU2CwBOifdb311svJUa9SvzoooIACwynATSbvueeevEgaVnAVm4MCCiiggAJVEzDQWrUSMT8DFmDHa4MNNsgtbaZMmZKmTp064DRNQAEFFJiXAC37aGlDy1Zer7vuunwzvtGjR6dNN93UFq3zwvO72ghsu+22Oa/0QXzZZZfZNU9tSs6MKlB/AepW9uvvvvvuvDJbb711GjVqVP1XzDVQQAEFFOg4AQOtHVekrtCiiy6aXve616XFFlss36zjD3/4gygKKKDAkAvEZdS0oI/tzoorruiljUMu7wKGS2DzzTdPSyyxRK5bb7jhhnwyYbiW7XIUUKC7BahjaUkf/Z9vs8023Q3i2iuggAIKVFbAQGtli8aMDUTgLW95S1p22WVzEuedd1568MEHB5Kc8yqggALzFOAAkH4suQv7zTffnK655po8PXdE3njjje3Lcp56flllAVppRx/E3NSN+pWBVts33XRTlbNu3hRQoMYCtGAtD3RZcsYZZ+SrRtZcc830mte8pvy17xVQQAEFFKiMgIHWyhSFGRlMgdVWWy1tv/32OUnujnzFFVc0DxQHczmmpYACChCEIsDKwPvzzz8/Pf744/nzO97xjrTUUkvl9z4pUEcBTiDwYKArjD322CP3Ofzwww+nX/7ylznoUV6vcmC2PN73CiigQH8EWu+vwImd66+/PidBkDX6jO5Pmk6rgAIKKKDAcAgYaB0OZZcxIgIf/OAHE61vZs2alU466aREB/qtZ8dHJGMuVAEFOkogugxgpf7xj3+kX/ziF3lbw035CLQ6KNApAgRc6aeVVtoMp59+err99tvziQZONsSj/J/olHV3PRRQYPgFYpsyY8aMdNRRR+WTmfTL+uEPfziNHTt2+DPkEhVQQAEFFOiDgIHWPiA5ST0FNtlkk7TjjjvmzF955ZXp97//fWo9O17PNTPXCihQJQGCShFYOvnkk9Mdd9yR6Ct67733TiuvvHKVsmpeFBiQAEGPl73sZem9731vTueJJ55I3/ve99Ls2bNzkJX/AfVs/B8GtDBnVkABBQoBtjvsw19++eXZ47WvfW0+4eN2xp+HAgoooEBVBQy0VrVkzNeABZZZZpl04IEHpuWXXz6fAf/Od76TbrzxRrsQGLCsCSigQFmAg0Bay0+aNCmdeeaZ+auNNtoofeADH8h3RI4WOeV5fK9AXQUIpPLb3nTTTfMq0IKbvtCjj2L+C9Gna13X0XwroEA1BAim/vvf/06HH354vvke+/T/8z//k294W40cmgsFFFBAAQXmFjDQOreJYzpEgJ2z17/+9c2WN1OmTEnf/va3Ey1wOBAk+OGggAIKDFSAbcldd92Vvva1r+W+Wbms8YADDkgTJkzISbutGaiw81dFgHqVx9JLL50+//nP55tOUqd+4xvfSHfffXfOJt9Hn65Vybf5UECBegrQ/de3vvWtdNttt+Vtzzvf+c60zTbb2Gq+nsVprhVQQIGuEVikODD8WtesrSvalQLrr79+uuWWW9LUqVPTnXfemYOsW2yxRb6pBweErQNBkXbjW6fzswIKdK9ABE/ZVtD/88c//vF09dVX58um6R/6M5/5TG5xw/fx6F4t17zTBPhNcyKBIOs111yTTzBw40lObo4fPz6vLv8RWrb6+++00nd9FBg6gXLd+vTTT6fvfve76YQTTkjPPfdcetWrXpVOPfXU5jZm6HJhygoooIACCgxMwEDrwPycu+IC7LAtu+yyae21104XX3xxvuzor3/9aw6A0McTLc9aB+bhwNBBAQUUmJcA24pHHnkkfelLX8qXThNUet3rXpeOPvrotMoqq8xrVr9ToPYC9ENM9wFXXXVVvrSXFq333ntv2mmnndLiiy/evGrEQGvti9oVUGBIBahLY987Xp999tl8s72vfOUrac6cOblO/f73v59e85rXDGleTFwBBRRQQIHBEDDQOhiKplFZAQ7w2Gnj5h2rrbZamjx5cm55c+2116bnn38+ccOsxRZbrEdg1SBrZYvTjCkw4gJsT+h6hOHBBx9Mn/70p9O5556btyeveMUr0sSJE3OrG7cjI15UZmCIBfgvjBkzJr361a9Of/vb39J9992XaNVKNxobbLBB7h+dLESglenjc37jkwIKKPB/Amwnom9nbq5HUPWb3/xmouuAsWPHpmOOOSbtscceuVsS61d/NgoooIACVRcw0Fr1EjJ/AxKInTb6i1t33XXz5UZXXnllvkPy9ddfn1vh0CKHG2c5KKCAAn0RIGDEyZqDDz44/eY3v8mB13XWWSf9+Mc/zpdOc7MgBwU6VYB6lf9ABDtWXnnltPHGG+c7gj/22GPp1ltvTX/5y18SN4SjZTfTlaeP+TrVx/VSQIH+CbBNiAc3vuLmtXQZ8OSTT6Zx48alL3zhC+lTn/pU7pqnvC3p31KcWgEFFFBAgeETMNA6fNYuaRgF2BFjiB03XukmYMMNN8wtWwmyPv744+nvf/97vuyRg0EetG51UEABBdoJsF15+OGH0znnnJMOPPDAdPPNN+dtzHrrrZdOO+20tOWWW+bWNgSivBlQO0HHdYpA1K2sD+9XXXXVtNlmm6Xbb789t2wlWHLppZfmkxCvfOUrc8tXpovp8xufFFBAgUKAupWWq3/+85/Txz72sXTRRRflq0SWX375dMQRR6T99tsvB1mpV61b/ckooIACCtRBYKGicvPW63UoKfPYL4FocdOuZRkd6l9yySW5X8Wbbropp7vEEkukPffcM+277765j8XRo0f3a3lOrIAC1RaIqo5gD+959PWAje0JlzISODruuOPyyRm6HmHYfffdE33I0Q1JX9OrtpS5U6DvAnSjUa5n6TZg//33z/8V+lhk2G677dI+++yT/ytLLrnkXP8TT0z03dspFaibAP/v8omZ1vyzT04L+BNPPDFdcMEF+V4KTEPDCOrWd7/73XkW0mGwns0MPimggAIKVFzAQGvFC8jsDb4AARZ22Gh5w5lyzpzPnDkz77ytuOKK+dLfD3zgA/kmH9xIiwPD8oFkbzlqPeAsT8d37Gi6g1hW8b0CQysQ/3X+vxFcLQdYo4Vdu1xwhJ8yywAAQABJREFU8Edwdfr06fmu6ieddFK67bbb0owZM/LktOBjO3HAAQekFVZYIf+355Veu2U4ToFOEuC/xUCr7zPOOCPXr3QlQH1LH4sETvbaa6/0tre9Ld+kknHcUIv55vXfiT6RqT/L05EuD/7f5fGdZOq6KFAFgd72b9v9NxlX/q/GdiH+o3z/1FNP5bqUbkZ+8pOfpOuuuy498MADeVuw9NJLp7e85S15+0GXPO1uWlsFE/OggAIKKKDAvAQMtM5Lx+86UoCdPHb4eHAn0wsvvDAdf/zx+ZKlaKXGiq+55pr5Ukj6mePSx9VXXz1fHjl+/PgcfGVHMg4QSYsDvnaBVKbhOwcFFBg+gfgvxn+09T8Y24AYz8mWRx99tHnZM92KcBBIX6yMj4HW7zvuuGP67Gc/m0/KxEEgy+ERy43pfVWgWwTiv8R/i+Hqq69Op5xySjr77LPT008/3WRYbrnlcgvwzTffPBFIWXvttXPXPfT1SvA15ueV/1QM8Tle+a+xzPI0Ma2vCigwNAL8/+I/yH+P9zHEf5H/ZkzDCUtOuNx///35vgjcMI/6leDqvffe29w/Zp7Xvva1+eTlrrvumqhrGaxTQ9dXBRRQQIE6CRhorVNpmdcBCcQOYBwMxs4bwVVa4HBTG+4YTktX+oqK6dhZXGqppRJn2Wnduvjii+f+5uignwc7g4yjf1cepEsLG15jB7QvLWIHtHLOrIACTQH+6/H/5ZUHLVT5r3M5M6+0qCH4QwtV/u/xmYNCHtyEIwb+v5xg4SCQG3K8/vWvzzfQI934n8f2Jf7zMa+vCnSTAP8DTmbyn+GV/1EEXCdPnpyeeOKJ/F8MkzFjxuTgKvVo1KXUqwRcqW+pU5mGlq88+H+RdtSpfI66PNL0VQEFhkagXd1KPRh1K/UsdSmNGKhHqV+jbmVbEPUr8zDw/+W/TmMG+mGlJesaa6yR/9P+r4emDE1VAQUUUGB4BAy0Do+zS6mAADt27CTGAVpkKYIlvLJzeNVVV6Urrrgi/fWvf0233HJLevDBB5tBm5jHVwUU6GwBgjoc8HE3dVq177LLLvmV8QxxoOjBYGf/Dly7/glQx/Lgf8ErA8EUAjE33nhjrlu5GSWtxenPlcCMgwIKdI8A2wNar9OVCI/tt98+bbXVVvnECt/F9qN7RFxTBRRQQIFOFDDQ2oml6jq1FSgf9JUnYHzs3PHKwEEhZ+Jp6crdkwm63nHHHfnAkMBrtHgl2MKDNMqPSD+WGZ99VUCB4RWI/zRL5X35QTCIBydfaLG6yiqrpHXXXTdNmDAh99FMn808aHETAdVyesO7Ji5NgeoKUNeVTz7wP4n6r/yeNXj88cdzdxzUrVOmTMlB13vuuSdfRsx3BF+tW6tb1uZMAQTKdSHv43PUq/HK1WAEVl/+8pfnrkK4cSRdcVG30o0IJy/L2wp1FVBAAQUU6AQBA62dUIquw7AIxIEkO4/PPPNMvgSSFrA8uAQ5Dg4J0sZBYhx4uhM5LEXkQhToIcB/NQ7+CKbSnyoHdbyPy5G5TJlLlEePHt2ctkciflBAgWEToP6kv+S4/JiuPqJ+pSuCqIfLdWv8x4ctky5owAKUIw+20Q7VFYh7GrQrp7g6jO94zyv1KN190J0WXW7xiL5Wq7uW5kwBBRRQQIHBFzDQOvimptihAhEsZfXiwC52QuM7djYZFzulHAwybUwfrx1K1LGrFWVq+VWziCmfOOgjh/F/jPLifxj/yfIaMJ5pY97W+crT+l4BBYZWIIKn/G958H/kNba/LD3Gt+aE8Q71EaBMKW9Ofll21S+31jqWHPP/LNet8X+N79rVudVfU3OogAIKKKDA4Ah4KnlwHE2lSwQiEMNOZ+x4sjMZgRp2OlsPBBnHw6E+AlFmvFLmlK8Hg9Utv/j/kUPKi0f5Pxf/23ZrUJ63PE+7aR2ngAJDJxD/3VhC/B9j+8s2OMbFf7q1vo15fa22AP3gT5o0qVme1c5td+eO/1w5aMrn8n+V/2B5/8j/ZHf/Xlx7BRRQQIH/CIwSQgEF+iYQO5PsYJZ3KvnMjicHg+0O/srj+7YkpxppgXL5jnReXH7/BSi/8oFhOZhKauX/KZ85aRInTOI7xjsooMDQC/T2n2v935KT2DaX/98xbuhz6hIGQ4CuIY477ri8Hd56663Tsssu2zxZPRjpm8bgCrT+v+Iz/9t4zxLL/8nBzYGpKaCAAgooUD8BW7TWr8zM8QgKRGsadihjp5IdzTgg5H3seMZ4Xpk2xo9g9l10HwUoq/Kjj7M5WQUEotzmlxX+y/GfjFfmif/4/Ob3ewUUGBwBAjY8qEejLu3tf1gOysY05f/v4OTIVIZKgPK7+OKLEy1aL7300nTJJZc0y3yolmm6AxNorVPjM//V8v+xvJT4H5fH+V4BBRRQQIFuEjDQ2k2l7boOWMADugETmoACIy7A/7i3A8Hexo94ps2AAh0qUD5xGavYW13rScsQqtcrATke3Ej0tNNOyzc8e/LJJ9Pxxx+fryio19qY2xCwvgwJXxVQQAEFFOgpYKC1p4efFJinQJzJn+dEfqmAArUSMHhTq+Iysx0u0Nd6lv+tQ30EaIE8efLk9Lvf/a6Z6auvvjr31UoQNlooN7/0jQIKKKCAAgooUFMB91JrWnBmWwEFFFBAAQUUUECBKgsQQCWQSgvWE044oUdW+e6UU05JjzzySHM84wy6Njl8o4ACCiiggAI1FDDQWsNCM8sKKKCAAgoooIACClRdIFoe0zfr5ZdfPld26av1sssua45n+pinOdI3CiiggAIKKKBAjQQMtNaosMyqAgoooIACCiiggAJ1EpgzZ046/fTTc9+srfmmpetJJ53U642VWqf3swIKKKCAAgooUHUBA61VLyHzp4ACCiiggAIKKKBATQX+9Kc/5b5Ye8v+FVdckX7729/29rXjFVBAAQUUUECBWgkYaK1VcZlZBRRQQAEFFFBAAQXqITB79ux04oknzjOz9OF66qmnphkzZsxzOr9UQAEFFFBAAQXqIGCgtQ6lZB4VUEABBRRQQAEFFKiRADe1+t3vftejD9besv+HP/whT0vQlYeDAgoooIACCihQVwEDrXUtOfOtgAIKKKCAAgoooEBFBeib9cwzz0yPP/74fHNIX60/+clP5judEyiggAIKKKCAAlUXMNBa9RIyfwoooIACCiiggAIK1EyAvlkvvPDCPueavlonTZpki9Y+izmhAgoooIACClRRwEBrFUvFPCmggAIKKKCAAgooUFMBWqjOr2/Wdqt22mmnpSeeeKLdV45TQAEFFFBAAQVqIWCgtRbFZCYVUEABBRRQQAEFFKiuAH2y0r9q9M16+eWX9zuzf/zjH3NfrZFWvxNwBgUUUEABBRRQYIQFDLSOcAG4eAUUUEABBRRQQAEF6i4QQdann346nXXWWWnGjBn9XqVZs2aliRMnzjXfCy+8MNc4RyiggAIKKKCAAlUUMNBaxVIxTwoooIACCiiggAIK1ECAACuB0IUXXjg/rrnmmn71zdq6ipdddlm6+OKL00ILLdT8irQdFFBAAQUUUECBOgi411KHUjKPCiiggAIKKKCAAgpUUICA6CKLLJJzRt+sxx9/fO4+YEGzSuD25JNPTo8//ngziXLQtTnSNwoooIACCiigQAUFRlUwT2ZJAQUUUEABBRRQQAEFaiRAMJTuAt7whjek9ddff66c33rrremXv/xlj/E777xz2mSTTZrjCLLyWGaZZdLMmTPT2LFj83e0aKXfVpZh0LXJ5RsFFFBAAQUUqKDAQsXOTKOC+TJLCiiggAIKKKCAAgoo0CEC5557bnr3u9/dXBuCp6eeemraZ599muMi0NouoGqgtcnkGwUUUEABBRSosIAtWitcOGZNAQUUUEABBRRQQIFuEWgXYI11t5/WkPBVAQUUUEABBaosYB+tVS4d86aAAgoooIACCiiggAIKKKCAAgoooIACtRAw0FqLYjKTCiiggAIKKKCAAgoooIACCiiggAIKKFBlAQOtVS4d86aAAgoooIACCiiggAIKKKCAAgoooIACtRAw0FqLYjKTCiiggAIKKKCAAgoooIACCiiggAIKKFBlAQOtVS4d86aAAgoooIACCiiggAIKKKCAAgoooIACtRAw0FqLYjKTCiiggAIKKKCAAgoooIACCiiggAIKKFBlAQOtVS4d86aAAgoooIACCiiggAIKKKCAAgoooIACtRAw0FqLYjKTCiiggAIKKKCAAgoooIACCiiggAIKKFBlAQOtVS4d86aAAgoooIACCiiggAIKKKCAAgoooIACtRAw0FqLYjKTCiiggAIKKKCAAgoooIACCiiggAIKKFBlAQOtVS4d86aAAgoooIACCiiggAIKKKCAAgoooIACtRAw0FqLYjKTCiiggAIKKKCAAgoooIACCiiggAIKKFBlAQOtVS4d86aAAgoooIACCiiggAIKKKCAAgoooIACtRAw0FqLYjKTCiiggAIKKKCAAgoooIACCiiggAIKKFBlAQOtVS4d86aAAgoooIACCiiggAIKKKCAAgoooIACtRAw0FqLYjKTCiiggAIKKKCAAgoooIACCiiggAIKKFBlAQOtVS4d86aAAgoooIACCiiggAIKKKCAAgoooIACtRAw0FqLYjKTCiiggAIKKKCAAgoooIACCiiggAIKKFBlAQOtVS4d86aAAgoooIACCiiggAIKKKCAAgoooIACtRAw0FqLYjKTCiiggAIKKKCAAgoooIACCiiggAIKKFBlAQOtVS4d86aAAgoooIACCiiggAIKKKCAAgoooIACtRAw0FqLYjKTCiiggAIKKKCAAgoooIACCiiggAIKKFBlAQOtVS4d86aAAgoooIACCiiggAIKKKCAAgoooIACtRAw0FqLYjKTCiiggAIKKKCAAgoooIACCiiggAIKKFBlAQOtVS4d86aAAgoooIACCiiggAIKKKCAAgoooIACtRAw0FqLYjKTCiiggAIKKKCAAgoooIACCiiggAIKKFBlAQOtVS4d86aAAgoooIACCiiggAIKKKCAAgoooIACtRAw0FqLYjKTCiiggAIKKKCAAgoooIACCiiggAIKKFBlAQOtVS4d86aAAgoooIACCiiggAIKKKCAAgoooIACtRAw0FqLYjKTCiiggAIKKKCAAgoooIACCiiggAIKKFBlAQOtVS4d86aAAgoooIACCiiggAIKKKCAAgoooIACtRAw0FqLYjKTCiiggAIKKKCAAgoooIACCiiggAIKKFBlAQOtVS4d86aAAgoooIACCiiggAIKKKCAAgoooIACtRAw0FqLYjKTCiiggAIKKKCAAgoooIACCiiggAIKKFBlAQOtVS4d86aAAgoooIACCiiggAIKKKCAAgoooIACtRAw0FqLYjKTCiiggAIKKKCAAgoooIACCiiggAIKKFBlAQOtVS4d86aAAgoooIACCiiggAIKKKCAAgoooIACtRAw0FqLYjKTCiiggAIKKKCAAgoooIACCiiggAIKKFBlAQOtVS4d86aAAgoooIACCiiggAIKKKCAAgoooIACtRAw0FqLYjKTCiiggAIKKKCAAgoooIACCiiggAIKKFBlAQOtVS4d86aAAgoooIACCiiggAIKKKCAAgoooIACtRAw0FqLYjKTCiiggAIKKKCAAgoooIACCiiggAIKKFBlAQOtVS4d86aAAgoooIACCiiggAIKKKCAAgoooIACtRAw0FqLYjKTCiiggAIKKKCAAgoooIACCiiggAIKKFBlAQOtVS4d86aAAgoooIACCiiggAIKKKCAAgoooIACtRAw0FqLYjKTCiiggAIKKKCAAgoooIACCiiggAIKKFBlAQOtVS4d86aAAgoooIACCiiggAIKKKCAAgoooIACtRAw0FqLYjKTCiiggAIKKKCAAgoooIACnS7QaDTSiy++2Omr6fopoIACHSswqmPXzBVTQAEFFFBAAQVqIMABNQfWCy/80vnvhRZaqAY5N4sK9E2A3zcPBwUU6JuAdUDfnJxKAQUUqKKAgdYqlop5UkABBRRQQIGuESAA9dhjj6Vnn322GYwqB127BsIV7VgBfuMzZsyYa/0ef/zx9MADD8w13hEKdLMAJ9+WWWaZtNRSS3Uzg+uugAIK1FZgoWLHx9PLtS0+M66AAgoooIACdRd49NFH08EHH5yuvPLKuq+K+VegV4HZs2enRx55pMf3yy+/fFp66aV7jPODAt0uMGrUqHTIIYekfffdt9spXH8FFFCglgK2aK1lsZlpBRRQQAEFFOgUAVovTZs2Ld1zzz2dskquhwJ9Epg+fXri4aCAAi8JLLrooumJJ554aYTvFFBAAQVqJfBSZ2C1yraZVUABBRRQQAEFFFBAAQUUUEABBRRQQAEFqiNgoLU6ZWFOFFBAAQUUUEABBRRQQAEFFFBAAQUUUKCmAnYdUNOCM9sKKKCAAgoo0BkCdJe/+OKL55ufxBqNHj06veIVr0j01efdp0PFVwUUUKDzBF544YV07733NrsLWGSRRdLUqVPTzJkz07hx4/JNEq0HOq/cXSMFFOhcAQOtnVu2rpkCCiiggAIK1ECAYCr9tHIH9hjWWWeddP7556cVVlghLbywFyCFi68KKKBApwnMmjUr7bPPPulXv/pVc9WuuOKKfPM4bhZH/UA94aCAAgooUA8B99zrUU7mUgEFFFBAAQW6TICDa1ox0eLVQQEFFFCg+wSiJSutXqkTHBRQQAEFqi/gqbHql5E5VEABBRRQQIEuFODyUYKscaDdhQSusgIKKNDVAtQBXNXglQ1d/TNw5RVQoGYCBlprVmBmVwEFFFBAAQW6R8CD6+4pa9dUAQUUaBWwDmgV8bMCCihQfQG7Dqh+GZlDBRRQQAEFFFBAAQUUUEABBRRQQAEFFKi4gIHWiheQ2VNAAQUUUEABBRRQQAEFFFBAAQUUUECB6gsYaK1+GZlDBRRQQAEFFFBAAQUUUEABBRRQQAEFFKi4gIHWiheQ2VNAAQUUUEABBRRQQAEFFFBAAQUUUECB6gsYaK1+GZlDBRRQQAEFFFBAAQUUUEABBRRQQAEFFKi4gIHWiheQ2VNAAQUUUEABBRRQQAEFFFBAAQUUUECB6gsYaK1+GZlDBRRQQAEFFFBAAQUUUEABBRRQQAEFFKi4gIHWiheQ2VNAAQUUUEABBRRQQAEFFFBAAQUUUECB6gsYaK1+GZlDBRRQQAEFFFBAAQUUUEABBRRQQAEFFKi4gIHWiheQ2VNAAQUUUEABBRRQQAEFFFBAAQUUUECB6gsYaK1+GZlDBRRQQAEFFFBAAQUUUEABBRRQQAEFFKi4gIHWiheQ2VNAAQUUUEABBRRQQAEFFFBAAQUUUECB6gsYaK1+GZlDBRRQQAEFFFBAAQUUUEABBRRQQAEFFKi4gIHWiheQ2VNAAQUUUEABBRRQQAEFFFBAAQUUUECB6gsYaK1+GZlDBRRQQAEFFFBAAQUUUEABBRRQQAEFFKi4gIHWiheQ2VNAAQUUUEABBRRQQAEFFFBAAQUUUECB6gsYaK1+GZlDBRRQQAEFFFBAAQUUUEABBRRQQAEFFKi4gIHWiheQ2VNAAQUUUEABBRRQQAEFFFBAAQUUUECB6gsYaK1+GZlDBRRQQAEFFFBAAQUUUEABBRRQQAEFFKi4gIHWiheQ2VNAAQUUUEABBRRQQAEFFFBAAQUUUECB6gsYaK1+GZlDBRRQQAEFFFBAAQUUUEABBRRQQAEFFKi4gIHWiheQ2VNAAQUUUEABBRRQQAEFFFBAAQUUUECB6gsYaK1+GZlDBRRQQAEFFFBAAQUUUEABBRRQQAEFFKi4gIHWiheQ2VNAAQUUUEABBRRQQAEFFFBAAQUUUECB6gsYaK1+GZlDBRRQQAEFFFBAAQUUUEABBRRQQAEFFKi4gIHWiheQ2VNAAQUUUEABBRRQQAEFFFBAAQUUUECB6gsYaK1+GZlDBRRQQAEFFFBAAQUUUEABBRRQQAEFFKi4gIHWiheQ2VNAAQUUUEABBRRQQAEFFFBAAQUUUECB6gsYaK1+GZlDBRRQQAEFFFBAAQUUUEABBRRQQAEFFKi4gIHWiheQ2VNAAQUUUEABBRRQQAEFFFBAAQUUUECB6guMqn4WzaECCiiggAIKKKCAAgoooIACCijQGQKNRqO5IgsttFDzvW8UUKD+ArZorX8ZugYKKKCAAl0uwM76iy++2OUKnbv6lK3l27nl65opoIACCnSngHV7d5a7a935AgZaO7+MXUMFFFBAgZoKvPDCC3PlnHGxY25riLl4OnIELV1s7VK/ouX/Wf6P1m8NzPFIC/D7iXogTrjEa7u8xW/O3107nfqOK/8O6rsW3ZVz/rfz+x9Sry+yyCLNfbruEnJtFehsAQOtnV2+rp0CCiigQI0F2AnnoLq8s14OukXAtTyuxqtr1nsRsHx7gan4aP635f9uxbNr9ioowH+fQAxDbAf4TS288EuHcFEPME3UF/7u0Kj3UN5+xO+gXNb1XrvOy33892LN+N9SbvMaojznN9280vA7BRSopsBCxUb8pc5BqplHc6WAAgoooEBXCUTVHAdaHFTHjniMi2niILyrgDpsZZ999tk0ZcqU9NhjjzXXbPHFF0+bbrppWmyxxZrBuvgNNCfyTS0F4uCa/3X8jy3bWhblkGY6fif8NngfwdXybyVauzIuvh/STJn4kAg899xz6fbbb0/Tp09vpr/kkkumDTbYII0ZM6Y5ju2F5dzkqNSb+W3LW78vf+Z9+X9dqRUzMwoosEACBloXiM2ZFFBAAQUUGDoBdrp5cPA1Y8aMHICbOXNmmj17dpozZ0566qmn0vPPP58vKY1XDsR5xM57pDF0uTTlwRIoB1HapRll6QF2O53qjCuXD+85cOZEyKhRo9Kiiy6aRo8enQigEzghiLLMMsuksWPHphVXXDF/V501MSdVEWD7/sgjj6THH388UQc8+eST+cHJmWeeeSbXAdQT0aVM1AG8OtRHoLc6gG1/fMd7tikG5KpbrlEHUEa8j0fUA9QFbPs5gbrEEkvkOmD8+PGJB+McFFCgcwRGdc6quCYKKKCAAgpUWyAOlFpzyYEUwVMOpu++++507bXXpr/97W/pjjvuSLNm/X/2zgNclqJa2+W9kiRHRQmHJCAgiAEwwAFFRMV0xQQiigQRUDEBJsScvYIKSjKAARBFr/6AJFGSBBFQEBREkiAiOYjOv96lX1u7z8xOZ89O89Xz9HRPd9Wqqreqq7pWr6q+OwfUDKoZdPcaVCMbp337OC/6xwRMoG8EagWIFCK9BtwoXhlYs6FsXW211cqTn/zk8pSnPKU8/vGPz3MMyBmoc0/TRkgWx5zjWh1n3zJmweMigPJTZTacAJXnAw88UO66665y7bXXlgsvvLBcdNFF2QegYKX9Z6P918s1rQFJeMkgHvUB2g8Xt6+ZgAlMHAG1x/VebUA3pav6gMUWW6ysscYaZf311y9Pf/rT83iZZZYpnFcfQCold+JSbEkmYAL9ImCL1n6RtVwTMAETMAETaBFgYFxP9WdwfMMNN5Sf/OQn5cwzzyy/+MUvyp/+9KdWKP81ARMYJAIrr7xy2WSTTcqzn/3sMnfu3LLWWmvlABvFWd1+tNuTQWI0U/NKGUoBKgXKTTfdVE477bRy6qmnlvPPP79cffXVMzV7TrcJmMAEEHjMYx6TCtdnPvOZZeutt86Xb1jD0mbgeHbU8QREZxEmYAJ9IGBFax+gWqQJmIAJmIAJdCMgxQhWSTfeeGM58sgjy4knnlh+//vf55IAhOHhWdOLmWL82Mc+NjcevDXVmClnXMMagunIhMFCjr22bvH7nAmYQH8JtK0MudfZsEbEYpGp31ipY71+8803F5RsvFxhKjhW7fhhEI2jHVhppZXKK1/5yrLTTjuV1VdfvVG02rKpv+U4UdLV5kseSlbKl43yP+6448rRRx9drrvuulwaBn+ULWVPO0/7Th149KMfnf0AfcCSSy6Z19QH0A9oajLtP+Frhbzi9t4ETKD/BLi3ue91n2smktp4ln+iD2BZqD//+c/ZB/DCnfO0//QDhMXxXMeLt+c///lljz32yJdutAm0I+4D+l+WjsEE5oeAFa3zQ89hTcAETMAETGCMBFhv75hjjilf+tKXhlguMU2Mjx+xbbzxxuWJT3xiWXXVVXNAzQO1Hrw5lkUUUTOg5qFe57s9fNf+x5hcezcBExgFASm2pEjT/ch57l3Oy4/ESQnH2svXX399ufTSS8tll11WfvnLX+YxbYXcKqusUt7ylrek0pWXL93uc/n1fnoT4KN33//+98unP/3p8tvf/rZJLErUDTbYoDztaU/LKcQsJTFnzpzsA1CgUo9Ur7RvAsdB+5yUrqp/tV8fm4AJTCwBtfVI1f1aP3txf3JeTs90/OdF3B//+MdyxRVX5JIh9AUXX3xxueWWW+Q9X7Tsuuuu5Q1veEMqX5FnZwImMH0JWNE6fcvGKTMBEzABE5hFBFCqsO7qgQcemFNEsV7gwRxL1e2337684hWvyHUal1tuufx4DlmX0qZW0OjBfTQP2d3CzyKkzooJTBsCve41KVPbCe11H+MfBStWrscee2wq5LB2wioKK8fNNtusfO5znyvrrruuP6DVhjrN/rfLmLLFcnW//fYrJ598clq1oXjBWvV5z3teKlBYq5f/TBPGIaNXW6+6xV5K1fqY8PxX+FrJwzU7EzCB/hNotwPtGNv3LArY22+/PV++/fCHP8wX8yhhmRmBhSt9wIc+9KHc838k+e34/N8ETGByCFjROjmcHYsJmIAJmMAAE2A62AknnJADbJQmuMc97nFlhx12KHvuuWfBWk2D4ZEwyQrCg+aRSPm6CUxfAu3BtVLaPo9F0+c///nyne98J5V0+KPteP/731923nnnrspW2gi3DyI6dfu6rUZRjtLkgAMOKFdeeWUmipdsL3nJS8rb3/72XBaiW5lRH+oXbd1yU8fT7brPmYAJTB0B7k+e70b7jEdK6/v+1ltvLUcddVQ54ogjyjXXXJOK1aWXXjpf2u+yyy65jBRhurUfnLczAROYGgL/HZY1B05N1I7VBEzABEzABGY/AdblOvzww1PJitIESyU+cHDIIYeUHXfcsWDBOpYH8LE+sM9+ws6hCcw8AgyKu9337fOsw/msZz2rzI2PYrGWMy9qWN+VD+ctvvjiOdVcirhawdpN9syjNPNTTDmgZGUt7r333juV5ZQXS8McdthhacWKwrVXeY1GeULYXuFnPkHnwARmNoHx3J+677FWXXTRRfPjiFtssUX5y1/+kv0Aa32fe+65aeWKhSuWrXLEZytX0fDeBKaOgBWtU8feMZuACZiACcxSAjzksrE8AApVrJjuuuuussQSS5R99tmnHHzwwWXttddOpasHyLO0EjhbJjBBBHg5s+KKK5YXv/jFuV7nBRdckO3JWWedlet2brLJJk1bMp5B/QQl02JaBOgDULJiibbvvvumkoQP2bz5zW8uhx56aCpb+W9nAiZgAr0I0I7QB7CkyHbbbZfPkZdcckl+TAtlK0pX1nXmo3g4PVMSTse9ZPu8CZhA/whY0do/tpZsAiZgAiYwwASY+sV03/e97325Fh9fkD4wJpGgaOWr0XoI9oPwAFcSZ90ERiCgdgILJ6xbGVDTlvDBLL5czYCbr1JvuOGGOah2ezIC0Em6TLlhYXzaaaflR8xYc5Hy44Nm9Al8/FDOZSYS3puACdQEaBvY1A9gucoHU1k+hhdt9913X35AkT6BF26yhFW4WpaPTcAEJpeAFa2Ty9uxmYAJmIAJDAABHop5CObrsHfccUcqVvnC9B577JHTwHgI5oGYvZ0JmIAJ9CKgAbbaCiybnvrUp+a6zqeffnpatmLV9PjHP76ss846blN6gZzk85TbeeedV974xjeWG2+8Ma3NPvzhD5d3vetdZbHFFsvUoIjFn5Qjk5xER2cCJjCDCKitQNm6wQYb5Kyos88+u/z1r3/NZQTWWGON8oQnPMEv3GZQmTqps5uAFa2zu3ydOxMwARMwgSkgcP311+cHTq666qocRO+///7lTW96U341fAqS4yhNwARmKIG2opVsoJhbd911c32+c845Jy1b+UgK00pR4kkpO0OzPCuSzTq6b33rW8uFF16Y5YXClX4AyzOcXrZZyTorituZMIG+EqC9qD+qxX8UqyxHdfLJJ5cHH3ywXH311WXLLbfMJQbUb/Q1URZuAiYwLAErWofF44smYAImYAIm0JsAD7NsOD3YsmTAe97znnLcccflAPs1r3lNwZJJVky9pfmKCZiACQwlwICarXas+4ll60YbbZTWTCwfcNNNN6XC9TnPec6QD6PU4Xw8OQToAz71qU/lRxApu5e85CX5v14uYHJS4lhMwARmC4F6FhTtCn3A+uuvn98C4IXOzTffXP70pz+Vl770pfns6Zc4s6XknY+ZSuC/ZmrCnW4TMAETMAETmA4EpARhj7L14osvLscff3wmbc011yzveMc7cm2+6ZBWp8EETGDmE+Cr9bQ1Sy21VE5FX3311TNTP/rRj3K6ul7+zPyczrwcwP7yyy8vxx57bCZ+ueWWyxdvfMjGzgRMwAQmksDCCy9c9t5771y3FblnnHFGOfXUU1PRygsfrGDtTMAEpoaAFa1Tw92xmoAJmIAJzAICKFfrjemin/jEJ8ptt91WUIbw0RMsDji2MwETMIGJIIClEm0KbQ9K1oMOOihf5mDR9NnPfjYtWyciHssYO4EHHnigHHLIIeV3v/tdlhFrsvLxGjsTMAET6AeBlVZaqXzoQx/KPuCee+7JPoC+gP7BVq39IG6ZJjA6Ala0jo6TfZmACZiACZjAiAQuu+yywgdqcJtuumnZZpttRgxjDyZgAiYwFgJti9VnP/vZZfPNN08RtD+sDW03+QSwIGPq7oknnpiRb7jhhrlsAAoPOxMwAROYaAJSpvK8+YIXvCDFn3/++Tmzyu3ORNO2PBMYGwErWsfGy75NwARMwARMYB4CKD6YonX00UeXO+64oyy66KJl9913L0svvXRjeTZPIJ8wARMwgXEQaE8HXWGFFcpuu+2WH1q6//7706Ly73//+zgkO8j8EECxceSRR5bbb7+9LLjgguV1r3tdWhxz3kqP+SHrsCZgAsMRWHzxxcuuu+5all9++Vyz9eCDD86PJQ4XxtdMwAT6S8CK1v7ytXQTMAETMIEBIcCyAaeddlrmds6cOWWLLbbIjxUMSPadTRMwgUki0G0pkq222qqsssoqmYLzzjuvXHfddZOUGkcjAvQBrJGIW3LJJcuLX/xiT90VHO9NwAT6SmCTTTYp6667bsbBx7GuvfbavsZn4SZgAsMTsKJ1eD6+agImYAImYAIjEsBa6ayzzsq1WfH8whe+sLBulhxTSu1MwARMoF8EUOztsMMOKf7GG28sTB+tLV9pg9pLDvQrLYMq96KLLmoU3PQBUnzDw33AoNYK59sEJofAEkssUXbccceMjLVaTznllMmJ2LGYgAl0JWBFa1csPmkCJmACJmACoyeAQgMLAj6Egttyyy1HH9g+TcAETGA+CfCyZ7PNNisLLLBAuffee/PL9/XyAfp41nxG4+A9CNAH/OY3vyl//etf0wczGrxcQA9YPm0CJjDhBGhvnvGMZ+RyVQ899FC59NJLm2fSCY/MAk3ABEYkYEXriIjswQRMwARMwASGJ8C6rHwIC4uxxzzmMWWjjTbKKaNYMbH5y6/D8/NVEzCB+Sew6qqrlrXXXjsF/fKXvyx33323rVjnH+uoJLA2LhatDz/8cGHNXD6ERX8gK2L3AaPCaE8mYALjJKDnzw022CAlXHHFFeXPf/7zOKU5mAmYwPwSsKJ1fgk6vAmYgAmYwMATYG0+vjaNW2+99crCCy+cx1iR2ZIsUfjHBEygzwT4+N6cWB8ad9VVV6U1E5aWvOxhjxLQrj8EmM3wu9/9LoVTBpSFlKyctHVrf7hbqgmYwL8I0N4wo0GK1uuvvz4/zmo+JmACU0PAitap4e5YTcAETMAEZhEBpovyUIvjYwRStM6iLDorfSLA4KhWyIwmmrGGQck21jhGk47x+plu6RlvPuY3HBwmylG+Sy21VFlzzTVTJOu0YmmPJSUbir5uH9GaqPgHXc59993XKFopg2WXXbbhPhY2lONE1ouxxG2/s4NAt/5hOtWp6ZSWfpf4ePLarfyUzuHk0cY/6lGPKuuvv356v+WWW5rvBii89yZgApNHwIrWyWPtmEzABEzABGYpARStWLXimL6LVcFYnAbXWJzVD9KyROO63eQRoAzqciBmyqIfri7bXnG0z5O2Otxo0jVW/6ORaT8TQ6BdvuORSvky0H7c4x7XtD98dVqWlLo+HtkOMzIB+gAU27hHP/rRZaGFFho5kH1MewLcm+Npb/uRsbpf4n7u1W5wjc1u5hCgvPTMMd6yIxwv1Wh/eNmPvOuuu27mQHBKTWCWEbCidZYVqLNjAiZgAiYw+QRuuOGGfKhdZJFF8iF3POvxyeJMihFygRwenvXgrWM9kE9+TgcjRspAzMV6PGU6GlrIVZkrDincSQODaa6TDqWpTl8dh9Kqc6ov7CVb16ZirzyQfuV5KtIxlXFSFpSvyhImE8FC9YgXPQsuuGBm8Y9//GOjjJkO5T+V3Psdt5aOgT1l8MhHPnLcUdZ1g/qh+5rzuka7oONxR+SAIxKY7LaKMq0VqHWZKy2qD/U9XYeTvzpztd/6/FQck7667tZ5nIr09DPOsXCHC2VLGJWx0qb/veTBUOXOdwIWX3zxDPqHP/xBIrw3AROYZAJWtE4ycEdnAiZgAiYwuwjwAHzrrbdmplC0LrHEEkMGEaPJrR6QkcXxcA4/PFSzZ7ObeAIqA7EmBp2b+Nj+I1HlqjPE32uN39FOA0em3fQhQD1S2TFobg+cUbLUipaxpny55ZZrlHx8CKVX/RmrXPsfnoA+OgPvZZZZZtztRbt+tNsdKVhdrsOXx0Rdpf1ka5fDRMlvy6nLX/2P2vA6DVyr/9fhOK6vEcf8tCntNE7Ef+VJssjPILu6zGDR7hdGw0ZMl1xyycKzKO62227LPdcGnXGC8I8JTCKB8b9uncREOioTMAETMAETmI4EeHjlAfn222/P5DFdFEXreB2Dod///vfl6quvLr/61a/KzTffXP7+97+XOfFxldVXXz3XX+Sr4kwL40HcD87jJT18OLjeeeed5be//W16ZN0zuLPvp6Mu8aX4yy67LOsAHzRiSvJKK62UZf+kJz2prLHGGjk1nLpCHagH1NQXpgpSLxlsrbXWWum39tPP9I8km3UsL7300vSG5d/jH//4TOdI4WbbdZUH9ezMM88sV155ZWaR8pw7d27WtbHkGTnUB6woUfJJkat2aSyy7Hd8BMRaZTA+Kf8Kxf3LMgTc/3w5nD3/UaLTF7AGLPc2y0TMj+Xs/KRxUMJyb/GRM8qX+wr+cO+no/y5n1n64ze/+U22D1in0/+sttpquQYnHzzig2s42hPSKeUc7Sx1hj1y8Mv6zdPFkSaec/7yl79kkpjqTr82m53K55577ilnnHFG83K+nWfq2GMf+9hsx1dcccWCdSrnVLbUDWSpjVd46oD6FaxZtXQJzw9yuq7/3puACfSXgBWt/eVr6SZgAiZgArOcAA++d911V+aStVkZDI3ngZaP13z1q18t3//+91PB99BDD81DDoXbc5/73PKa17ymPPvZz57nYXueAD4xLgIMai655JLyohe9KMM/4QlPKN/4xjfKOuusMy55ow108cUXly9+8YvlBz/4QSpY2+H4yMX2229f9tlnn64D5+OPP74ccMABGWzrrbcuhx9+eCpnGJhNB4fV3wte8IJ8ecBg8uijjy7PeMYzpkPSpiQNKBo+8pGPlNNPP72J/53vfGf52Mc+NqZ7W4NwhCy22GJNWF4W2E0OAbGmLCiD8TjuU/oT7v9jjjmmnHXWWc1LvFoe1mobb7xxefWrX11e8YpXlOWXX76+7OMJJMDa67SpP/3pT1Mq9+tb3/rWCYxhXlHE+c1vfrMcccQR5fLLL5/HGpWXaFtuuWWhrdh0003ned5gGYvdd989lfQ8i/BM8ZznPGfeiKbozIMPPlj+93//t3zta1/LFLzhDW8oBx988BSlZnKjpWxp388999yeEetlDc8bsKHP10teyrOtZK0F0X7wIl7fCdC3A/DDtfE8m9byfWwCJjB6Ala0jp6VfZqACZiACZjAEAI8tDI4xkoBxwOyLAmGeOzxhwdfrDtOO+208q53vSutV1i/UY6Ha+Tdf//95YEHHiisBXvUUUeVk046qey3335l1113HbJUQfshGvlyXCOu4R7S5Vd7hW/L1fXx7kkHColabnsQMNL/Ou75SWevsKQRiyAc7KWsVLp6hVO62tf1Hznd8o7l2qte9aq09MEvAyUslmDEYInBKYNurB9RWH784x9v1mGTbOqO0ox/na8VcaRP5zlGvv7X5cG1Xg7/td86vI7lR/7gyTnSh5U2dVpMiUfHdVoli+uSw7HOt88ho1f9Vnq0Rw6um6x/XfnXr+6ZkfwpzGj94R+rdVn4KjzK8ve9731ZtpKlfc1G/rXXNZRwOr733nt12fs+E1AfQP0bj6KVMuYr4Z/61KfKV77yleY+Jtn0K8jU/c2984tf/KL88pe/LN/+9rfLkUcemRaBKvfRZpX7hXh1z3DMPaU6Lzmqf1yrj3Vde13Tf/bd7knkK631PYx/yajj4rz86Xp9juORzit87bc+p/Pt9CKXtlTtKm1XN4e/trzaH9fFdTh/xPPhD3+4fPnLX842EhkoVnkW4H5mxgNKfZSn9AX4mxtW8OJJHOSBOoIs4lI5I4v/YjXcMX5HcsPlmWuKBzmkT/6JlxfJYtrtpXK3uCWP8KN13cJ0O9eWp7S2z4/lPzIkR+XTDk+5ak1trlF+lDPLUbFdeOGF5YILLkjlrNZd7ZZ/5QkZ9AGydKe+yHULp2vem4AJTDwBK1onnqklmoAJmIAJDBABBqkManA83NYPzd0wMOjhgZeNY6aR7bHHHjnlG//I22abbcrTnva0XC5g0UUXzWmj55xzTlo6MYURS7gPfvCDae3EoEwP2RowK16d1wN2+7r8aQCo/9prkKD/E7Xvlg5x0YCkHbf+s2eTP9Kka+NN32jC4wdHOnEqw/zT5actU+G7eE3rVSylmE6JPyyX99prr7LRRhtlPpk+ijLl17/+dSpbsASifrz2ta9tOHST3+0c8Ys1x6ob+NUx54dz3fy2z7X/dyvzOo66PDlPGpHBxrU6bW3Z+Of6cHEojPaEkROPdhq4XsvsFlYytJcs0sMxjnC1HPnlBYumnOsc04UZWKM8kQzC1vmX3257BtnyK2V2t3x1C+tz4yeAMg4H+7G8bFOMlNXb3/72csIJJ+SLCM6zXAx9wXrrrVeYRkwcTCH/zne+k20BCqqf//znafV2yCGHlCc+8YlN2UvucPt2vVD97lZXdU37XnK5LgeLbrKIl3ujHT/havn1sWRq3+ua7j/J7ta39QrL+fG6XjJrebov63PtY6zbUbRTH2D3spe9rLzyla/MqeQo3mgzmAmAwhdFKy9cqQNSrHXjrTjaaYQV58RK/ka7b8urw3GNDTdSO1iHG+l4uDjrsIqzF/NeclRfel2v4+BY/nVe8So8e1yvdLzpTW8aMquDexqL5OOOOy77AZTRX//618szn/nMrAe95BAHcVGWPIOqPvCSGEe4+S3vFOQfEzCBUROwonXUqOzRBEzABEzABLoTkGUGD7mastXd59AHbtYAZRoi62riWLOSgdNLXvKStGhj0MTDMXJZLmDnnXdOBRxreGKpgDULUwdf+MIXdn2QJyxWUtdcc01aRjBQ4yGcadubbLJJrvfW7cMtDB6wmjn//PPTuoK0sWQBeWNKPVPcsa4lLIN7vrLNuoE83BOW9OrBnmPSwX8GAgwiWIMWOVhmMu11zr/XHWQdVBTL+KsHjCgYGIBi6UEcTJslHPkijVxnGi3pqR2DFtiioNQ6e6yhy1IAKC9Y51ADEqWRAe6Pf/zjDCNZLA3B1FGt2cqacig6VdbKG2FRlGFpRryEI02srco0QPKJ37aDydlnn90MlJhGqTKF31ZbbZVLRbCUAfLh8P/+3/8rL33pS9OiGY4MtqkXcpz7v//7v8bimfJhrT64wgILWhzrDaLQZS03wl900UVl2223TcaSRXnAB5lYYWJZy0c2ll122eRIuSGfQd2PfvSjDIayiTpGOZFnrLDJJ3JwsGJ9UmTiWEOQZQRQFOIIw0bZwlJlyFqVlCHLKFCGWrMWuaQTV9cd/nPt+uuvTxmkHRmsfUd46gIMqO8oMXBMvXzWs56VlmTUVVmdcu9sttlmw07VxvqYlyeSQz1hbc22I18ozHDIxWpNHy459thjM37ql9qAdp7a8vRf6zfzH8bd6pv8ej9xBNQHwHusilbqwkc/+tFUrtB+0gayxMYnPvGJrKfUA90PXN9xxx3Ll770pfLpT386FW5Yt37gAx8o3/rWt7JNoq7U5Y4lLG0hdZn6r/U7V1hhhaz/3Esrr7xy1/uGe4q2mnsQt9q/1wi96aabsh/g3sAPfRdtAG0Blvjcc6SB9LKnHcPxH//UTV4s0d7QppHGVVZZJeWgYCY9hGHTfY1M2nzaAhz3FfcpbQhppP3aYostsk9MD/FDeOLn3iL/tM30iZyjDXjKU56SaaadruMinfRzyMS/HO0mVudyTOGnHSQsjrSSTvpH2lnSytrZ3Jdzov2nv1Q/V5eTwrFshKyjqQNf+MIXsr3hOnFwjvbv85//fLKEP3l/6lOfmnWBF7L811IWhKNv0PJGpPHFL35x1hP18bJ6pJ/BwpI8I5cy4WUe9RFHvpBH2anvRfFPPigvrSFOW0Z4ffGea7SDMEc5TPooczn81UzJC88UOOKTo5zpgykD+hLkUWfo16jD9CGcw7X3kkNeqQfcM9Rh7lXSR7uOLPofGHINR72mzGDFCzBxxS91R+WenuOHeOEEO+oPS0LhqNM8t7QdXOjHa0f47bbbrrz+9a/PJQaoD7yA4RmnlyNe5Zn+RP0F9z2O/Ot6Lxk+bwImMMEE4sazMwETMAETMAETmA8CMUBhNNAJxU0nBhCjkhQDuc6b3/zmDEfYGPR2TjnllCFh44G7gz85/ofCsRPWTU24UIB2YiAnL7mPh/xOWLykvBh4dmKQ1/gnLrYYHHZiENWJwWAH/20XA9JODKqbcD/72c8673nPezoxiGrOISce3jsxGOkcdthhnVDWdUgjDpmkXbJDmdAJBWYnlGmdGAgMkaH877TTTp0YzLST0gmrv04o1DJMTJ/rhHVn5zOf+Uxnzpw5Gf+GG27YubbFPQaW6ScUnPPERZpDKdCJwWrKJkKxjgHWPP7FTPvnP//5nRiwZRjlNwbynX333bcTg7Z5wocytxPKzE5M8+3EIHWe/P3kJz/pxMAow4UStxMD+2SnNCmOWNeuE8sL5BZLTSRvhBFeaeu1f9vb3taURVhDN/5f/vKXZ52KNX87MejM87EebaaReCk/NuKIdf465KWOI5RAnRjodo466qhOKGOaa6FgTbmqv6EcaK7V4XX85Cc/uRPKicy3wsA4lkjohGIiy1l+2ccAN8+HIqITg98h90kNmHoX02w7ofRtGEsO+Y0XFZ1QbHZCYd+kL15EdELZkGJCaZpxEYa8x9qZTRrhIkaKM6zRGjkxiO6EEmFI2nQ/IFfpoI6GZXqTPniGQmHIvST5I+1jYN0JxXHKJm92k0OA+5LypN5T5qN11J94ydK0G7RNu+22WydeBjQiuB/YaNNV5yhn7l3VIe6HH/7wh+lP7YXCxUuGTrzA61Cv5V972h3qaVhJdm2bSEQsUdOEi7U/O6EU64QyrKmvkkXbTJ8SirQm7d0OuM/33nvvDm2dwmpPe0J66E90X5NnNvITSys0YcLKr3Peeed1QnHYIRwyuP9qB7OYft0JBWUnll9owio+0hyKrkwz8uXgu8suu8zjX+G0D4WdguQ+XjZ14gVXh363Wz9H/dhzzz07oexryop4KbN4gZb9I7Iplw996EN5XteVvlBiZh2hzsUL2E68BMy44yVPZ+7cuSOmOV4KpH/k0LYqL/GiqRMzK5rnC/rquh5SBvRzYXndCSV1E07heYYJ5WC2nWGp2VyPFwMNI9o56qrCdNvHjI30rzKnDLlHKOdQhM4TlnLdYYcdOqG0b+KpD2CLjFDOdt74xjfms0873phFkteujecI6oOu08/ieAYJ5Wdznmc+nnd6uVBEd+jTJIdnFhxpCKVucz5etjUiKF/yjCO9lL9Yrbvuunmu8dw6II+qH9Qj+jviDoV1+qyvt4L6rwmYQJ8I8IbDzgRMwARMwARMYD4IMKjioTasKjoMakdyPPSGZWCjEGGQ+N73vrfDIK12+GOrHQ/gKEFRyrKdEQobBqS1Q8mIYi0sfpoHeh7YGZBImUZ6pSRlEKC4FF9b0YoylXQSJqxeOmHlMkT5xQAIRaPyUMtDuRgf7uiE1VCTHgahKHtR3ErJiGwGFPERmGbAgZxa0Uo88K4Vvigxr40BEg7/YbGVgyIpmJFLeuHBXoMfrqNgpMyUb5TWcKoHdLAjz5xni+mcqWjNCOOHwTZKLSkh8U/6yJ/SQJwM6l/3utc1yl2FD+vUhgHlE1ZQTXnID3vYonxkCyuXZmB16qmnZrrqgT1MyavS/O53v7thWitawwppyGCbdKJ0UflRdmE51wlroSHlTTqRDVvCEBcKIrGVolVyeDkAQ10nHIyVvrBM66Dkln8UjSi0VV/xj1/KsJaDjLD+zTJkkEp47RlwMlBuK3kJQ3qVdq7XShUpWpHFYBqFjtKNwkbylVbt8cuLD/wiO6wU068Gz5Qhg2GYorCSTJRThNULFOrMUaG41sAZ+bhaTp7o8oNfKVrD4ip5dPHmUxNMID5KleUpRavKbqRoeBEQS8c0dTEs5VIZU4dT/VI90DXuF5Rs6gtiiZGsI4ob2bSlKO6liKTOUb+4l6TE4Rz3Ay+6UAS146kVrdwbaseRSZtWy0YmLw54UaF0K72ki/RQL+u2Ehnc13WbyzH9CfcwcgjLVitaebHJpvuYfNSKVvmvX37RRpJ+2jOlgfC8tIuPUXZQsHKfwQ6FKFzUPyGf8Gqz2KPolSOt9HN130Q+yBttjHgjj36OclNbggzirNsa2gjaCvJPvy9HGNp/9QWEw6FojdkI2T7WTFTeSncvRSv9mtpb8oqilXaJ+IkTRSbnxA0/5Am56nv4z4vPLf79TISfWtEaVtpZZ2oZHCtt7HmZhSNe8va5z30uX2AoT93KkHhp92KafYYhbL3xgjosSpsyUNrr+ouMzTffPF+Kcp1NilZk0S8q3Xoxzvlujpeqqjc8O3Gv4nopWpFT1wXqLkpv0kQ6UM5yvZdTXrlOneF5hHDUfTsTMIGpIeClA6IVsjMBEzABEzCB+SEQg6AMHgOBeaaSdZMbD8U5VZy1VnExeC2hgMspxFyLh+s8j7y2iwf9nLKGP6538/O9730vpxzGw3oGZ+obH1piuhvT0Jh6F4OGXH6A6Y37779/Trdkens8jnSViT+mhPI1Y6Y+xiAipw/yZfsYROR0QtaWY1piDFYaGaSTaeOsIRgDgMwb0/RIz5yYSsk5PviAnBjU5dTAGGCXsM7KdQlJT+3wz9e4yTdTP5nKyhS+UL6lN6bwMq2S6f/kPwaZJaxdMk1MlWX6YSgmc71bWJwR07w/+9nPloMOOiiXa4hBcjn00ENz+iRTd3GUT1hg5RRzZDLVMAakeS2Un5YKyv4AAEAASURBVLncQwy48z/TF0Ph2KQJNkz7Y+mDGBjnemtMF2RdXpUz+QglW043jYFlfgyFNVuZFl874lS89fkYtGeayTPTznFMiQ9FQfPBLMpW8dVhmcaJgx/xkVfyJ+6wZooyU+Jx1AGmOrIsAGGYhslyAUyTDEVF+ql/JCcGy5m/UPhmucCZdWhJF46pu5yjXGNAmR/7Ij844qEMY/Ce8TMN+OSTT84ypLyJn2UgKC/qJZvqHWWpabOh8Mh6x1IJ3EfUaaassmcN3LYj7TEQz/yyRAX3OV+Lvi6mUbfLBr9Mg2bKLC4UNBkXaakdZcB0W9UXrrEOI1yZLso9RJ0i70wVpbx1j7dl1XJ1TDpUzhzDMhRhuux9nwjUfQC8VQYjRcf9zjIglBWODxyyRnPtVP71OY5pM9jajjaK+k/bE7MQsi3DTyj7yv/8z/9kWx8KrZzaHZbqWRdDSZgf1kLegQcemO1mWy7/kcm9w1Iy8SKksIwKS9JwP9KuwoH7ifuddpV4lH6W7OBDb7T3OLWV3I8cc19885vfzHuMdp4+g3aMKdTdnJY/gTfLgISSO/s4+aVtC6vA5v5nenlYNOY07lCoZv/FfU96uac/EMsvPP3pT884STPT5pGr/gC58GP6vhxTwnEwp51nOR/6FRjRD/LF+LAqzDSQHvLHdHKmwBMffSn9Mo4wtOVM9cfRBoTCrIQCfEh9oh2gfWk7+rp4wVrCqrWw/AzLF+D22WefnP4u/6Go1OGQPc8NONLDRhuvNof6xLrwTLmXgxVL3OCXKfW0jSeeeGLTBspfvWdZGsqJdcbpW3CsP0q5yJFnOVjw4UfafMqEvp5nB6b0U4bUAZbMYEkCuFLelHMoe9M/9xV1m/uAPkqOtY9ZKoG+jucw+mfuw5i5Iy9D9sTN0j2knaUgqPM8O7B0BOXWdqEszjpBO0B/Sf82nEO+WOOPNCEf7riYTTLkep6sfggvR5z6r3ZJ17w3AROYRALRANmZgAmYgAmYgAnMBwFZD4RCsxMP+10l1dYKWJTUVkJM89L1eLDuGn40J2Owl1YnWPnEo0RaQ2ClxDQ2rikOLG+YCh6D2PSHXyyy4uG+iaZt0coUtFg/boi1SDzE5/RwLJiQwRYDy8YSD2ExiG2sK7jOVEesOkgPjvxiqYkFCFZG+IlBQifWIMzr/NQWrVyPgU1aG8XgqhMDng4WvMof0zZDMZdysEZCDtY/4soeS6AjjjiisaAKJVfmrYkwDkJx0OQJS2WsxXCSwzH5D2VAY3WC9UgMthurXtLERhpjoNdYw2DhgiWUZGE19IY3vKGREwOuDrxj/d4O0zlDCdBYdhFvL4flKXzYnve85+U0z25+a4tW/JI/6gPlQlooDxzTRmvLJKzZSA+8caQfBkwFZhor5aL4sezDiqh2TJeV9RvWRyxH0XbwisF6Wj0hi7IJ5UWWmeove9IWyoS0hMIfFkZMnRbTP8T0baY3Kz3kkemn1AUc/sgnlrNYxMbgtPFLPmuLPKbYhiI3r5N+rOpIJ4604ODwjne8o7Gug4fSkh7iR/UBq6tQoKY8puDKIj1eSDT5wbILruNx1B3yzdRVLPTs+k+Aac2qh736gDoVqsvUM9o7wlK3aL/m11HvkE/7oXuSafrc47T9qpf4YZkSLGppc0gDlpfc47Wr+yr8YGlJX6F7AHn8D4VekxfksIQA15Qe7hvFw/0fir3sTxQX8q699tq8H4mHDUt3zRLhem3RynWsdZFDPpjWrraLmQmhGEsZ+AvFWt7rSjN5Z2NmCbMaFF98eKpp30hXvJjLsLr+yU9+MpMrhko7fRGzA/BHW7Lzzjtnu6948Id1JrMftAwOLJhpQNshh4Wy+kFkwZG0Y20bSsXMI3lAbi9HmwYXwlO36Mu6ufbSAbQ5zISh7YRl3a/Gi9mmv8SilGWPaJ+Udnjg/7vf/e48ywrUFq2kgzpYzyBgJkQ3RxrIu+4Pyok+qs477RvssZJWfllSg3SRJvZYxKp9x8I4XiznMwUctdGfsGRBbVWNPFm0Kn1vectbmrrCsguEqx1pi3WQm+UJ1M+pvrQtWqlPlIM2lrmID2Fl/829S7p5vqTvHK2DSSjBM530i3YmYAJTQ8BLB0wNd8dqAiZgAiYwiwiwphwP5UyZa6+X2i2bKLPqdcBQhuLqAUS3cCOdYyDHWnwamMyJ6ZDxwZFmQFyH58GfKXqkm41BVlgGNl7ailYGYGFllGlkcKKBA3HWa4mhNGaAJIeiU+lhKj3T4munQSODtC9+8YudsHLMjXBcw7UVrUzvkzKDdMgfgyqmmytPYRGY0ymRIbbao+xGKSy/lEfteilaaz8oQMmvZIS1Viq2lCfiUtpQpkkBjv8DDzyw8UseKKewRGpYSSaDLRT4DEZR4jI9tJcbj6IVZTQDO9IqlmKE0kfpYABK+dR5qtOBQr1ek268ilbuDSmtiJu19xiY10yVVpQqTOVXGlFuSJEaFtLNefIIu26OPDMlNizTGv9StBIn16lXr4slHxTP1ltvnQqYWh4Dbik4mY6K0rSbQx5TdCULJZbyhoKDKaK6FpZ0Tbl0k9XrnPLCVFkpnnr59fmJIaD1G7XG8khSqQfUY5YNUXmzTmS3NapHktXtOnUJJR2yUeqzNmZb6U69Y6Mdk2IG/9xT1Hm5WtFKGvXSieu6RzimDaDPUX5oV+RQlqr9Q8GIElj3qtobmCAPZZP6AabisxQMjmu1opV+hfViOY9Tu8Ax9x/3PWmhDQ1rRk6nX/yxKRxLr0jBFha9Q14Q9VK0KmwKjR/Wz1a+eZEGC5ziUnxwZW1wpvPjH556ZkAm92tYAucLJsnTnrrFCzTWJ2/3oxnZv3/Gq2iNj3Dmi7ZaFscosVmfW+kIK85UeFJe3Vw95Z0w41W0hkVvEycKQ17MwUhMOWaDKXWNl3LEx4tWvSijbtMOKu1hkdwoq9tpR1a9jAdheHnGebkzzzwzl4KQvFqJjT/uMfKvFwr0ZfXLjbailbrJ/alNCmHkU395YcfLgF6sla56Dx8tQcGyFXYmYAJTQ+BfcxPjbrYzARMwARMwARPoH4Ho5pvpofEgnFPmFRvTL3ExcNSpMe2RHQ/5OeVYX69HQAyccmp9N7mEYaoyX4rGxaA3lzPIP11+mAbJlMMYCOQmmfxnKQCmb+JC4dR8pZk4zojpb+xxoUjMaZv5598/yEEGU0xjQJ/TBJkqyHTRGFw0YRUG/8iBGXnGKS0xmM+p7JwjrSyZEIq7/OI80wq5rn0MHnOKocIyRTEGSQQdtbs2vpwcCo3Gf6xfl9MKmbJZb8TL1HumM8rxBWPiI342lkAIq6ESioScrspUQ85TV/hyNVPKw+o1p5kz5VJ5l7zx7pmCydeQKQMccVJebGHZ1oiFJVOF8YcfOcqIjan0w30VWf577cknG1OTQ5HTeKNuMU2z5slxDKCznoVyt/HL1FyWZ8CFZVhznnLh6+S9XFh/5b3Svq68xmC4hBK3mSLK1Gem/irv7ImPqc84ptwyxbVbGcVLg5yiir9QhCVTeBIX01iZRiu+TMONQXozfZQwdjObAPcV9YI9Za76Sq5oA1kmY7xO9ZHwTIFmWQ0cU7tp66nHcsRPPWNjuQCmN6sND8XmkHZNYdjTDqi/4r/qKsfxIm3IFHXuETmmeLNsCy4USHm/Ka9wkCNdLCVAH8AWL6TKnDlzuvYF8CJfSkMth/aVewdHG8cSILTDdTvC/coGH6bd42hrdG/niR4/dVx4qdvKsGzN9LbjI27aN+5z7n1cvGBsptqTD/otlpWJD/hl28AyEqGES7/wY3o7S/2wfEFYQyZTmLHNr2M6PUuYyKk+0WfWZRkvnXIZHXGv/VO3WV4B5uN1yg/PDnIsMUN51+WnY5gypZ+lYXCheM1lDEgfdTmUm3k+lJ/Zh7JMRbv88EC85C1emKV/fpBR55OlLFgyQY4lAui3cPjjuYIlNOBAfDtHv0GZ9nKEZfkQbTCXIzxL+bCkzkSUr+R6bwImMDkE/tPjTk58jsUETMAETMAEZh0BPRzz8N7tAZ4M86CsB3YevBn4yUlBo//j2SObAUat+GPASrx1mvTAjn8GcKxnFksLZJSst9nLsRZdLUf+GLzPiYGwrjG4Z702HHFJNv9RxrUHHWLCdQYWDHjZ93KkOabjdfXDIEfKBQYwrK33jW98o5eoJp14IBzKUNZxHc6RJzFFicsmx/p4dX50XnvWXZNjcMhgTP7ZMwCPLzqnkpk1PFkPj3Xl2KOQgStryVHG5AsFosJL7lj3KE2oi8hRPYZ/u+xQRsCm9kdcKneOY6o+u3E5lTn5RBkpx1qPYd2sv0P2pKVWVIUldQ5Y8VTXOwb9UmwMERB/kIGCiXVzh3MoT1CeUi68TGBty1hWIYOwnmRMmc1j8sELDtbdRbac6g3rIKqOojxAyS1/7FnjmDWGuZdRToVlVpaz5IxmXyvURuPffuafgO4dylB1uZtU6kF9HeWkHG2J1kLWubHs63uR+k/7gkMBRduiesY50sF/NuoLa5HS9lLveOnGOpTdlGUofqSURA7hyTv7sAodsmYsbZyuIU+KT/oA+hOuwYKwkiU2KGPFlGvkrf7PORRidX+CHN1nMUMAL+lQyLG+puLRefY6p7TBjHaEuGqedRiOFY/SVbc3tNHct70cL9hoQ3Dwpt/CqUzgyIsh1ioNy9h8WUk/wMtA2n7Cozw84IADUlFMezER93x73WnlH2Vw3XfRZimtmfB//4gFLwl5gcu6qeN18K+Z8rKRdbpVXm25pIdyxlGG1DfOUZZ6HqFu8UzEnms49son51Fs83xxXbzIwxFfHScKXdpo1s/lGQOFPmWEAhZ/KKS1BjEvJSjH4comljloXk6QZ8oW1rwogR9lS9mz9q/WM8+EDfNDPuo0D+PVl0zABPpIwIrWPsK1aBMwARMwgcEg0B4Adss1D/M81LMxUEURI8eDOg/Y9aBR10a758GaAQaDZBz/28oerpMO9jyMc1yngwFJr7ww+OvlUH7WD/bI0ACmVoQxACPeXg4ZtZxu/hi01Erq2g8KL1mXkIaxKrDhMhqnNGKFUoeprX5GkkM4GLGnHOq8wwnrUT44g+KFwfVRRx2VH7pi0Eu+sHxlcIdfOeS1nc4pze3rKDRkyaa6gR/CSSHIf6yApGDpJYtB6ngdMmHBfRDTZxsxtcKkOdnjQGXPZSlOOIaR8sj/bo7B9XAOTnzYhg9eoRyJqar5gRWsrFCqaHCNRRj+cOSH+q57inuBD3fJYSVexwt/lNV82AurXhRVWC+jcBnuvpG89p4yVPm3r/n/xBIYLWfKuHa8wKBsqSu8YMCispuT/F73Xh0GWXW7S92lzUSGwtfp4BwKJNUx7qP6/qllcx/VYblWy6z7sDo+2krdn7ThKH/bcup4arnt8/qPpR+uzaadf9pMttE67u/ROOWb+Oo2C+Ue22gd4XGSp/zAmhehKMEpTxRwfHAqloFI5R7hYr3nVPzRV4zGSbbiqsPU1qz1edpkNhxpouwI35ZFeqhDWCrXLxBqWaM5RjZ1o67D9INjeQmhMmSvY9JOuki38q+90sULufqlHG03W11XeZH23ve+N5W5zGpBKYoSFFl8XJFnMOo4StRaFnzETPHRV8T6+PmXa2zcKyh6+XAcsxroA/jQI7NayEMvh3yxq/2oXOpzPjYBE+g/ASta+8/YMZiACZiACZhAEtBDNopJpjwzIEGZxZRALDawmBvJ8dDPwzSbBgAc4xgMMKBmgEJcWHjgh8EP/7mOX1lYcI7pjXIopOoBhc6PdY9cxYuCTo7BJ4PtejCua8qL/vfaK+/drqNQUN4YkPBFYCywRuMok3pQ1CuMWHMd5TPxkSfOY3Gj+HuF13ksuuBQy4Nb/R9ZDGopF6xjsCg96KCDsiyxpEF5MBpFay1T8WvPtfq6lC1crwfeKIAYQMKo9k+acZyrranz5Bh/iJtygKuUvFii1XkcTiSspISv6x3WTShCNFW5m4yR0k5Z8OVnrOiwtEIJynIBTF1m2rCU+nwRW1bRYql7CkV8rLfXRM992s1aV9y5Jxhox3qWw6a9EdjlQOXT5ZJPTQMCvOhCkUb7j0KE6dJYzKnO1O2i2lSVaX0f1lmh3tVtGfctFpTcH90ccqjPUoTSdvICYbSuVzoIr2t6oYPSi3joC1Ay167Oax2WY/KsfCuMGPFfbNgTZ33/z4kZF1ifKy0K32vPi42R/Oq6lFjkTw6rSbbRONo7XpjhJJM8yHGOjfJko/3B0pi+hhkoKMRZLmgkRavYai/59b7mWZ/nBRsbLzIpP6xpuy0fofZOzzS1jLEek2e1g4Tl5dNoXziRD5UhfQn9LMpL0s4yCPS9vRz3ST1LBVltLvRHKEi/8IUvpNxYD7jEOvtpOasXaZQTyzvUilH4qIy7xa+yJs3rrrtuzm5hNgsWzywZQf/Bc0AvJ/69rvu8CZjA5BKwonVyeTs2EzABEzCBASagB3YGZ1izoQREaYOilalh8RGMHODywIwf/OvBXINMLEuwmkCJyjkUS1hEoNzhoZ5BBINmXHzJtglfY9fgkAFRfCG3ucTD/UQ40q2HfgaFsvbDOpEBjwYcpF/+OGYgR9pwyGAQquujSRdrDUpBQPj4mnzZOdZIw/Efp7wTXz2g5TqDyeEGoimg+kFxgSWYpinGl5hz0Iwsyo04cCrDukwVH9exZGPwin/OUw4o9jjGyS8KmPjoSg7oUHwSbk4oEeQUn/4TnwZvuqa0yM9w+/iqcnMZhTz5ZLAvWVxUnuAWH1Br/I/2QOVBeDbkM4jX8gHx4ahcl5Y4SbuYSL7yyHn8SJkKQ6y/cEzBxBqKASxx4JCFf8IhQ3U0L/b4QSbLNXDPoriNj4XlmqosB4Bc6gJrXeKUL4kirjPPPDMH+jp3xBFHNHVD59grjRyjmGWAzdIF7bxzfSRHvHbTlwBtHMp6lomgznzzm9/MpUNQ1Ole5Tyu3RZiSY0CRtdZG3ju3LlZf1BM0YagXMISEgWTFK3UCWRTz1Q/6Adklck9yFIDE+nUNtPn0IfRF7SXM9A9SbroC+Rol9t51zX2hNN17bX2ONfpI+MDUtm+674kDsKxiR9+ucdQzA13r4mZwrOnbdByASjDWD9VbRFy2444CUc81AGcuFAOxEGfjsU7/vhPmvGvZUxQtHIeq0rCdnuBiVz8sOHEh2Od43g4h9Ka8tPLqPPPPz9fFCtdyNExclCij2UmQjtulVG9dAWKywMPPDDbWOJiw9XlKDmEp60nXbzIQDFK38V52vk50WfCkeuEr5nQD+N3JMcLQNZnpZ+iXedFG0s7qN/i+U4K9JFkqS6QHqWFY+owdRdFKwp1Zj4Np2gdKR5fNwETmFwC/3qCn9w4HZsJmIAJmIAJDDQBHqYZOPBxIxwP+9/61rdyOjIP3TgNJPJP/PDgjSUQStZ99tknP4jxnve8J9eM1ACLAencGGhrkIhfDXg0OEEOjni+9rWvNRatDKZQIk20e/azn90MHrD8Q+lF/kkje/KOw7oPJeKee+6Z21e/+tV5GPRKGzLIF1PXNRBBoYulD8wYrGBxxOALRSx78v+d73wnp14y/RKLMg1yiKfmj2xxU1z8Z027Whn5gx/8IJXdDLCJgzi1MfhkYHZ0fPCK+GQBSTynnHJKrtWJlTPr36Fc47ziFSPSpWPygUIEhz/O1+nnvwaT8qM8ZKBR/MQXrhsLXZT2pF8O+aSRODhmqjtKouFczZQwbEozaeOYlw8oEuRYC49r4kgd1zEKCabwU4+PPPLIIR/RqtN+zjnnFMqG+FTvFB/xYB3Mx2dGcrzI4J5FBo6BNUpWlhPAcf8o7cpXXogf6tu3v/3tTIPOUTdRhLU3tQH4ww/hSC+b3ewiQD155Stf2bQjWNQxLVlKLeqaNuWc+4hlXt70pjeVd73rXdkXfOhDH8q2jTqOw4JTL52uu+667DeoZ7rv8IMcNhR2tIXUNRwf7Wtbm+aFcf4QJ1PgtbQIFrbct+zbjjrOOsjqB8gfLzY4X7cf7XDt/1g0yqqVtgkZtBu0mbTNtNFs9J20t6x5TbtMO1FPWW/LJS+kRZxJE/9pb+SwQuRFmOIhXvUHKL+xWiYu2i1e1qg9IV4+KEgfQF/AR69QTNdxqczqNoIXPMjF1WlTetpp1nn8jsZRbvWHHOmbUfopLYqTeNjI23DrvRNnXZaqd0qLrmGlq2cb+h/uCcpM7b+OYctLPpbXYaNuIZN00T/z0gEHM2YQ8NIBRzzcf3X6yVs9yyc9dvnhRYg+isVLAcJhzYrCm36Cj3m2+4AuYvIU/pRnlQn/eWbQyw/+19axvWT5vAmYwDQiEDe0nQmYgAmYgAmYwHwQiIERI5ZOKFk6YZ3aVVIMQDpsOPYxEOjEA30nBhOdeIjO8GFx1Nl33307MaDoxLTwTjxkp994eO+EVVInBmadsNBIv8QXViadGJR2YgDdyA2FYScGtekHuTGI74Rys4MMxRuD9E4MhjoxmG5kheVgJ6wxUg4/MXDprLbaas31GFg119oHYQXSiUFP+o1BWScUnOmFPJKX+CBEIyestzoxCMv84ykGP50YqHRigNQJhWj6i4FHJwa+TTSkK5SaeQ0/oZRurokrcuAQyq9OWLCk3xiAdWJtsw75rRmFMqMTA/hOKO06MXjpxEC1Ex83Sj7IQSYcYcxGuZx88smZVsUnlqEESxn4C0vMLKNQIKQM+Q2lauc1r3lNJwaN6TcsXTrxgYv0Q0ZC0dcJ66UmvrBQ7oQVSxMfHElzfI268ROKhPRDeMVDmSrNYQ3UCQVDEwf+5D74wQ82/mIduU5Ye+rSkD35iC9IN/UTrqFMzbSIUyi0O6HE6Gy77bYdyk3xwzQ+CjNEHuUQ1lvpB/ahHO0QnvRLHsdnnHFGJ6aNpj/KO6zROjGdM/3gDx4xCO3Eh8M6lDFlyL2gMiTSsOrOe0vpiRcbnRNOOCHvK8XF/XXJJZd05s6d2wllR5P2UPZ2wjptSNr1h3KIdVTTL/nVPRSKjk4ooufhTX5wocxp+MAmLNjzPuFe6bbFcgFNmuJDXdlWSJbS0mtP2ZNv2qOwhOrlzecnkECsqZzMaZ+pm2NxtE1h3ZztEeVGfaZPCUu5rPehbMv2i3rPPRmK/U5MXW7uS+peKF2zjccP9Zvtne98Z1PnaMOo/9zrqkfUf9pi2n7Vf+4n7lvkyO26667NvUE8tNfdHPL23nvvxu/uu++e3oiP9ISSq0NaySP3AG08eeO6/JAe+kTdt1tvvXUnLAybPMXa1M01+pW2U964T2M6d+M3FM95r8Na8dEnxsu/TqyvmczhHorOvGdILwzoh+lDlZ6Ysp/9MtcVF2mgLycO/NHv0obTLyJDZUJbFwrt7E+Ii/4g1uFs5OAP+YqL/iSUd81zANdhTDundgcZtDtypIm00GZIzsc+9rGm/8cfcnChvOyEIrLxR73q5shrKISb/pkypM7wTEBdECvqfSgcO7EOaiOTNOy4445DxML9He94R+OHvkx9Jh7FljKknqtuhmIz6yscyQMbskKx3Qnr6KYMY/mWvF9ggSz4qN7Bi3pB/0BYHHJCMd6JpQCa/knseE7o5pB72GGHNXLpr9Rn0Z+QdtWzOjx1YrPNNmvyTn2QP+WbOspzJP0b9YS08FzFc9xonZ65uO9V3qMNa38mYAITQ8BLB0TrZWcCJmACJmAC/SYQ3XZjtYB1AlYMWIrwUSOmnGMdxxRPlg/AygXLTKbO8cEPzvPBBX2Ih7QypRArJqaLxoN6Jh+5G2ywQdlvv/3K6173usZqk6/WsqYYUzWxhMKCB6uPeLDPcKQDKyqm2E2kI49YRpGeUGilBdMPf/jDtBjhQxFYhMbAMb+qi3UPFj3kgbUwawuhkdIEW6yC2Fjndq+99iof//jHc/opVr9YNG611VY5/ZF1TZlui6UkcROG6elwRA4OnnNieiGWM0zZg/9HPvKRtJrBopLlGViWIAZB+cELvjiPZSNLQIRSIj9ewUeNYpCTYWHN9ELkEl8MPLN8ySuOcg5FbDnkkEPSEicUIjl9kSnFyGA6ItbArAmKwyprt912az44UsuJAWXKwKKIj2nAg3RiIcV0RuIfrcNiKAZ7Od0SC1zWrnvjG99YQvmRX1OGD5ZiWPIQH/GoTnWLg3SvGpbcWEPBni8qYz2EHKZ48pERrPDmhlU2+ePeoE6EwijvD9bcZVkB6nAovjPeGHRnVLAKRUcTLfKUdtJN+l/72tfm+pcwYbruVVddVWDNUhv8l6xGSJcDrKOxQKQ+xwC2sX7i3mJpB5WFglLmnDv22GMbNtyjocBuyo96x71SO8o9BvJZh0kn03W5T+1mHwHuSeomdVRLg9BmMz0ZC2msCbH0pn7Gi6tCG1qvI0nbQRtLHarvb6xCsQ7Fsp82jD4hXojk+pXc29Qr7l3uYRxtWyhKsy1s1+P5oY4s6jj3DWkPRWFa63GP0++RR/o57kPuE/KO417Dapcp9ITvlSausZF37jc4YM16YEw1Z7YAU6/5oBA8d9lll2y/8UO+6XdgimN6PLNFYCNH20SbpTyQdqxsdS/SlhOO/5QBMyNCyZb9K3xZ1ideWOa9j1Um1p6UBY58E175Ik2U2Rlh8QoL+pOdY+kb1v/UzAnaTmYOcA2HVSVtnxyyaDtoJ+WwtmTplFBu5ynySFyjdXClP6bNOjpmZNDu0d+xVAJtHv0h7TRlSbscisK0sMVfN0c/ARO1uchhHWqeB7iGJSvrFtNfwJT6wMwc+nHSQT1iqQbyygwZZgMx5R83J/pt8kc/iMMP/Tt+ZHFKGVBO22yzTaaD/vXUU0/N9FOPYDNcP4ZcmMCDNdOxkKXMcdxDrNNN2oers+k5fuCF9TPpZIMd6cEqWs8M+CUu+NiZgAnMIALRCNiZgAmYgAmYgAnMB4HRWLR2Ex+DwrS4iPX50nIwlEyNpUM8SuRxPHwPOYdFRqzdlZYuWHbgkFO7GPSkxWZtJYk8wsYAoZGHlQeWLzH4nUfG/Fq0kiYsKdiTzlAKD7HaJF9YK2IJqzySnph+3YEH1h04wmNt0rZobee5zj/WKlhhIVsckR2Dn8ZqTDzigxWdGCg18UkOViWhAG8sViSHPdZrMMaRR9Ibg/gh1jCwDuVBMlfYGLSnTKxdcOSR8LJgwZJLFp+EoazIQ11myMBqDAugtsOiiHTU/hX32972tsaqdzQWrUoXVj9YEGMxWsvlmDxKPtau7373u5v/3SxaSW+sXTgkjwofys8sB+UJy5+Ypt+p7wmVYc2IY6ye8I+r6wX1DislrAxVx4gvBtKNpRD/uU9iQN+kfTiLVuKIgX9THwmPbCzTejnShjWW8vrRj340y5606h5ph+U894LCYEmo+73tt/3fFq1tIv3/Pz8WraSOuoD15FFh2Y8lI3VUZa86Vv/nOJSJnXjxke2jZNQ5pX3B2i+mOQ+p79y7odBq5FN/kRVT1RtZtZxeFq2kWRv+sbbsZtGqOk56sN6PFz5D4ucepm3m/lYeaU+wZJfVIfIJ382itU4D/mqHBX4o5Zr7n7zSptL3qD3jXCjo0sK2jk9y6Atp/5S2eg9fOe7PeFGafpGJP+IgLtptnaNsSROzL9r3NPFjKUl88o8c2tq63UNGKOCb2SMwkOMY6+Xaf51mrIhxo7VolVwsWEPhN4/c+rmCMsSaMhSiDa+2RSvymAURL5MbP3X6mLkjR93B6jOUuU154Ree9A0qQ/bcNzzLqAzFhD0zCph1UdcxcRVn7olYY3uIxaksWmtZSpueEeq0h4K4Ewr2If2Q/LOnL6gtWkk3adLWvu+xMI+Xuh1mxeBIB0xGcrZoHYmQr5tA/wnwtsXOBEzABEzABExgPgiMV9GqKBlAMgUvLB9zIMOUfQ0geIjn4TusVHKAyuAz1txT0J57HsbDIqITa6Q2U/7qAQHTJVGMMSWbh3fSULu2onW4aWsMHqTUDMueHPy1BwP8Z2DJYIdBdZ0W8kd6wvp0yIBCaeq2dEBbfp12jhnAMshGwdUecDIwpMzCojIVC+RfAynJ4T/5OuCAAzqxxtuQNEvRWoej/FimgMFve7DEgHCLmFZKeqSgVTzak1cUymHR1gnr2iFlRl1AcRlWuZ2wnm2ma7bTjCyWC4j14TphhZXT6sUZRasGoL0UreJdp4k4OB8fEUmFJkoDyWTP/7A0zemsKLh1rZuiFTnUt09/+tO5vIWmWhKmrWglDQxkjwrFE1NLa6Uu/ll6gCn88AoLMSV5nkEo9QRlCPWOwbnSxx7lEorpsHZL5amujaRoJV31FF+m8aJA6ubgF+u/NvWHAXVYZ/VUsNYyDj744EbZQpqYTjoaZ0XraChNrJ/5VbSSGu4Ptvj4WbY71O/2/YbiheneYemY7XuvafzKHfK4L9///venMrHuV6jvtMUs5xIW8/PcO5LRS9HKvYV8tUO9FK1qQySP9jxmUHRUT3Xf6Z4kPTHrIBW3CsOeuLopWms/3Y6vvfbaTljzdriH6rg45hyKwPhwXsrvFp5z9M0x0yKVebWyrla04g8mtAUoJFEW1/HRL9C30xbTTst/HlQ/yIgZLLncDFPi6/6E8kdJ+5a3vKUTH8RsQhFGDt78/9znPpdtJ+1cXe5jVbTCXY6wvCiiDkpBqTxyjmcK+k1eDOk8fOt6Ilm0u5Q1zwx1+14rWvFLWJSXvFTgpVgdL8e8SKOOqixU38SE/7TZvMjgZQIvqpU29sjgZcQHPvCBXD4JZauuS9FKeHFV+pHPfQNf+WdJBM7jt3Zi2Fa0Kly9554njdS3r3zlK/nMoDzVMoc7tqJ1ODq+ZgKTQ+ARRBM3t50JmIAJmIAJmMA4CTAtm+ltTAVkWjpTHcfi6IrjYT+nPTLFLwZQObWSKWXx0J7LBMTDfE4HZJoiTt13DMLmiYpr8WCfMsPKMafdMcWOKWkxUMvp/ExXZ0pkKEgbWaRBjqmAfO2cKd44plvjt5sLpWZOLyfOUGqWUJrmVNDabwwUMh7S84eYqols0hPrueX0vRjw5j4GsTl1T/kjTTHIyanapIX8MoWOaZAxeMw81vHUx6SHaX1MtyROlg1gSiXTFomP/CNPvIhbTumFP2HhIRYsscDUReLHiRscYiCV8YUyPD9kwtIJxMPUUsqOuLqlW/klXsqfqaF8/RheLBNBupkOz4aTf9JPPnGkA9nkkyn5YfWaH+fgGjKY4okfpiiz4cgL01KVF/HAH2lR3vBLefFhGXhyTBnwoRHKA56UUygs8JpTN2HElGAc8kkzG0yJnyUAQlGU52JwmV9pjgF3xlnzZ+qvypAw5IWp+rCFK+UmHqRXx8gQa2RwD7DEgabRcg+QfvIRLxZKWHdnWikvlpbo9dXoUFjnlF+WhMAx/ZePrJCHtiMNlKM+SgffsGhqeLf91//Fm/yQL5ajYGrqSI7yhBftEdN5e923I8nx9dETCMv4rDPcn0yFZvr2/DjuJdoutQMsFUC/wv3KRv2nXOv7s1t81B3qIPKo+7RloXjMZQhIK1821z2AP+qnnO4jwnH/4GjDuN+Jt+2fOLivmfYuv8iunWTSltJGck/SZtIm0C6Trzkx/TtewmQcapeQgR/uJdKPo22pP9KUJ6sf2kW1O7QbtIkx+yDTBzu1H7SL8TIs2w21H+JAHtk4T1tM/KFsbNpcPooUyuomVt2rLA/APc/yAbCj/4YbzNnTT8rVZVi35fQ5pJl4qQukibaJuqXyR4aYSp7OUR7UH+Knb5I/PtqHLJbFoR8mP7h4+ZgcSIPyz3mliWPOU3aUAX0BZUibTTtMuwNTnjGoZ7DCkV76ApzySlooT8qF+kJfxX8ccqjr8ss50oAflntgo4+EISypk9RjyhCnfCo8/5Un+hvSpnrAUgWkmY+10a+QBqb+s8wAjiWVWKKploksZLOxnA/T+ikr2mb6P+pE2xEe/5QDzOmjeznk0Jdwn8MO5nX8vcLV51kmiCVDCE/51+VZ+/OxCZhA/whY0do/tpZsAiZgAiYwIATmV9EqTDxMs2lwWT/Q85DOgI9rGjQoXLc9fpGlh3QNFuUXeTj2veRxXo54FUbn6n3tt9tDPdcJrzQpTtKF0/laZn3clo9/NrGq/dbH8kfcYsA5XDudOl8zUfokEz8KpzzomvyqjHRe+dae68jhPxuOsPU5zku+9lzXpjQQlnOKW+f1X9eRJ1bIU7xc13mOcYqv3hMHCs06nfhVWKWLvRxp0X/Fp/D40Tn54RzydJ7/ygfnFAfH+t+OnzBy+K/lKe5avsKzhh9rXeL4Yjnr7qLM6OZYL5V1AlEqMdjnS+Ws99fN1Qy5TtyKs5v/+hxhcUrvaMNZ0VpTnJzjiVC01vdBXe6qt7q3VadGmzPC13VH9aqOQ8eqa/xXvBzLqf5yjWP513/do/gnTl1XePzpGnv9z5PVD2Hb+UR27V9pqYLNc0gY5CitkovHOjxya0a1IK4pvOJXWbXzWKe59kt4hallKQ2KHz/yV6enlkvaUAjqBZPSx3nCqp7wn3A4ZCk9/JcfXVc6uNZ2xKXr7OUIy39t+FOalQf8thlxrk6L/CKHY8UhWfKveEaTZsLUDrnaJJ/rxIE88UCxHR9Ey/VguR4fbMsXaRzXTmlgzfKjY91aHGvBsv4rimZcnf488e8f8q481+c55jzheoVt++/134rWXmR83gQmj8B/TDcmL07HZAImYAImYAIm0IWABhK6xMN2PYjimHMaFMhft309mOC4HUaDjnrAIzlc43wdptfAgDAaHChOBiGkk/8akGjggF9dJ6zOczycU1okD9mKb7hwXJNfySANw+WHMPLLca801n7a/rhGHDUD/cdvO+3EobIWe/yTX8nAD8dKj/Kgc3VZyg9xtZ2utdMgf8qX9vhXXAorv4oTWUoHaVZY+av3uqZ6gEyVK/50XunTdYXDT82S/4qf9OAfK7BYnzUtuvjPB1JqC1XCK+3EF0sjICYd1rndrFO5iDKBD+xgUYVDqfnMZz6zSQ+y6nSmp3//6LziJQ06V/vTsa7Jv857P/sI6P7qljPqb+1UL+pzwx2rrktOHZ5rbFxrp6G+p+owxCVZire+V3Wu274djjgJq319vR0n/trnusXRPkcY5ZFrksE5xasw3e5f5a3dLilMvZdsztV54T9x4ZRfrkt2Xvj3D+cUF2G4/2u5eKtl47/+X8viWGG1b1/vlQ75U7h2WnSetOIkR3nqxlIy8Yu8tp9e+ZBMwrfjlcxe+1i6Ja3NuY6V/84775zKUKVb8riO5bAssvnP7JxujjD0Acx8wGFNy0fJsEYlrSpr9nXa8dsrj1xTOI5r101Ofd3HJmAC04+AFa3Tr0ycIhMwARMwARNIAjyg1w/p9dT2kRC1w7b9D3eda/Xgg7DdBnuSybV68EBYDaDactr/JWO0+/GEbw9SeuWd821X56t9baT/YtYtzVxrx6e45H805a28dSuz4dKncMP50bVevLiuNMsve6Wf4155bPurw9THkl+f6yaXczj5hx1TW/k6No7pk4ceemiz9IJ4UQ6nn356fpUaf0wlZZmMXopWprpi5UT9Ji6+nI4Fk3i206n/2hMH4RSe/yM55Wkkf74+swmovZjoXNR1ry27vrfb8eveHS685Mmv/o92PxrZo5XVzZ/SpX3th/zq3tK+W3oUlmvq12o5oz2WHPzXx/xX/BzTlqjtx1+3NMk/19uykCHXLayusR/pOn6QDysd50H100tGr/MKilzlU+d67bvlcST5khVrc5evfvWr+ZelG1jGAavVdniWUIiPmeVyCHhmRkMvRSsv3I455phcQge/8RGsnNVQs+J8+57i3HCuWz7xP1Y5w8XhayZgApNDYOgr0smJ07GYgAmYgAmYgAmMkgADql4P36MUMSHe2oOSWijX2mkczn8dtt/HpEuD0n7H1ZY/HIOJKNfx5m284dr5m87/Wb9x7ty5zTROLI922WWXXEOZNVpZ7w+rV5Sm8aX0VMSSHyxU48M5zSAcxYocCpD4wFyuEcg51gVkiiZlOdY61u2eUTzeDx4B7snh2ovJIDLV8U9GHus4xnMP9pvRdG2b1caNtZ2reU/VMWtvrxbr/+J44fbOd76zxIfCcp1Z+gHWS73ooovKXnvtVU466aT0x8uz+LBVz/WtkcN6/OofWDqEddTlVE+01/nx7idKznjjdzgTMIGxE7BF69iZOYQJmIAJmIAJmIAJmMA0JoBCgPXz+HAKH6riwzAoW9mwcOJjO3xsjg9byWHtFF/Uzg97ca62eOM/HzyJr0A31qvbbrttfkiIa3YmYAImYALTjwCzEw4//PCyxx575AfhWB5g3333LW9/+9tzhgN9AB8elEPZvcMOO+TarL0Uy+ecc04577zzMggfreLlHK6X/7zoHxMwgYEiYIvWgSpuZ9YETMAETMAETMAEBoMAVkkHHHBADqr5+rIGwXxtm/X1pGTFWogP2h111FFlq622auAw4JbDmvVXv/pVfq2a8yhrX/7yl+cXt+XHexMwARMwgelFgHafmQeHHHJItvMLLrhgJpA2/eabb26UrLTrKE2xZD3ooIPyZVy3nBDuhBNOKA8++GDO5HnhC19Yll9++WaJBVm5dgvrcyZgAoNDwBatg1PWzqkJmIAJmIAJmIAJDBQBpnN+4hOfyOUBWCbg8ssvL3/5y1/SOnWhhRbK6Z4oV1GaMsiuHQNvBtVan/CBBx4o22+/fXphYL3ppps2yts6nI9NwARMwASmlgBtNxvtOMrW5z73uWWLLbbI5V9Yu5sZDViyohhl3da11lorLVM33HDDYdt11nKdM2dOfmARpS19hz6CRVz0F4p3agk4dhMwgakkYEXrVNJ33CZgAiZgAiZgAiZgAn0nsNJKK5X9998/lxBgTT7W5mOQzAAby9fhHINnNgbqbAzM+W9nAiZgAiYwcwjwcm2bbbYpW2+9dbn//vvLHXfcke05a3qzxMBo1kJlNgMv71CodusHup2bOYScUhMwgYkiYEXrRJG0HBMwARMwARMwARMwgWlNYIEFFijLLrtsbqNJaLdB82gG46ORbT8mYAImYAL9IUDbrfZbe8WEhSsKU7bxOi1F0w7fjqt93f9NwAQGg4DXaB2McnYuTcAETMAETMAETMAETMAETMAETMAETMAETMAE+kjAitY+wrVoEzABEzABEzABEzABEzABEzABEzABEzABEzCBwSBgRetglLNzaQImYAImYAImYAImYAImYAImYAImYAImYAIm0EcCVrT2Ea5Fm4AJmIAJmIAJmIAJmIAJmIAJmIAJmIAJmIAJDAYBK1oHo5ydSxMwARMwARMwARMwARMwARMwARMwARMwARMwgT4SsKK1j3At2gRMwARMwARMwARMwARMwARMwARMwARMwARMYDAIWNE6GOXsXJqACZiACZiACZiACZiACZiACZiACZiACZiACfSRgBWtfYRr0SZgAiZgAiZgAiZgAiZgAiZgAiZgAiZgAiZgAoNBwIrWwShn59IETMAETMAETMAETMAETMAETMAETMAETMAETKCPBKxo7SNcizYBEzABEzABEzABEzABEzABEzABEzABEzABExgMAla0DkY5O5cmYAImYAImYAImYAImYAImYAImYAImYAImYAJ9JGBFax/hWrQJmIAJmIAJmIAJmIAJmIAJmIAJmIAJmIAJmMBgELCidTDK2bk0ARMwARMwARMwARMwARMwARMwARMwARMwARPoIwErWvsI16JNwARMwARMwARMwARMwARMwARMwARMwARMwAQGg4AVrYNRzs6lCZiACZiACZiACZiACZiACZiACZiACZiACZhAHwlY0dpHuBZtAiZgAiYweAQ6nU5hszMBEzCBySTw8MMPZ9vj9mcyqXePy2XQnYvPmoAJ9I8A7c4//vGP/kVgySZgAqMm8MhR+7RHEzABEzABEzCBYQnce++95YILLihLLbVUecQjHjGsX180ARMwgYkk8M9//jPF3XfffRMp1rLGQOChhx7KPmCxxRYr//VftmcZAzp7NQETmCACd9555wRJshgTMIHxErCidbzkHM4ETMAETMAEWgSuu+668sY3vrFgWWZnAiZgAlNB4G9/+9tUROs4g8Add9xRdtppJ89qcG0wAROYMgJ33XXXlMXtiE3ABP5FwIpW1wQTMAETMAETmCACTNnCkuDBBx+cIIkWYwImYAImMFMIMHUXZausi2dKup1OEzABEzABEzCBiSNgRevEsbQkEzABEzCBASew/PLLl1e/+tVloYUWGnASzr4JmMBUETjssMNS2TdV8Q9yvIsuumjZbbfd3AcMciVw3k1gCgnwkueYY44pN9544xSmwlGbgAlY0eo6YAImYAImYAITRGDFFVcs++23X1lhhRUmSKLFmIAJmMDYCHzve9+zonVsyCbM9+KLL14OOOCAstxyy02YTAsyARMwgbEQOPfcc61oHQsw+zWBPhDwKu19gGqRJmACJmACJmACJmACJmACJmACJmACJmACJmACg0XAitbBKm/n1gRMwARMwARMwARMwARMwARMwARMwARMwARMoA8ErGjtA1SLNAETMAETMAETMAETMAETMAETMAETMAETMAETGCwCVrQOVnk7tyZgAiZgAiZgAiZgAiZgAiZgAiZgAiZgAiZgAn0gYEVrH6BapAmYgAmYgAmYgAmYgAmYgAmYgAmYgAmYgAmYwGARsKJ1sMrbuTUBEzABEzABEzABEzABEzABEzABEzABEzABE+gDASta+wDVIk3ABEzABEzABEzABEzABEzABEzABEzABEzABAaLgBWtg1Xezq0JmIAJmIAJmIAJmIAJmIAJmIAJmIAJmIAJmEAfCFjR2geoFmkCJmACJmACJmACJmACJmACJmACJmACJmACJjBYBKxoHazydm5NwARMwARMwARMwARMwARMwARMwARMwARMwAT6QMCK1j5AtUgTMAETMAETMAETMAETMAETMAETMAETMAETMIHBImBF62CVt3NrAiZgAiZgAiZgAiZgAiZgAiZgAiZgAiZgAibQBwJWtPYBqkWagAmYgAmYgAmYgAmYgAmYgAmYgAmYgAmYgAkMFgErWgervJ1bEzABEzABEzABEzABEzABEzABEzABEzABEzCBPhCworUPUC3SBEzABEzABEzABEzABEzABEzABEzABEzABExgsAhY0TpY5e3cmoAJmIAJmIAJmIAJmIAJmIAJmIAJmIAJmIAJ9IGAFa19gGqRJmACJmACJmACJmACJmACJmACJmACJmACJmACg0XAitbBKm/n1gRMwARMwARMwARMwARMwARMwARMwARMwARMoA8ErGjtA1SLNAETMAETMAETMAETMAETMAETMAETMAETMAETGCwCVrQOVnk7tyZgAiZgAiZgAiZgAiZgAiZgAiZgAiZgAiZgAn0gYEVrH6BapAmYgAmYgAmYgAmYgAmYgAmYgAmYgAmYgAmYwGARsKJ1sMrbuTUBEzABEzABEzABEzABEzABEzABEzABEzABE+gDASta+wDVIk3ABEzABEzABEzABEzABEzABEzABEzABEzABAaLgBWtg1Xezq0JmIAJmIAJmIAJmIAJmIAJmIAJmIAJmIAJmEAfCFjR2geoFmkCJmACJmACJmACJmACJmACJmACJmACJmACJjBYBKxoHazydm5NwARMwARMwARMwARMwARMwARMwARMwARMwAT6QMCK1j5AtUgTMAETMAETMAETMAETMAETMAETMAETMAETMIHBImBF62CVt3NrAiZgAiZgAiZgAiZgAiZgAiZgAiZgAiZgAibQBwJWtPYBqkWagAmYgAmYgAmYgAmYgAmYgAmYgAmYgAmYgAkMFgErWgervJ1bEzABEzABEzABEzABEzABEzABEzABEzABEzCBPhCworUPUC3SBEzABEzABEzABEzABEzABEzABEzABEzABExgsAhY0TpY5e3cmoAJmIAJmIAJmIAJmIAJmIAJmIAJmIAJmIAJ9IGAFa19gGqRJmACJmACJmACJmACJmACJmACJmACJmACJmACg0XAitbBKm/n1gRMwARMwARMwARMwARMwARMwARMwARMwARMoA8ErGjtA1SLNAETMAETMAETMAETMAETMAETMAETMAETMAETGCwCVrQOVnk7tyZgAiZgAiZgAiZgAiZgAiZgAiZgAiZgAiZgAn0gYEVrH6BapAmYgAmYgAmYgAmYgAmYgAmYgAmYgAmYgAmYwGARsKJ1sMrbuTUBEzABEzABEzABEzABEzABEzABEzABEzABE+gDASta+wDVIk3ABEzABEzABEzABEzABEzABEzABEzABEzABAaLgBWtg1Xezq0JmIAJmIAJmIAJmIAJmIAJmIAJmIAJmIAJmEAfCFjR2geoFmkCJmACJmACJmACJmACJmACJmACJmACJmACJjBYBKxoHazydm5NwARMwARMwARMwARMwARMwARMwARMwARMwAT6QMCK1j5AtUgTMAETMAETMAETMAETMAETMAETMAETMAETMIHBImBF62CVt3NrAiZgAiZgAiZgAiZgAiZgAiZgAiZgAiZgAibQBwJWtPYBqkWagAmYgAmYgAmYgAmYgAmYgAmYgAmYgAmYgAkMFgErWgervJ1bEzABEzABEzABEzABEzABEzABEzABEzABEzCBPhCworUPUC3SBEzABEzABEzABEzABEzABEzABEzABEzABExgsAhY0TpY5e3cmoAJmIAJmIAJmIAJmIAJmIAJmIAJmIAJmIAJ9IGAFa19gGqRJmACJmACJmACJmACJmACJmACJmACJjCVBDqdTvnnP/85lUlw3CYwcAQeOXA5doZNwARMwARMwARMwARMYAAI/Nd/2aZiAIrZWTQBEzCBgkIVp32N5BGPeET918cmYAJ9JmBFa58BW7wJmIAJmIAJmIAJmIAJTAWBbgPuqUiH4zQBEzABE+gvgW5Wq1Kw0hfouL+psHQTMAEIWNHqemACJmACJmACJmACJmACs4SAlKsMqm3ROksK1dkwARMwgREIqL2vFar0BzpvZesIAH3ZBCaQgBWtEwjTokzABEzABEzABEzABExgKgn84x//mMroBzLuWrExkACcaRMwgSkn0K0d+u///u9MV/0CbsoT6gSYwAAQ8MJNA1DIzqIJmIAJmEB/CchagGlb3aZu9Td2SzcBEzABE5hKAuoDUGZY0T2VJeG4TWCwCdD+SKlak6CN6na+9uNjEzCBiSNgi9aJY2lJJmACJmACA0aAh1Y2DbIHLPvOrgmYgAmYgAmYgAmYwAwgIOvWGZBUJ9EEZjwBW7TO+CJ0BkzABEzABKaSQL0OIkpXW7ROZWk4bhMYTAJ66UPua4tK2ifapPrcYBLqb671so1yMOv+srZ0EzCB3gTqmVVql3r79hUTMIF+EbCitV9kLdcETMAETGDWE0CJUStaZ32GnUETMIFpSQAFn5xe9qh90l7XvZ94Am2Fhspg4mOyRBMwARMYHQHafjsTMIGpIeClA6aGu2M1ARMwAROYBQQYTKPg0CCbYw+wZ0HBOgsmMMMIqA3CmlJtkF4Ccc5TRvtboOJri9b+crZ0EzCB4QnouRRf6heGD+GrJmAC/SBgRWs/qFqmCZiACZjAQBDQQ+wCCyyQ+eUB9+GHHx6IvDuTJmAC04+AlKykjPZJylZbNvW3rB75yP8MqegD1Df0N1ZLNwETMIGhBOqXbQsuuODQi/5nAiYwaQS8dMCkoXZEJmACJmACs5WABtkoObw+32wtZefLBKY/AZR8WkaAF0BWsE5OmakPgL1ftk0Oc8diAiYwLwGeQdUHqF2a15fPmID/C6a3AAAdJklEQVQJ9JuAFa39Jmz5JmACJmACs5oAytWFFloo82iL1lld1M6cCUx7An//+9+bpQOwZkLRWls4TfsMzNAELrLIIplyFBx1GczQ7DjZJmACM5QA7Y9e+OvZdIZmxck2gRlNwIrWGV18TrwJmIAJmMBUE0CRsfDCC2cysGR66KGHpjpJjt8ETGBACTzwwAONNZOUf6wfasvW/lYIKTRQtFIGdiZgAiYwWQRod6Rc5TlUS8ioD5isdDgeEzCB/xCwovU/LHxkAiZgAiZgAmMmwAPtoosumuF4wH3wwQfHLMMBTMAETGAiCNx///3NIPtRj3pUDr4ZhFvROhF0e8tYbLHF8iLKjnvvvbe3R18xARMwgT4Q0LrQvOjBqhVXP5v2IUqLNAETGIaAFa3DwPElEzABEzABExiJANZiGmSjaEXRYWcCJmACU0HgnnvuaRSttEu0T3b9J7D44otnJLx4u++++/wxrP4jdwwmYAL/JsCLNL1M4xm0rWiVEtbATMAEJo/Afz6ROXlxOiYTMAETMAETmFUElltuucwP1qy2ZppVRevMmMCMInDnnXc2U0jVLnmQ3f8iXGaZZTISFK1/+9vf+h+hYzABEzCBigDW9ChbedmmmVXLLrts5cOHJmACk0nAitbJpO24TMAETMAEZiUBKTSYsoWiw84ETMAEpoLAX//610bR6kH25JWA+gBmNVjROnncHZMJmMC/CGj2AopWfStAL4DMyARMYPIJeOmAyWfuGE3ABEzABGYZgZVWWilzxJTRW2+9tfkYzSzLprNjAiYwzQnccMMNzSB71VVXneapnT3JUx/AlF3KQB+jmT05dE5MwARmAgGeQe++++5M6mqrrZZ7z2qYCSXnNM42Ala0zrYSdX5MwARMwAQmncDyyy9f+PAMg+ubbrqpYNVkZwImYAKTTeDGG29s1uebM2fOZEc/sPE9+tGPLgsvvHD2ASg6tEbiwAJxxk3ABCadAB8+vOWWW5olrNwHTHoROEITaAhY0dqg8IEJmIAJmIAJjI/AUkstVR73uMdl4CuvvLKwhICdCZiACUwmAaaM/uEPf0hl3xJLLFFkZTmZaRjUuBZZZJEipcZ1113nJWQGtSI43yYwBQRQsLKxNuvVV1+dfcDSSy9dVlxxxTzPNTsTMIHJJWBF6+TydmwmYAImYAKzkAAPtCuvvHLm7Iorrmg+RKCsYunqqaSi4b0JmEA/CNxxxx3l2muvTdFrrbVWQflXOz6WYtcfArBec801UzhlwFq5diZgAiYwWQRQpvKSn2dQHC/aWKPVStbJKgHHYwJDCVjROpSH/5mACZiACZjAmAjwEMvSAWuvvXZ+8fWaa64p119/fcpAucp1vgTLZmcCJmAC/SJw8803l9/+9rcp/klPelIuZ1LH5TaopjGxxywds/HGG2c7j6L1j3/8Y0ZA+28F98SytjQTMIF5CdDW3HXXXeWiiy7Ki7xs49mU9Vnd9s/Ly2dMoN8ErGjtN2HLNwETMAETmNUEeLjla68bbbRRWWCBBVKxevbZZ6cFK9fYcH7QndXVwJkzgSkn8Otf/zq/eE87tOGGG+aaoVOeqAFJAMzXW2+9sthii+Ua3WeddVaTc9p+K1sbHD4wARPoE4FLL700ly1BubrBBhsUlpCxMwETmBoCVrRODXfHagImYAImMEsIyFpgyy23LIsvvnjm6qSTTiqsl8g1XZ8l2XU2TMAEpiEBPr503HHHZcr4MJOsKznBx/lQ9NEW2fWHAC/UnvzkJzdrddMHYF2GQ9HKdStb+8PeUk3ABEq2L8cff3yiwMJ+8803d5vvimECU0jAT1xTCN9Rm4AJmIAJzA4CDKRXX331HGiTo8svv7ycf/75Xpd1dhSvc2EC054AlkwXXHBBppMpo1i0yor+kY98ZFrdT/tMzOAEokhdddVVmz6AD2KdfvrpjZKVsmDmg50JmIAJTDQB2heWjfn5z3+eovlmwNOe9rSJjsbyTMAExkDAitYxwLJXEzABEzABE+hFgEH0rrvuWhZaaKFy2223lW9/+9v5YYJe/n3eBEzABCaCwH333VeOPvrotKBkwL3jjjuWRRdddCJEW8YoCaBoRaG9++67Zx9w7733lm984xv5USzKhOt2JmACJtAPAg899FDBmpW1oZm5QB/AMiZ2JmACU0fAitapY++YTcAETMAEZhmBTTbZJC2aGFTz0MuaiXYmYAImMNEE9KE95P7qV78qJ554YlrQr7POOmXbbbed6OgsbwQCslZ94hOfmFN28X7qqaeWn/3sZ6lkRdlqZwImYAITSUDLkWBBf9RRR+XyAWussUbZbrvtPKNqIkFblgmMg4AVreOA5iAmYAImYAIm0I3AYx/72LRoYn0s1uf7yEc+khZNtmbqRsvnTMAExktAijssJz/1qU+Vm266qdDu7LPPPvml6fHKdbj5I8A63XvuuWdZdtlly913310+9rGPNX0AShEU5HYmYAImMBEEsF5lRsNnPvOZcuONN6ZV/U477VTWXnvtZumYiYjHMkzABMZOwIrWsTNzCBMwARMwARPoSoCH3pe97GUFy1bcGWecUQ4//PDCtC4PsLsi80kTMIExEJAlKy9v+MjV17/+9fKTn/wkJbAm30tf+lKvBToGnhPtlT5g6623Ls95znNS9MUXX1w+//nPlwcffNCKj4mGbXkmMOAE6A++973vle9+97tJgvW5d9lll7LAAgt4uZIBrxvO/tQT+O8Dw019MpwCEzABEzABE5jZBLBWwsqMdfqYuvXTn/603H777YWBNl+j5mNZDMI11UsWaTM71069CZjAVBBA0crU9P333z/bmaWWWqoceuih5QlPeIIVelNRIP+Ok3JBybHeeuuVH//4x2nNyscRV1tttbL++utnH+C2fwoLyFGbwCwhQFtzySWXpAX9LbfcUpZccsm0bOVFP22M25lZUtDOxowlYEXrjC06J9wETMAETGC6EeDBFmXqYx7zmLQqO+uss8o999xTLrzwwvLUpz61sLQAa/nxgOyH4OlWek6PCUx/AhpAo7zbbbfdyjXXXFMWXnjh8u53v7u86lWvyhc90z8XszeFtO24ZZZZJhUfZ555ZrnzzjvL+eefny/cVl11Vbf9s7f4nTMTmDQCV111VXnzm9+c3wLgBf9ee+2VH2RdcMEFJy0NjsgETKA3AStae7PxFRMwARMwARMYMwEUIShTN9hgg3LDDTeUK664otx2223ll7/8Zdl4443Liiuu2ChbEW6F65gRO4AJzEoC9QsYWcjTPtTnOT733HNzLVY+gsWLnVe/+tXlve99b1l00UVziRLO2U0NASnCKQPWSbz//vtTyYqy9YILLihrrrlmWreqjOqynZoUO1YTMIHpSkDtg/akk+Pf/OY3qWT9xS9+kc+Qz33uc3OtbmY22JmACUwPAla0To9ycCpMwARMwARmOAENsMkGxwsttFBhzcQ//OEP5corryxM7eKhmDW05syZk37qMDM8+06+CZjAfBKoB9Mo4mgfcKzDxzHK17PPPjs/uMeUUc6xHugXv/jFstxyy+V/KfDmMykOPgEEsCyjD7j++utTMXLrrbcWLFxZWoalZHghR9m6zCYAtkWYwCwkoD5Be/qA8847r+y9997l5z//eeb4Wc96Vvnyl79cVl555VlIwFkygZlLwIrWmVt2TrkJmIAJmMA0J7DIIouUZzzjGeX3v/99KlwZaJ9yyik5vXedddYpDMTrQbYepqd5tpw8EzCBPhDQh65QoHKMo01g+9vf/paDaZYI4OUNSrrtttsuP7S0yiqrzKOUlZK2D8m0yDEQoI3fdNNNcx1drNAoR9bvZkkZZj3wQo6ylEORUvcJOu+9CZjA4BHQSzb2tBnHHntszmagLaHdePrTn55rc/MC3+3G4NUP53h6E7CidXqXj1NnAiZgAiYwgwmgIFliiSXK3Llzc52+yy67rNx1111p1cQaiyussEJBSSKHfz8si4b3JjB4BFCQ0gawaZCNYu6DH/xgWq4yBR3l3Pbbb1++9KUvpRUTYbQRzkrW6VNvKMPFF1+8bLXVVuXee+8ttPuU4TnnnFMuvfTSvIaSRMpWt//Tp+ycEhOYagI8E9KGsPQU3y//7Gc/my9taC9e9KIX5cs3liNxuz/VJeX4TWBeAo+IG/hfq7bPe81nTMAETMAETMAExkGAB2O6Vw2eOWZwfcQRR+RXYVlGgHN8NIu1tXbZZZf8IjVfjVWYcUTrICZgAjOYAO0GjrYB6yWUckcffXQ56aSTcp1nri299NJl//33LzvvvHNZdtllrVQFygxwlOndd99dTjjhhFxPlz6A8uajWSz/8PrXvz4/mMiLOfUBVpjPgIJ1Ek2gDwRoG2gvrr766qYPYM1/2hH6gN1337289a1vLcsvv3ye4zwfxLIzAROYPgSsaJ0+ZeGUmIAJmIAJzHICDz/8cH7I5pOf/GQuIfDQQw9ljlliYIsttiibb755fjBrvfXWaz6aNcuROHsmMCsJMPBlG4uFIgNpBtZ8oZ4PXrHMyAMPPJB8kPOCF7wgp41uueWWjTJuVsKbpZnSC7gLL7ywfOELXyjHH398UR+AcvX/t3fvKlJsURiAKzFRzATxhpoYGCpo4hOYCL6Gqe9h4nuIiQZGvoCBYGLgDVQULyAoiMnh34d9qCOzdAVepnu+grLbNXtqur7u2tX776rqHPV66dKl5fz58+OLtE6ePDnCk7yOErrO11OWs9PrKj/PJKDd0heQ1dpogWy3mbLt7rQNp5YvTs01/R88eDCux52zGRK4Zkofkf7h+vXr4wP6XJbERIDA7hUQtO7e58YjI0CAAIEtElgPgt+8ebPcvXt3uXHjxghW8s3UmfJGOkc45Ui1I0eOLGfPnh3fUp0Bdy4zkG+U3b9//xh8ZzCdN+xzUP39bZaX6/3No6PyfxMBAr9PINv4epvL/TnlZxlIp5btPdfqTD/w+vXr5fHjx2N++vTp8vHjx3FqaD6UyZTt/cyZM+MIpqtXr44vvUo9y7NtR2Lzpjx3eZ6zD7h58+by8OHD5cuXL2NF0qdnH5Cj1o4dOza+PDH7gePHj499QPYNcx+Q5eQottn3zyAnr4tZy0LTLtO6Ngr+IUDgtwjMbS632S7nbf5Y7md7z1lOObL91atX4zr+CVifP3++fPjwYXn37t3y7du38djyQXwuMXXt2rXlypUro1/Q9/+Wp81CCfxSAUHrL+W0MAIECBAgsLNA3mxnoLse7L5//365ffv2cufOnfFNsnnDPd+g77yUf4+GyEA7RzNkzkA7g/M54M7y838TAQJ/XmA9qM79BKs5ajHB6devX0fImvrPpsOHD48j3C9fvrwkYD1w4MDoO9I/ZPvO7ff9yc+W6ed/XyDP/bp/ziUibt26NY5evn///vLy5csRzPzokeb3E77kWr379u0bc4KX1Gf/v/4bP1qWnxEg8GsF5j4gfXT6/fw/t9kPZB+QsxTWH8JVfz0frl+4cGFcizXXY80+Icuc+4Dq99QJENgdAoLW3fE8eBQECBAgsIcE8iZ7HpGQN805eiEh66NHj8bpYjl1OAPuvDHPUQ2Z8zudN+d7iNGqEthYgWz/mfMBST4wSWCWgfTFixfHKeS5fEiOZM81O2doNvuNOZBPqJb+Y/YlG4uxhx54nq/5vGW15/2cHvzs2bPlyZMny71798apw7mfvj/hTJ77hDX2AXvoxWJVt1pgvQ9I/5/9wKFDh8a1mnMpqXPnzo2jV3OE+/wQJf1HpvQbJgIEdreAoHV3Pz8eHQECBAjsQYEMpnOtrpxKnOs25hTjhLEZjOe04wSwM4RN27z5TviSOdO83YN0VpnAXxWYoWhu5+A4YWrmOZjO0akJUOdlQnJa6KlTp5ajR4/+bwCdbTsD6rnM9YplG8/PDLjXKptzf/bZVUien799+3Z58eLF2A9kf5AzID59+rR8/vz5v/4/4WvmtJ/7gijYB2zOa8Ej3S6B2V+nb872ndvZ/899QI5IP3jw4LgcVL7Q6sSJE8vp06fHPmCnPiHb9k717ZKzNgS2S0DQul3Pp7UhQIAAgS0WmIPzeWRTBtOZU59zVj/3TQQI/HmBGXzmds4zdM1AOXMG3Z0p23GWMUOzOYDP785tfP69zvK02Q6B2f8nfFnvA+brJGs5Xx/bscbWgsDmCKz75PTZ+f96H5D+f9ZnH785a+eREiDQFRC0dqW0I0CAAAECBAgQIECAAAECBAgQIECAQCHg2zIKGGUCBAgQIECAAAECBAgQIECAAAECBAh0BQStXSntCBAgQIAAAQIECBAgQIAAAQIECBAgUAgIWgsYZQIECBAgQIAAAQIECBAgQIAAAQIECHQFBK1dKe0IECBAgAABAgQIECBAgAABAgQIECBQCAhaCxhlAgQIECBAgAABAgQIECBAgAABAgQIdAUErV0p7QgQIECAAAECBAgQIECAAAECBAgQIFAICFoLGGUCBAgQIECAAAECBAgQIECAAAECBAh0BQStXSntCBAgQIAAAQIECBAgQIAAAQIECBAgUAgIWgsYZQIECBAgQIAAAQIECBAgQIAAAQIECHQFBK1dKe0IECBAgAABAgQIECBAgAABAgQIECBQCAhaCxhlAgQIECBAgAABAgQIECBAgAABAgQIdAUErV0p7QgQIECAAAECBAgQIECAAAECBAgQIFAICFoLGGUCBAgQIECAAAECBAgQIECAAAECBAh0BQStXSntCBAgQIAAAQIECBAgQIAAAQIECBAgUAgIWgsYZQIECBAgQIAAAQIECBAgQIAAAQIECHQFBK1dKe0IECBAgAABAgQIECBAgAABAgQIECBQCAhaCxhlAgQIECBAgAABAgQIECBAgAABAgQIdAUErV0p7QgQIECAAAECBAgQIECAAAECBAgQIFAICFoLGGUCBAgQIECAAAECBAgQIECAAAECBAh0BQStXSntCBAgQIAAAQIECBAgQIAAAQIECBAgUAgIWgsYZQIECBAgQIAAAQIECBAgQIAAAQIECHQFBK1dKe0IECBAgAABAgQIECBAgAABAgQIECBQCAhaCxhlAgQIECBAgAABAgQIECBAgAABAgQIdAUErV0p7QgQIECAAAECBAgQIECAAAECBAgQIFAICFoLGGUCBAgQIECAAAECBAgQIECAAAECBAh0BQStXSntCBAgQIAAAQIECBAgQIAAAQIECBAgUAgIWgsYZQIECBAgQIAAAQIECBAgQIAAAQIECHQFBK1dKe0IECBAgAABAgQIECBAgAABAgQIECBQCAhaCxhlAgQIECBAgAABAgQIECBAgAABAgQIdAUErV0p7QgQIECAAAECBAgQIECAAAECBAgQIFAICFoLGGUCBAgQIECAAAECBAgQIECAAAECBAh0BQStXSntCBAgQIAAAQIECBAgQIAAAQIECBAgUAgIWgsYZQIECBAgQIAAAQIECBAgQIAAAQIECHQFBK1dKe0IECBAgAABAgQIECBAgAABAgQIECBQCAhaCxhlAgQIECBAgAABAgQIECBAgAABAgQIdAUErV0p7QgQIECAAAECBAgQIECAAAECBAgQIFAICFoLGGUCBAgQIECAAAECBAgQIECAAAECBAh0BQStXSntCBAgQIAAAQIECBAgQIAAAQIECBAgUAgIWgsYZQIECBAgQIAAAQIECBAgQIAAAQIECHQFBK1dKe0IECBAgAABAgQIECBAgAABAgQIECBQCAhaCxhlAgQIECBAgAABAgQIECBAgAABAgQIdAUErV0p7QgQIECAAAECBAgQIECAAAECBAgQIFAICFoLGGUCBAgQIECAAAECBAgQIECAAAECBAh0BQStXSntCBAgQIAAAQIECBAgQIAAAQIECBAgUAgIWgsYZQIECBAgQIAAAQIECBAgQIAAAQIECHQFBK1dKe0IECBAgAABAgQIECBAgAABAgQIECBQCAhaCxhlAgQIECBAgAABAgQIECBAgAABAgQIdAUErV0p7QgQIECAAAECBAgQIECAAAECBAgQIFAICFoLGGUCBAgQIECAAAECBAgQIECAAAECBAh0BQStXSntCBAgQIAAAQIECBAgQIAAAQIECBAgUAgIWgsYZQIECBAgQIAAAQIECBAgQIAAAQIECHQFBK1dKe0IECBAgAABAgQIECBAgAABAgQIECBQCAhaCxhlAgQIECBAgAABAgQIECBAgAABAgQIdAUErV0p7QgQIECAAAECBAgQIECAAAECBAgQIFAICFoLGGUCBAgQIECAAAECBAgQIECAAAECBAh0BQStXSntCBAgQIAAAQIECBAgQIAAAQIECBAgUAgIWgsYZQIECBAgQIAAAQIECBAgQIAAAQIECHQFBK1dKe0IECBAgAABAgQIECBAgAABAgQIECBQCAhaCxhlAgQIECBAgAABAgQIECBAgAABAgQIdAUErV0p7QgQIECAAAECBAgQIECAAAECBAgQIFAICFoLGGUCBAgQIECAAAECBAgQIECAAAECBAh0BQStXSntCBAgQIAAAQIECBAgQIAAAQIECBAgUAgIWgsYZQIECBAgQIAAAQIECBAgQIAAAQIECHQFBK1dKe0IECBAgAABAgQIECBAgAABAgQIECBQCAhaCxhlAgQIECBAgAABAgQIECBAgAABAgQIdAUErV0p7QgQIECAAAECBAgQIECAAAECBAgQIFAICFoLGGUCBAgQIECAAAECBAgQIECAAAECBAh0BQStXSntCBAgQIAAAQIECBAgQIAAAQIECBAgUAgIWgsYZQIECBAgQIAAAQIECBAgQIAAAQIECHQFBK1dKe0IECBAgAABAgQIECBAgAABAgQIECBQCAhaCxhlAgQIECBAgAABAgQIECBAgAABAgQIdAUErV0p7QgQIECAAAECBAgQIECAAAECBAgQIFAICFoLGGUCBAgQIECAAAECBAgQIECAAAECBAh0BQStXSntCBAgQIAAAQIECBAgQIAAAQIECBAgUAgIWgsYZQIECBAgQIAAAQIECBAgQIAAAQIECHQFBK1dKe0IECBAgAABAgQIECBAgAABAgQIECBQCAhaCxhlAgQIECBAgAABAgQIECBAgAABAgQIdAUErV0p7QgQIECAAAECBAgQIECAAAECBAgQIFAICFoLGGUCBAgQIECAAAECBAgQIECAAAECBAh0BQStXSntCBAgQIAAAQIECBAgQIAAAQIECBAgUAgIWgsYZQIECBAgQIAAAQIECBAgQIAAAQIECHQFBK1dKe0IECBAgAABAgQIECBAgAABAgQIECBQCAhaCxhlAgQIECBAgAABAgQIECBAgAABAgQIdAUErV0p7QgQIECAAAECBAgQIECAAAECBAgQIFAICFoLGGUCBAgQIECAAAECBAgQIECAAAECBAh0BQStXSntCBAgQIAAAQIECBAgQIAAAQIECBAgUAgIWgsYZQIECBAgQIAAAQIECBAgQIAAAQIECHQFBK1dKe0IECBAgAABAgQIECBAgAABAgQIECBQCAhaCxhlAgQIECBAgAABAgQIECBAgAABAgQIdAUErV0p7QgQIECAAAECBAgQIECAAAECBAgQIFAICFoLGGUCBAgQIECAAAECBAgQIECAAAECBAh0BQStXSntCBAgQIAAAQIECBAgQIAAAQIECBAgUAgIWgsYZQIECBAgQIAAAQIECBAgQIAAAQIECHQFBK1dKe0IECBAgAABAgQIECBAgAABAgQIECBQCAhaCxhlAgQIECBAgAABAgQIECBAgAABAgQIdAUErV0p7QgQIECAAAECBAgQIECAAAECBAgQIFAICFoLGGUCBAgQIECAAAECBAgQIECAAAECBAh0BQStXSntCBAgQIAAAQIECBAgQIAAAQIECBAgUAgIWgsYZQIECBAgQIAAAQIECBAgQIAAAQIECHQF/gG1F1XslClbdwAAAABJRU5ErkJggg==;" vertex="1" parent="1">
          <mxGeometry x="40" y="90" width="770" height="436.15" as="geometry" />
        </mxCell>
      </root>
    </mxGraphModel>
  </diagram>
</mxfile>
